<?xml version="1.0" standalone="no"?>
<!DOCTYPE svg PUBLIC "-//W3C//DTD SVG 1.1//EN" "http://www.w3.org/Graphics/SVG/1.1/DTD/svg11.dtd" >
<svg xmlns="http://www.w3.org/2000/svg" xmlns:xlink="http://www.w3.org/1999/xlink" version="1.1">
<metadata>
Created by FontForge 20161013 at Wed Dec  7 23:54:59 2016
 By ,,,
Copyright (c) 2011 by DMF. All rights reserved.
</metadata>
<defs>
<font id="AovelSans-Rounded" horiz-adv-x="1024" >
  <font-face 
    font-family="Aovel Sans"
    font-weight="400"
    font-stretch="normal"
    units-per-em="2049"
    panose-1="2 11 5 0 0 0 0 0 0 0"
    ascent="1639"
    descent="-410"
    x-height="1053"
    cap-height="1462"
    bbox="-350.323 -393 5495 1873"
    underline-thickness="102"
    underline-position="-409"
    unicode-range="U+0001-FB06"
  />
<missing-glyph 
d="M58 56v969q0 24 16 39.5t40 15.5h756q25 0 41 -15.5t16 -39.5v-969q0 -24 -16 -40t-41 -16h-756q-24 0 -40 16.5t-16 39.5zM186 127h613v826h-613v-826z" />
    <glyph glyph-name=".notdef" 
d="M58 56v969q0 24 16 39.5t40 15.5h756q25 0 41 -15.5t16 -39.5v-969q0 -24 -16 -40t-41 -16h-756q-24 0 -40 16.5t-16 39.5zM186 127h613v826h-613v-826z" />
    <glyph glyph-name=".null" horiz-adv-x="0" 
 />
    <glyph glyph-name="nonmarkingreturn" horiz-adv-x="569" 
 />
    <glyph glyph-name="uni0001" horiz-adv-x="0" 
 />
    <glyph glyph-name="breve" horiz-adv-x="266" 
d="M-100 1450h37q20 0 35 -12.5t18 -31.5q10 -51 46 -82q33 -33 85 -33q63 0 100 30q35 24 39 81q3 20 19.5 34t35.5 14h37q26 0 41 -17t13 -43q-10 -113 -93 -179q-84 -66 -192 -66q-111 0 -188 71q-71 69 -87 172q-4 26 12 44t42 18z" />
    <glyph glyph-name="caron" horiz-adv-x="266" 
d="M-96 1450h36q9 0 23.5 -6t19.5 -13l146 -175q23 31 66 83q8 10 34.5 41.5t39.5 49.5q23 20 42 20h38q25 0 40.5 -15t15.5 -37q0 -16 -14 -35l-208 -256q-24 -21 -42 -21h-28q-19 0 -42 20q-35 42 -105 128t-105 128q-13 17 -13 35q0 22 15.5 37.5t40.5 15.5z" />
    <glyph glyph-name="dotlessi" horiz-adv-x="266" 
d="M144 0h-36q-23 0 -39 16t-16 39v943q0 23 16 39t39 16h36q24 0 39.5 -16t15.5 -39v-943q0 -23 -15.5 -39t-39.5 -16z" />
    <glyph glyph-name="dotaccent" horiz-adv-x="266" 
d="M108 1341h36q24 0 39.5 -16t15.5 -39v-149q0 -23 -15.5 -39t-39.5 -16h-36q-23 0 -39 16t-16 39v149q0 23 16 39t39 16z" />
    <glyph glyph-name="hungarumlaut" horiz-adv-x="266" 
d="M171 1450h54q25 0 40.5 -15.5t15.5 -37.5t-18 -40l-268 -264q-6 -6 -18.5 -10.5t-19.5 -4.5h-28q-25 0 -40.5 15.5t-15.5 37.5q0 21 16 38l243 265q5 6 18.5 11t20.5 5zM447 1450h54q25 0 40 -15.5t15 -37.5t-18 -40q-84 -82 -268 -264q-6 -6 -18.5 -10.5t-19.5 -4.5h-28
q-25 0 -40.5 15.5t-15.5 37.5q0 21 16 38l242 265q6 6 20 11t21 5z" />
    <glyph glyph-name="ring" horiz-adv-x="266" 
d="M342 1292v-2q0 -85 -63 -151q-63 -63 -153 -63q-88 0 -151 63q-65 65 -65 151q0 40 20 89q21 40 46 65q62 62 150 63q91 -2 152 -63q64 -64 64 -152zM177 1242q19 19 19 49q0 33 -18 52q-19 19 -52 19q-31 0 -47 -19q-22 -20 -23 -53q1 -26 23 -48q18 -20 47 -20
q28 0 51 20z" />
    <glyph glyph-name="ogonek" horiz-adv-x="266" 
d="M139 109h70q25 0 40 -16t15 -38q0 -26 -22 -44q-174 -135 -173 -187q0 -7 9 -14q8 -9 38 -11q40 0 68 13h-1q21 11 32 24q15 15 36 17.5t38 -8.5q5 -3 14.5 -10.5t15.5 -11.5q24 -18 24 -45q0 -16 -14 -35q-35 -42 -105 -70q-51 -19 -109 -19q-87 0 -140 54
q-52 48 -52 114q0 44 24 92q27 47 51 74q66 73 141 121z" />
    <glyph glyph-name="space" unicode=" " horiz-adv-x="569" 
 />
    <glyph glyph-name="exclam" unicode="!" horiz-adv-x="379" 
d="M199 335h-37q-23 0 -38.5 15.5t-15.5 38.5v976q0 23 15.5 39t38.5 16h37q23 0 39 -16t16 -39v-976q0 -23 -16 -38.5t-39 -15.5zM199 0h-37q-23 0 -38.5 16t-15.5 39v180q0 23 15.5 39t38.5 16h37q23 0 39 -16t16 -39v-180q0 -23 -16 -39t-39 -16z" />
    <glyph glyph-name="quotedbl" unicode="&#x22;" horiz-adv-x="569" 
d="M240 1365v-413q0 -23 -16 -39t-39 -16h-37q-23 0 -38.5 16t-15.5 39v413q0 23 15.5 39t38.5 16h37q23 0 39 -16t16 -39zM446 1365v-413q0 -23 -16 -39t-39 -16h-37q-23 0 -38.5 16t-15.5 39v413q0 23 15.5 39t38.5 16h37q23 0 39 -16t16 -39z" />
    <glyph glyph-name="numbersign" unicode="#" horiz-adv-x="1139" 
d="M443 1358h36q26 0 42 -18.5t13 -44.5l-50 -368h202q3 20 8 60.5t9 61.5q9 71 18 131q3 27 9 72.5t8 57.5q3 20 19.5 34t35.5 14h36q26 0 41.5 -18t13.5 -45q-9 -73 -27.5 -205.5t-22.5 -162.5h151q24 0 39.5 -15.5t15.5 -39.5v-36q0 -23 -15.5 -39t-39.5 -16h-173
q-9 -74 -28 -200q0 -5 -1 -8t-2 -7h153q24 0 39.5 -15.5t15.5 -39.5v-36q0 -23 -15.5 -39t-39.5 -16h-173q-24 -162 -51 -373q-3 -20 -19.5 -33.5t-35.5 -13.5h-37q-26 0 -41.5 18.5t-13.5 43.5q16 124 49 358h-204q-1 -11 -24 -175l-27 -198q-3 -20 -19 -33.5t-36 -13.5
h-36q-26 0 -41.5 18.5t-13.5 43.5q7 55 23 174t25 184h-166q-23 0 -38.5 16t-15.5 39v36q0 24 15.5 39.5t38.5 15.5h191q17 129 27 200q0 6 3 15h-170q-23 0 -38.5 16t-15.5 39v36q0 24 15.5 39.5t38.5 15.5h192q5 33 13.5 96.5t12.5 96.5q20 144 26 190q3 20 19 34t36 14z
M462 781l-31 -215h203q9 74 28 200q0 6 3 15h-203z" />
    <glyph glyph-name="dollar" unicode="$" horiz-adv-x="1139" 
d="M39 544h38q21 0 37.5 -16.5t16.5 -37.5q1 -190 104 -280h-1q94 -74 226 -90v552q-2 0 -6.5 1t-5.5 2h1q-42 10 -104 26q-86 26 -152 62q-76 42 -120 113v-1q-49 77 -49 184q2 103 48 184t122 130q129 71 266 77v25q0 23 16 39t39 16h37q23 0 39 -16t16 -39v-27
q176 -17 284 -103q140 -107 152 -344q1 -24 -14.5 -40.5t-40.5 -16.5h-36q-21 0 -37.5 16t-17.5 37q-6 164 -96 233q-84 62 -194 72v-514q94 -22 137 -33q2 -1 6.5 -2t6.5 -1q90 -29 154 -67q75 -42 118 -118q40 -73 40 -192q-4 -210 -173 -315q-129 -78 -289 -89v-109
q0 -23 -16 -38.5t-39 -15.5h-37q-23 0 -39 15.5t-16 38.5v112q-196 18 -324 128h1q-153 131 -153 388q0 23 16 38.5t39 15.5zM267 892q43 -25 116 -47q41 -13 77 -22v480q-97 -10 -185 -56q-47 -24 -78 -72q-28 -41 -28 -116q0 -62 25 -101q21 -34 73 -67v1zM607 641v-523
q113 11 208 65q105 63 109 194q0 83 -28 123v-1q-33 46 -83 73q-58 31 -125 48q-12 5 -18 5q-8 2 -16 5t-11 3t-13.5 3t-22.5 5z" />
    <glyph glyph-name="percent" unicode="%" horiz-adv-x="1403" 
d="M151 21l875 1374h-1q6 9 20.5 17t25.5 8h42q35 0 50 -27t-4 -57l-874 -1373h1q-6 -9 -20.5 -17.5t-25.5 -8.5h-42q-33 0 -49 28q-15 27 2 56zM99 760q-79 103 -79 247q0 169 87 265l-1 -1q90 108 247 108q169 0 257 -108q83 -103 83 -262q0 -148 -84 -254
q-98 -111 -255 -112q-167 1 -255 117zM213 1177q-47 -65 -47 -170q0 -94 49 -158q47 -60 140 -60q95 0 142 60q50 62 50 158q0 111 -47 170v-1q-49 53 -145 58q-101 -2 -142 -57zM716 95q-80 109 -80 248q0 161 87 264q94 106 246 108q168 -1 257 -109q84 -102 84 -261
q0 -143 -84 -253q-96 -114 -257 -115q-161 4 -253 118zM831 511q-48 -60 -48 -168q0 -99 49 -158q41 -59 137 -61q100 1 144 61q50 62 50 158q0 111 -47 170q-45 51 -145 56q-100 -2 -140 -58z" />
    <glyph glyph-name="ampersand" unicode="&#x26;" horiz-adv-x="1175" 
d="M952 305l172 -217q14 -19 14 -36q0 -21 -15.5 -36.5t-40.5 -15.5h-48q-9 0 -22.5 7t-19.5 13l-116 146q-41 -57 -119 -115q-106 -80 -270 -82q-160 1 -286 99q-141 105 -142 280q4 175 137 301q68 66 120 98h-1q8 6 23 15t22 14q5 4 15 10t11 6q-5 9 -13 20l-9 11
q-3 3 -8 10t-8 11q-9 13 -27.5 37t-22.5 30q-28 45 -55 101q-26 52 -26 109q1 155 108 232q96 67 214 67q137 0 225 -75q97 -83 97 -224q0 -83 -31 -140q-32 -56 -85 -109q-74 -61 -146 -115q19 -23 49 -62t43 -55q19 -24 72 -92.5t83 -106.5l1 3l-1 -1q10 52 8 119
q-1 23 15 39t39 16h37q22 0 38.5 -16t16.5 -39q1 -147 -48 -257zM411 1233q-47 -36 -49 -109q-1 -70 146 -255q22 12 44 32q33 24 83 68q35 35 62 74v1q18 38 18 77q-1 71 -48 113l1 -1q-48 41 -128 41q-76 0 -129 -41zM783 290l-308 387q-88 -53 -174 -127v1
q-41 -36 -70 -92q-26 -50 -26 -111q1 -112 83 -169q83 -64 199 -64q115 0 190 57q65 50 106 118z" />
    <glyph glyph-name="quotesingle" unicode="'" horiz-adv-x="342" 
d="M91 952v413q0 23 15.5 39t38.5 16h36q23 0 38.5 -16t15.5 -39v-413q0 -23 -15.5 -39t-38.5 -16h-36q-23 0 -38.5 16t-15.5 39z" />
    <glyph glyph-name="parenleft" unicode="(" horiz-adv-x="455" 
d="M352 1450h37q34 0 49 -25q15 -26 -1 -55q-206 -373 -207 -798q0 -430 209 -815q16 -29 1 -56q-15 -26 -49 -26h-37q-12 0 -27.5 9.5t-20.5 20.5v-1q-222 401 -222 868q1 450 220 851q6 11 21 19t27 8z" />
    <glyph glyph-name="parenright" unicode=")" horiz-adv-x="455" 
d="M79 -325h-37q-34 0 -49 26q-15 27 1 56q205 375 206 796q-2 441 -208 817q-15 28 0 55q15 25 49 25h36q12 0 27 -8.5t21 -19.5v1q221 -403 221 -870q-1 -454 -219 -849v1q-6 -11 -21 -20.5t-27 -9.5z" />
    <glyph glyph-name="asterisk" unicode="*" horiz-adv-x="721" 
d="M319 1420h37q23 0 39 -16t16 -39v-181q18 5 79 25q67 24 92 31v-1q26 8 46 -4t24 -40q2 -6 4.5 -16.5t3.5 -15.5q2 -21 -8 -38.5t-30 -23.5l-165 -56q47 -64 97 -126q1 -2 5 -6.5t5 -6.5q10 -16 10 -33q0 -28 -22 -44q-6 -3 -16 -10t-15 -11q-18 -12 -40 -9t-35 19
l-110 143q-11 -12 -27.5 -33.5t-23.5 -29.5q-10 -13 -29.5 -36.5t-29.5 -36.5q-19 -21 -42 -21q-15 0 -36 13q-20 17 -30 25q-18 16 -18 40q0 16 13 36l109 129q-14 5 -37 13t-37 12l-88 29q-21 8 -31 27t-4 41v-1q1 6 5 17.5t6 17.5q6 22 27 32.5t42 2.5l160 -55v182
q0 23 15.5 39t38.5 16z" />
    <glyph glyph-name="plus" unicode="+" horiz-adv-x="1229" 
d="M509 593v390q0 23 16 38.5t39 15.5h37q23 0 38.5 -15.5t15.5 -38.5v-390h390q23 0 38.5 -16.5t15.5 -38.5v-38q0 -23 -15.5 -38t-38.5 -15h-390v-392q0 -23 -15.5 -39t-38.5 -16h-37q-23 0 -39 16t-16 39v392h-390q-22 0 -38.5 15t-16.5 38v38q0 22 16.5 38.5t38.5 16.5
h390z" />
    <glyph glyph-name="comma" unicode="," horiz-adv-x="569" 
d="M238 -209q-16 -12 -34 -12q-21 0 -37 16t-16 41v36q0 8 6 21.5t11 17.5q13 13 19 41q9 30 9 103v180q0 23 15.5 39t38.5 16h37q23 0 38.5 -16t15.5 -39v-180q1 -183 -103 -264z" />
    <glyph glyph-name="hyphen" unicode="-" horiz-adv-x="682" 
d="M108 528v36q0 24 16 39.5t39 15.5h321q23 0 38.5 -15.5t15.5 -39.5v-36q0 -23 -15.5 -39t-38.5 -16h-321q-23 0 -39 16t-16 39z" />
    <glyph glyph-name="period" unicode="." horiz-adv-x="569" 
d="M343 235v-180q0 -23 -16 -39t-39 -16h-37q-23 0 -38.5 16t-15.5 39v180q0 23 15.5 39t38.5 16h37q23 0 39 -16t16 -39z" />
    <glyph glyph-name="slash" unicode="/" horiz-adv-x="682" 
d="M41 -31h-36q-28 0 -45 24q-15 25 -5 52q112 258 600 1373q5 13 20 22.5t30 9.5h36q31 0 45 -23.5t5 -51.5q-112 -257 -322 -737.5t-278 -636.5q-5 -12 -20.5 -22t-29.5 -10z" />
    <glyph glyph-name="zero" unicode="0" horiz-adv-x="1139" 
d="M959 1146q108 -206 107 -468q1 -261 -107 -463q-123 -231 -420 -238q-293 7 -416 237q-111 203 -110 464q-1 261 110 467q122 228 416 234q293 -6 420 -233zM902 480q19 116 19 198q0 89 -19 205q-20 103 -64 179q-83 168 -300 172q-111 -1 -181 -47h1q-75 -50 -116 -126
q-44 -74 -61 -179q-22 -97 -22 -204q0 -98 22 -198q16 -100 62 -182q42 -80 114 -124q71 -50 182 -50q115 0 182 50q75 45 117 124q43 73 64 182z" />
    <glyph glyph-name="one" unicode="1" horiz-adv-x="1139" 
d="M515 55v1068q-35 -29 -66 -47q-97 -64 -199 -94q-29 -8 -49.5 7.5t-20.5 45.5v37q0 14 11 30t25 21q94 34 170 85q86 69 138 130q23 20 42 20h41q23 0 38 -16t15 -39v-1248q0 -23 -15 -39t-38 -16h-38q-23 0 -38.5 16t-15.5 39z" />
    <glyph glyph-name="two" unicode="2" horiz-adv-x="1139" 
d="M239 146h733q23 0 39 -15.5t16 -39.5v-36q0 -23 -16 -39t-39 -16h-841q-23 0 -38.5 16.5t-15.5 39.5q1 91 40 170q41 72 100 131q53 53 135 114q78 57 141 98q131 86 255 203q95 95 99 217q-2 119 -76 181q-83 64 -216 64q-165 -2 -237 -90q-74 -93 -74 -251
q0 -23 -15.5 -38.5t-38.5 -15.5h-38q-23 0 -38.5 15.5t-15.5 38.5q2 242 115.5 362.5t341.5 123.5q179 0 306 -94q131 -102 132 -298q-4 -168 -131 -304q-133 -137 -268 -222h1q-150 -100 -258 -191h1q-68 -57 -99 -124z" />
    <glyph glyph-name="three" unicode="3" horiz-adv-x="1139" 
d="M175 861h-37q-23 0 -38.5 15.5t-15.5 38.5q0 226 132 347q129 117 347 117q171 0 300 -77q142 -90 146 -284q-1 -154 -92 -243q-31 -31 -59 -48q43 -28 66 -47q109 -96 110 -281q-1 -200 -148 -312q-139 -109 -329 -110q-235 1 -377 134q-133 130 -133 337v14q0 2 0.5 7
t0.5 8q0 23 16 38.5t39 15.5h37q24 0 40 -17t14 -42v-28q0 -150 87 -228q98 -92 276 -92q142 0 235 74q90 67 95 201q0 130 -79 188q-82 62 -226 67h-88q-24 0 -39.5 15.5t-15.5 38.5v37q0 22 16 38.5t39 16.5h89q115 0 200 53q74 43 80 165q-6 117 -84 164q-97 52 -216 52
q-322 0 -334 -320q-1 -23 -16.5 -38t-37.5 -15z" />
    <glyph glyph-name="four" unicode="4" horiz-adv-x="1139" 
d="M670 325h-578q-23 0 -39 15.5t-16 38.5v63l634 893q6 8 21 15.5t24 7.5h46q23 0 38.5 -16t15.5 -39v-833h171q24 0 39.5 -15.5t15.5 -38.5v-37q0 -23 -15.5 -38.5t-39.5 -15.5h-171v-270q0 -23 -15.5 -39t-38.5 -16h-38q-23 0 -38.5 16t-15.5 39v270zM670 470v614
q-59 -82 -163.5 -230.5t-120.5 -170.5q-7 -10 -62.5 -88t-88.5 -125h435z" />
    <glyph glyph-name="five" unicode="5" horiz-adv-x="1139" 
d="M910 1212h-567q-6 -30 -18.5 -86.5t-15.5 -70.5q-3 -12 -6.5 -28.5t-6.5 -29.5t-5 -24q-6 -34 -17 -83q110 65 256 65q221 0 351 -136q134 -135 135 -349q0 -220 -134 -354q-133 -138 -352 -139q-213 1 -353 129q-136 127 -135 348q0 23 16.5 39t38.5 16h37
q23 0 38.5 -15.5t15.5 -39.5q0 -154 87 -243q91 -82 253 -87q149 10 240 102q92 93 102 244q-7 158 -91 245q-90 95 -249 95q-204 -2 -302 -166q-6 -9 -21.5 -17.5t-25.5 -8.5h-46q-26 0 -42 19.5t-11 46.5l133 630q4 18 20 31t34 13h641q22 0 38.5 -16t16.5 -39v-37
q0 -23 -16.5 -38.5t-38.5 -15.5z" />
    <glyph glyph-name="six" unicode="6" horiz-adv-x="1139" 
d="M956 955h-36q-19 0 -34.5 12.5t-19.5 30.5q-17 73 -47 122l1 -1q-30 42 -72 67q-96 49 -180 48q-116 -1 -190 -58q-79 -65 -117 -153q-41 -96 -56 -214v-1q30 26 46 41q129 100 296 101q193 -2 333 -133v1q152 -131 153 -354q-1 -214 -146 -346q-138 -140 -341 -141
q-143 1 -248 72q-108 70 -160 151q-58 91 -75 212v-1q-18 114 -17 233q-1 256 104 482q121 247 419 253q185 0 303 -105v1q113 -99 138 -258q4 -26 -12 -44t-42 -18zM789 223q97 100 98 241q0 144 -98 243q-97 95 -242 97q-141 -1 -241 -98q-99 -96 -100 -242
q1 -142 100 -241q95 -98 241 -99q147 2 242 99z" />
    <glyph glyph-name="seven" unicode="7" horiz-adv-x="1139" 
d="M764 1212h-623q-23 0 -38.5 15.5t-15.5 38.5v37q0 23 15.5 39t38.5 16h797q23 0 38.5 -16t15.5 -39v-50q0 -24 -15 -39q-249 -239 -399 -525q-148 -277 -149 -634q0 -22 -16 -38.5t-39 -16.5h-36q-21 0 -37 17t-18 39q12 322 139 624q123 294 342 532z" />
    <glyph glyph-name="eight" unicode="8" horiz-adv-x="1139" 
d="M984 1008q-1 -129 -88 -216q-3 -3 -5 -3q-19 -19 -47 -40q197 -92 203 -346q-4 -217 -157 -324q-147 -102 -351 -102q-195 0 -348 102q-158 110 -159 324q4 257 202 346q-20 14 -47 43q-93 89 -94 216q1 198 141 287h-1q125 84 306 84q187 0 311 -84q132 -90 134 -287z
M753 866q81 45 86 145q0 64 -21 105q-25 46 -58 67v-1q-98 52 -221 52q-119 0 -217 -52l-1 1q-29 -20 -56 -67q-25 -45 -25 -107q0 -46 21 -77q30 -45 67 -66q101 -55 211 -55q116 0 214 55zM801 192h-1q97 67 101 211q-5 145 -98 202q-112 60 -264 59q-148 1 -260 -59
q-98 -60 -102 -203q1 -144 102 -210q107 -69 260 -68q155 -1 262 68z" />
    <glyph glyph-name="nine" unicode="9" horiz-adv-x="1139" 
d="M123 403h36q17 0 32.5 -11.5t20.5 -28.5q40 -141 124 -189q38 -23 89 -39h-1q49 -11 86 -11q121 2 194 60q72 55 116 156q40 91 58 213q-20 -19 -45 -42q-126 -103 -301 -103q-188 0 -332 135v-1q-148 130 -154 351q2 217 147 349q141 137 339 137q144 0 253 -69
q94 -61 156 -153q60 -92 80 -209q14 -97 14 -235q2 -262 -104 -480q-65 -112 -162 -181q-110 -74 -261 -75q-179 0 -300 106v-1q-110 97 -139 259q-3 25 12.5 43.5t41.5 18.5zM773 653q97 96 99 240q-1 145 -98 242q-95 97 -242 99q-143 -2 -240 -100q-98 -94 -99 -241
q1 -147 99 -240q96 -98 240 -100q145 1 241 100z" />
    <glyph glyph-name="colon" unicode=":" horiz-adv-x="569" 
d="M288 763h-37q-23 0 -38.5 16t-15.5 39v180q0 23 15.5 39t38.5 16h37q23 0 39 -16t16 -39v-180q0 -23 -16 -39t-39 -16zM288 0h-37q-23 0 -38.5 16t-15.5 39v180q0 23 15.5 39t38.5 16h37q23 0 39 -16t16 -39v-180q0 -23 -16 -39t-39 -16z" />
    <glyph glyph-name="semicolon" unicode=";" horiz-adv-x="569" 
d="M287 763h-37q-23 0 -38.5 16t-15.5 39v180q0 23 15.5 39t38.5 16h37q23 0 38.5 -16t15.5 -39v-180q0 -23 -15.5 -39t-38.5 -16zM341 235v-180q1 -183 -103 -264q-16 -12 -34 -12q-21 0 -37 16t-16 41v36q0 8 6 21.5t12 18.5q12 13 18 40q9 30 9 103v180q0 23 15.5 39
t38.5 16h37q23 0 38.5 -16t15.5 -39z" />
    <glyph glyph-name="less" unicode="&#x3c;" horiz-adv-x="1229" 
d="M1025 -9l-933 457q-11 5 -21 21t-10 29v44q0 11 9.5 26.5t20.5 22.5l934 456q30 13 54 -1q25 -15 25 -48v-38q0 -13 -10 -28t-22 -21q-173 -85 -799 -391q147 -71 415.5 -203.5t383.5 -188.5q12 -6 22 -21.5t10 -27.5v-39q0 -33 -25 -48q-24 -14 -54 -1z" />
    <glyph glyph-name="equal" unicode="=" horiz-adv-x="1229" 
d="M1045 624h-926q-22 0 -38.5 15.5t-16.5 38.5v37q0 23 16.5 38.5t38.5 15.5h926q23 0 38.5 -15.5t15.5 -38.5v-37q0 -23 -15.5 -38.5t-38.5 -15.5zM1045 268h-926q-22 0 -38.5 16t-16.5 39v36q0 23 16.5 39t38.5 16h926q23 0 38.5 -15.5t15.5 -39.5v-36q0 -24 -15.5 -39.5
t-38.5 -15.5z" />
    <glyph glyph-name="greater" unicode="&#x3e;" horiz-adv-x="1229" 
d="M92 128l799 392q-79 38 -235 115t-235 115q-108 52 -329 161q-11 5 -21 20.5t-10 28.5v38q0 33 25 48q24 14 54 1l932 -456q12 -7 22 -22.5t10 -26.5v-44q0 -13 -10 -28.5t-22 -21.5q-153 -75 -466 -228.5t-466 -228.5q-30 -13 -54 1q-25 15 -25 48v39q0 11 10 27t21 22z
" />
    <glyph glyph-name="question" unicode="?" 
d="M127 905h-37q-22 0 -38 15.5t-16 38.5q-4 215 113 352q118 139 339 139q174 0 292 -90q123 -95 123 -269q0 -78 -21 -138q-23 -60 -53 -104q-36 -49 -64 -73q-2 -2 -7 -6.5t-6 -5.5q-7 -6 -19.5 -18t-19.5 -18l-3 -3l-5 -5q-94 -86 -126 -151q-37 -68 -37 -180
q0 -23 -15.5 -38.5t-38.5 -15.5h-37q-22 0 -38 15.5t-16 37.5q-2 138 45 231v-1q47 97 151 198l6 6l40 35q27 20 52 54q32 33 48 79v-1q15 39 20 101q-5 103 -69 157q-76 58 -202 58q-155 0 -231 -92q-82 -94 -76 -251q1 -25 -15 -41t-39 -16zM488 0h-37q-23 0 -38.5 16
t-15.5 39v180q0 23 15.5 39t38.5 16h37q23 0 38.5 -16t15.5 -39v-180q0 -23 -15.5 -39t-38.5 -16z" />
    <glyph glyph-name="at" unicode="@" horiz-adv-x="1638" 
d="M1318 415l-14 -18q21 17 40 17h42q34 0 48 -28t-3 -55q-114 -168 -269 -256q-161 -92 -351 -98q-273 0 -487 175q-225 177 -231 551q4 308 212 512q207 197 505 201q276 -1 459 -162q186 -159 192 -445q-6 -238 -143 -395v1zM1019 1100v-1q37 -24 56 -42q1 4 3 9.5t3 9.5
q6 15 21 26t30 11h38q30 0 45.5 -23t5.5 -52q-35 -97 -102 -264q-11 -27 -32 -81.5t-31 -82.5v1q-7 -20 -21 -56t-18 -47q-28 -66 -24 -112q0 -8 19 -8q98 2 194 118q104 117 108 305q-1 203 -137 332q-145 125 -365 127q-252 -4 -409 -167q-164 -159 -165 -399
q6 -289 172 -433q165 -147 401 -147q72 0 146 21v1q63 21 136 58q67 39 115 84q51 46 90 103q-131 -149 -289 -149q-80 0 -123 48q-10 8 -16 18q-29 -21 -70 -38h1q-74 -30 -154 -28q-128 0 -217 97l-3 3q-84 90 -84 220q1 202 131 385q72 94 155 143q94 57 204 58
q103 0 186 -48zM887 573l124 321q-20 58 -65 80h1q-56 28 -121 28q-70 0 -128 -36h1q-60 -42 -110 -109q-99 -148 -100 -295q0 -71 47 -123q49 -51 119 -51q61 -1 127 37q30 18 56 53q19 25 49 95z" />
    <glyph glyph-name="A" unicode="A" horiz-adv-x="1178" 
d="M872 444h-611q-21 -54 -61.5 -153t-58.5 -144q-29 -68 -46 -112v1q-5 -14 -21.5 -25t-30.5 -11h-44q-33 0 -47 24q-15 26 -4 54l548 1349q5 14 20.5 24.5t30.5 10.5h51q14 0 30.5 -11t21.5 -24l533 -1350q12 -30 -4 -53.5t-49 -23.5h-41q-14 0 -30 11t-21 25v-1
q-28 69 -83 204.5t-83 204.5zM321 594h493q-23 60 -64.5 167.5t-76.5 197t-65 168.5q-11 27 -18 47q-2 4 -5 13t-6 17.5t-7 16.5q-21 -51 -54 -134t-60.5 -151.5t-53.5 -130.5q-64 -161 -83 -211z" />
    <glyph glyph-name="B" unicode="B" horiz-adv-x="1251" 
d="M56 56v1238q0 6 -0.5 17.5t-0.5 16.5q0 45 9.5 70t37.5 39q53 27 237 27h52q11 0 34.5 -0.5t37.5 -0.5q66 -1 231 -1q180 0 304 -93q131 -106 132 -300q-1 -143 -94 -248q-37 -37 -64 -54q45 -23 85 -60q114 -107 115 -285q-1 -200 -146 -316q-143 -106 -355 -106h-558
q-24 0 -40.5 16.5t-16.5 39.5zM206 835h488q124 0 207 62q79 56 79 173q0 120 -74 181q-81 61 -212 61q-204 0 -305 4q-78 2 -113 2q-52 0 -62 -5q-8 -4 -8 -21v-457zM206 685v-535h482q152 0 244 70q90 66 90 200q-4 143 -92 202q-110 63 -236 63h-488z" />
    <glyph glyph-name="C" unicode="C" horiz-adv-x="1403" 
d="M1241 641h38q26 0 41.5 -18t13.5 -45q-36 -270 -201 -435q-169 -175 -449 -176q-298 4 -479 217l1 -1q-188 211 -189 537q0 280 158 514v-1q165 256 534 262q296 -6 445 -173h-1q151 -164 152 -320q0 -23 -16.5 -40t-39.5 -17h-39q-21 0 -37 15t-18 36q-12 136 -128 239
q-116 106 -319 110q-148 0 -250 -61q-100 -57 -164 -149v1q-128 -209 -127 -416q0 -248 140 -424q129 -173 379 -179q218 1 344 135q124 130 155 341q2 20 18.5 34t37.5 14z" />
    <glyph glyph-name="D" unicode="D" horiz-adv-x="1327" 
d="M72 56v1261v13q0 34 0.5 49.5t5.5 33t16 27.5q32 29 175 29q46 0 75 -1q42 -2 71 -2q40 0 63 -1q10 0 124 -3q112 -2 220 -33q111 -38 205 -120q98 -89 149 -226q56 -141 56 -353q-4 -382 -214 -560q-201 -170 -476 -170h-413q-25 0 -41 16t-16 40zM222 1307v-1157h329
q223 0 377 142q150 135 154 440q0 83 -11 168q-11 72 -31 125v-1q-37 102 -110 175q-71 60 -154 89q-84 24 -186 24t-218 2q-38 1 -90 1q-18 0 -35 -1h-17q-8 -1 -8 -7z" />
    <glyph glyph-name="E" unicode="E" horiz-adv-x="1100" 
d="M219 685v-535h809q24 0 40 -16.5t16 -39.5v-38q0 -23 -16 -39.5t-40 -16.5h-903q-23 0 -39.5 16.5t-16.5 39.5v1350q0 23 16.5 39.5t39.5 16.5h896q24 0 40 -16.5t16 -39.5v-38q0 -23 -16 -39.5t-40 -16.5h-802v-477h752q23 0 39 -16.5t16 -40.5v-38q0 -24 -16 -39.5
t-39 -15.5h-752z" />
    <glyph glyph-name="F" unicode="F" horiz-adv-x="985" 
d="M218 1312v-477h662q24 0 40 -16.5t16 -40.5v-38q0 -24 -16 -39.5t-40 -15.5h-662v-629q0 -23 -16.5 -39.5t-39.5 -16.5h-38q-24 0 -40 16.5t-16 39.5v1350q0 23 16 39.5t40 16.5h832q23 0 39.5 -16.5t16.5 -39.5v-38q0 -23 -16.5 -39.5t-39.5 -16.5h-738z" />
    <glyph glyph-name="G" unicode="G" horiz-adv-x="1479" 
d="M1216 55v164q-69 -118 -195.5 -184t-298.5 -68q-333 5 -517 230q-173 223 -173 534q2 328 183 539q184 221 507 225q521 -10 615 -501q5 -27 -11 -46.5t-45 -19.5h-37q-20 0 -35.5 13.5t-19.5 31.5q-36 170 -161 268q-121 92 -307 104q-258 -6 -395 -177
q-145 -177 -145 -437q0 -263 140 -434l-1 1q47 -48 80 -75q41 -31 91 -55q99 -51 237 -51q203 2 341 132v1q133 127 139 328q-1 16 -10 16h-457q-24 0 -40.5 16t-16.5 40v38q0 23 16.5 39.5t40.5 16.5h460q90 0 129 -53q32 -47 32 -142v-495q0 -23 -15.5 -38.5t-38.5 -15.5
h-37q-23 0 -39 15.5t-16 39.5z" />
    <glyph glyph-name="H" unicode="H" horiz-adv-x="1327" 
d="M1054 685h-833v-629q0 -24 -15.5 -40t-40.5 -16h-37q-24 0 -40.5 16.5t-16.5 39.5v1350q0 23 16.5 39.5t40.5 16.5h37q25 0 40.5 -16t15.5 -40v-571h833v571q0 23 16.5 39.5t39.5 16.5h38q24 0 40 -16.5t16 -39.5v-1350q0 -23 -16 -39.5t-40 -16.5h-38q-23 0 -39.5 16.5
t-16.5 39.5v629z" />
    <glyph glyph-name="I" unicode="I" horiz-adv-x="262" 
d="M51 56v1350q0 23 16.5 39.5t39.5 16.5h38q24 0 40 -16.5t16 -39.5v-1350q0 -23 -16 -39.5t-40 -16.5h-38q-23 0 -39.5 16.5t-16.5 39.5z" />
    <glyph glyph-name="J" unicode="J" horiz-adv-x="948" 
d="M686 436v970q0 23 16 39.5t40 16.5h38q24 0 40 -16.5t16 -39.5v-999q0 -185 -95 -309q-107 -130 -331 -131q-207 1 -317 127q-100 116 -98 299v82q0 23 16 39.5t39 16.5h39q23 0 39.5 -16.5t16.5 -39.5v-82q1 -276 265 -276q139 0 208 66q68 65 68 253z" />
    <glyph glyph-name="K" unicode="K" horiz-adv-x="1214" 
d="M461 722l-239 -212v-454q0 -23 -16 -39.5t-40 -16.5h-38q-24 0 -40 16.5t-16 39.5v1350q0 23 16 39.5t40 16.5h38q24 0 40 -16.5t16 -39.5v-697q67 59 220.5 195t237.5 209q92 81 399 349h80q25 0 41 -16.5t16 -38.5q0 -26 -20 -44l-618 -543l600 -689q27 -30 26 -52
l-3 -29q-5 -32 -30 -45q-11 -7 -47.5 -6.5t-47.5 9.5z" />
    <glyph glyph-name="L" unicode="L" horiz-adv-x="985" 
d="M218 150h732q23 0 39 -16.5t16 -39.5v-38q0 -23 -16 -39.5t-39 -16.5h-826q-24 0 -40 16.5t-16 39.5v1350q0 23 16 39.5t40 16.5h37q24 0 40.5 -16.5t16.5 -39.5v-1256z" />
    <glyph glyph-name="M" unicode="M" horiz-adv-x="1597" 
d="M132 1462h63q13 0 29 -10.5t22 -23.5q95 -215 270 -613t252 -574q88 200 261 593.5t261 593.5q6 13 21.5 23.5t29.5 10.5h62q25 0 40.5 -16t15.5 -40v-1350q0 -24 -15.5 -40t-40.5 -16h-37q-24 0 -40.5 16.5t-16.5 39.5v1045q-27 -63 -78 -178t-66 -150
q-23 -53 -78 -177.5t-84 -192.5q-46 -104 -163 -369q-6 -13 -22 -23.5t-29 -10.5h-42q-14 0 -30 10.5t-21 23.5q-24 56 -200 453.5t-269 611.5v-1043q0 -23 -16 -39.5t-40 -16.5h-39q-23 0 -39 16.5t-16 39.5v1350q0 23 16 39.5t39 16.5z" />
    <glyph glyph-name="N" unicode="N" horiz-adv-x="1327" 
d="M71 56v1350q0 23 16.5 39.5t40.5 16.5h56q9 0 23.5 -7.5t22.5 -16.5q364 -511 824 -1164v1132q0 23 16.5 39.5t39.5 16.5h38q24 0 40 -16.5t16 -39.5v-1350q0 -23 -16 -39.5t-40 -16.5h-57q-10 0 -25.5 8t-20.5 17l1 -1q-81 114 -224.5 316.5t-187.5 264.5
q-394 555 -413 582v-1131q0 -24 -15.5 -40t-40.5 -16h-37q-24 0 -40.5 16.5t-16.5 39.5z" />
    <glyph glyph-name="O" unicode="O" horiz-adv-x="1477" 
d="M206 201q-173 218 -173 530q0 317 172 533q175 227 505 231q331 -4 510 -230q169 -215 169 -534q0 -302 -168 -529q-90 -111 -219.5 -172t-291.5 -63q-331 4 -504 234zM710 1345q-246 -4 -382 -167q-140 -174 -146 -447q6 -272 146 -446q135 -167 382 -168q249 1 384 169
q141 167 145 445q-4 278 -144 447v-1q-142 163 -385 168z" />
    <glyph glyph-name="P" unicode="P" horiz-adv-x="1175" 
d="M220 615v-559q0 -23 -16 -39.5t-40 -16.5h-38q-23 0 -39.5 16.5t-16.5 39.5v1237q0 62 9 93.5t37 48.5q29 17 84 23t162 6h50q10 0 31.5 -0.5t33.5 -0.5h84q17 0 53.5 -0.5t57.5 -0.5q461 0 468 -424q-1 -203 -141 -317q-134 -106 -346 -106h-433zM220 1288v-523h452
q146 0 232 74q85 69 86 199q0 270 -319 274q-156 0 -245 4q-78 2 -111 2q-57 0 -76 -6t-19 -24z" />
    <glyph glyph-name="Q" unicode="Q" horiz-adv-x="1477" 
d="M1298 -28q-17 -15 -39.5 -14t-37.5 18q-65 72 -108 120q-162 -128 -403 -129q-331 4 -504 234q-173 218 -173 530q0 317 172 533q175 227 506 231q330 -4 509 -230q169 -215 169 -534q0 -315 -172 -531l-1 -1q35 -36 113 -125q16 -17 14.5 -39t-18.5 -38zM329 285
q132 -167 382 -168q174 0 300 93l-29 33q4 -4 14 -16l-1 -1q-29 31 -138 153q-16 18 -14.5 40.5t19.5 37.5l27 24q18 17 39.5 16t36.5 -19q44 -48 90.5 -100t58.5 -65q120 156 125 418q-4 276 -144 447v-1q-142 164 -384 168q-249 -5 -382 -167q-140 -169 -147 -447
q7 -277 147 -446z" />
    <glyph glyph-name="R" unicode="R" horiz-adv-x="1251" 
d="M222 633v-577q0 -23 -16 -39.5t-40 -16.5h-38q-24 0 -40 16.5t-16 39.5v1350q0 23 16 39.5t40 16.5h552q467 0 468 -402q0 -236 -179 -343q66 -33 103 -99q53 -107 64 -341v1q1 -17 1.5 -34.5t0.5 -29v-22.5t0.5 -17.5t0.5 -11.5t1 -7t3 -1q27 13 55 -1q27 -15 27 -50
l-2 -45q0 -17 -12 -33t-29 -21q-26 -7 -43 -7q-138 0 -151 264q-8 230 -60 302q-53 68 -254 69h-452zM222 1312v-529h448q142 0 236 70q92 65 92 212q5 121 -72 183t-237 64h-467z" />
    <glyph glyph-name="S" unicode="S" horiz-adv-x="1251" 
d="M1065 973h-38q-22 0 -38.5 15.5t-17.5 38.5q-7 172 -107 247q-105 73 -276 71q-134 1 -255 -59q-51 -27 -79 -75q-32 -43 -32 -121q0 -74 29 -109q37 -46 86 -73h-1q58 -28 139 -46q23 -6 67.5 -17t55.5 -14h-1q7 -2 21.5 -6.5t22.5 -6.5v1q125 -28 187 -45
q78 -23 158 -69q72 -42 120 -121q41 -74 41 -198q-5 -221 -178 -324q-155 -95 -353 -95q-247 0 -416 127q-78 68 -122.5 173.5t-45.5 236.5q0 24 16 40t40 16h38q23 0 39.5 -16.5t16.5 -39.5q1 -210 115 -295q121 -93 319 -92q140 0 270 70q107 65 111 202q0 84 -32 131
q-37 50 -93 75q-64 31 -140 48q-73 19 -162 37q-15 3 -41 9q-40 9 -87 22q-26 8 -38 11q-83 23 -159 62q-83 47 -123 117l1 -1q-51 79 -51 190q0 119 51 198l-1 -1q48 78 128 127q80 47 166 65q81 16 172 16q226 2 368 -102q148 -110 165 -361q-1 -24 -17 -41.5t-39 -17.5z
" />
    <glyph glyph-name="T" unicode="T" 
d="M417 1312h-429q-25 0 -41 16t-16 40v38q0 24 16 40t41 16h1010q23 0 39 -16.5t16 -39.5v-38q0 -23 -16 -39.5t-39 -16.5h-431v-1256q0 -24 -16 -40t-41 -16h-37q-24 0 -40 16.5t-16 39.5v1256z" />
    <glyph glyph-name="U" unicode="U" horiz-adv-x="1294" 
d="M1024 559v847q0 24 16 40t41 16h37q24 0 40 -16.5t16 -39.5v-848q-7 -591 -552 -591q-274 0 -411 147t-140 445v847q0 24 16.5 40t40.5 16h37q24 0 40 -16.5t16 -39.5v-847q-1 -207 106 -321q101 -110 295 -121q190 11 294 121q108 114 108 321z" />
    <glyph glyph-name="V" unicode="V" horiz-adv-x="1102" 
d="M-13 1462h37q15 0 31.5 -11.5t21.5 -24.5v1q141 -360 229 -585q177 -453 230 -586q75 197 223 585.5t223 585.5q6 13 22 24t31 11h38q28 0 47 -23q15 -25 5 -54l-515 -1349l1 1q-5 -15 -21.5 -26t-31.5 -11h-41q-16 0 -32 11t-21 25l-529 1349q-9 30 6 53.5t46 23.5z" />
    <glyph glyph-name="W" unicode="W" horiz-adv-x="1782" 
d="M830 1462h55q17 0 33 -12t21 -28q65 -213 184.5 -607.5t157.5 -519.5q52 178 159.5 553t165.5 574q5 15 21.5 27.5t32.5 12.5h38q29 0 45.5 -22t8.5 -50l-392 -1350q-5 -16 -21 -28t-33 -12h-50q-17 0 -33.5 11.5t-21.5 27.5l-345 1129q-57 -191 -168.5 -564t-168.5 -564
q-5 -16 -21.5 -28t-31.5 -12h-52q-17 0 -33 12t-21 28l-399 1350q-8 29 8.5 50.5t46.5 21.5h39q17 0 32.5 -12t20.5 -28l330 -1124q18 61 75 250t89 294q29 98 86 290t87 290q5 16 21.5 28t33.5 12z" />
    <glyph glyph-name="X" unicode="X" horiz-adv-x="1065" 
d="M514 874l426 565q6 8 20.5 15.5t23.5 7.5h48q26 0 42 -15.5t16 -37.5q0 -20 -13 -37q-226 -299 -234 -310q-185 -247 -233 -311q189 -256 242 -328q161 -216 247 -333q12 -16 12 -36q0 -22 -15.5 -38t-41.5 -16h-46q-10 0 -25 7.5t-21 15.5l-448 604q-19 -25 -61.5 -82
t-65.5 -87q-60 -80 -174.5 -233.5t-150.5 -201.5q-6 -8 -21 -15.5t-25 -7.5h-46q-26 0 -41.5 16t-15.5 38q0 20 12 36l495 661q-63 83 -221.5 294t-246.5 327q-12 16 -12 36q0 22 16 38t42 16h49q9 0 24 -7.5t21 -15.5z" />
    <glyph glyph-name="Y" unicode="Y" horiz-adv-x="1102" 
d="M529 763l475 675l-1 -1q5 9 20 17t26 8h46q25 0 41 -16t16 -38q0 -20 -11 -35l-537 -766v-551q0 -23 -16 -39.5t-40 -16.5h-37q-25 0 -41 16t-16 40v551q-193 277 -535 766q-11 17 -11 35q0 22 16 38t41 16h46q11 0 25.5 -7.5t21.5 -16.5z" />
    <glyph glyph-name="Z" unicode="Z" 
d="M132 150h847q24 0 40 -16.5t16 -39.5v-38q0 -23 -16 -39.5t-40 -16.5h-995q-25 0 -41 16t-16 40v69l887 1187h-778q-24 0 -40 16.5t-16 39.5v38q0 23 16 39.5t40 16.5h928q25 0 40.5 -16t15.5 -40v-69z" />
    <glyph glyph-name="bracketleft" unicode="[" horiz-adv-x="455" 
d="M192 1450h207q24 0 39.5 -15.5t15.5 -38.5v-37q0 -23 -15.5 -38.5t-39.5 -15.5h-115v-1484h115q24 0 39.5 -15.5t15.5 -38.5v-37q0 -23 -15.5 -39t-39.5 -16h-207q-23 0 -38.5 16t-15.5 39v1666q0 23 15.5 38.5t38.5 15.5z" />
    <glyph glyph-name="backslash" unicode="\" horiz-adv-x="682" 
d="M641 -31h-36q-14 0 -29.5 10t-20.5 22l-600 1374q-9 28 5 51.5t45 23.5h36q15 0 30 -9.5t20 -22.5q488 -1115 600 -1373q8 -30 -5 -52q-17 -24 -45 -24z" />
    <glyph glyph-name="bracketright" unicode="]" horiz-adv-x="455" 
d="M239 -325h-207q-24 0 -39.5 16t-15.5 39v37q0 23 15.5 38.5t39.5 15.5h115v1484h-115q-24 0 -39.5 15.5t-15.5 38.5v37q0 23 15.5 38.5t39.5 15.5h207q23 0 38.5 -15.5t15.5 -38.5v-1666q0 -23 -15.5 -39t-38.5 -16z" />
    <glyph glyph-name="asciicircum" unicode="^" horiz-adv-x="1229" 
d="M650 1329l424 -833q13 -30 -1 -54q-14 -25 -48 -25h-37q-13 0 -28.5 9.5t-20.5 20.5v-1q-28 53 -58 111.5t-65.5 128.5t-55.5 109q-118 230 -178 349q-54 -107 -174 -340q-20 -40 -56 -111t-67 -131.5t-59 -115.5q-7 -11 -22 -20t-27 -9h-37q-34 0 -48 25q-16 27 -1 54
l424 833v-1q5 11 20.5 20.5t28.5 9.5h37q12 0 27 -9t22 -20z" />
    <glyph glyph-name="underscore" unicode="_" 
d="M944 -230h-918q-23 0 -38.5 16t-15.5 39v92q0 23 15.5 39t38.5 16h918q23 0 39 -16t16 -39v-92q0 -23 -16 -39t-39 -16z" />
    <glyph glyph-name="grave" unicode="`" horiz-adv-x="266" 
d="M151 1093l-256 265q-17 17 -17 39t15.5 37.5t40.5 15.5h54q8 0 22 -6t19 -11l231 -265q14 -19 14 -37q0 -22 -15.5 -37.5t-40.5 -15.5h-28q-24 0 -39 15z" />
    <glyph glyph-name="a" unicode="a" horiz-adv-x="985" 
d="M162 652h-37q-23 0 -39 16t-16 40q7 161 114 263q104 104 299 104q144 1 251 -67q110 -78 117 -257v-599q1 1 3 1q20 5 37 2q29 -5 42 -28t0 -49q-17 -34 -49.5 -55.5t-67.5 -21.5q-90 0 -107 99q-13 -12 -47 -39q-119 -84 -281 -84q-155 0 -260 78q-109 88 -110 232
q0 105 37 170q32 60 94 102q65 39 123 50q60 13 122 15q9 2 29 2.5t21 0.5q2 0 6 0.5t5 0.5h-1l38 3q26 3 70 5q70 7 103 17q25 7 37 20q10 13 10 49q0 41 -4 77q0 1 -1 3q-6 36 -28 65q-20 25 -55 42q-51 19 -132 19q-245 -4 -269 -226q-2 -20 -18 -35t-36 -15zM705 435v77
q-29 -10 -87 -16q-109 -11 -225 -17q-54 -2 -94 -12q-40 -9 -80 -33q-24 -13 -43 -51q-18 -32 -18 -95q0 -29 9 -56q11 -31 38 -54q43 -52 173 -54q161 2 245 95h-1q83 95 83 216z" />
    <glyph glyph-name="b" unicode="b" horiz-adv-x="1100" 
d="M547 -22q-167 0 -278 93l-1 1q0 2 -1 2q-30 24 -47 43v-62q0 -23 -16 -39t-39 -16h-37q-23 0 -39 16t-16 39v1317q0 23 16 39t39 16h37q23 0 39 -16t16 -39v-424q119 122 327 128q215 -4 341 -173q116 -158 116 -378q0 -236 -120 -389q-126 -157 -337 -158zM312 817
q-86 -105 -92 -293q0 -71 26 -154q23 -71 62 -133q90 -106 239 -112q148 4 229 112q83 129 83 288q0 157 -79 282q-71 116 -232 122q-149 -11 -236 -112z" />
    <glyph glyph-name="c" unicode="c" 
d="M850 430h37q26 0 42 -18t13 -44q-57 -381 -441 -391q-224 4 -351 162q-122 155 -122 367q0 229 119 393q127 172 376 176q153 0 271 -90q115 -97 140 -267q2 -24 -14 -42.5t-40 -18.5h-37q-19 0 -34.5 13.5t-19.5 32.5q-17 109 -90 170q-69 55 -175 55q-96 0 -163 -35
q-69 -39 -105 -93q-83 -140 -82 -294q0 -161 86 -271q81 -110 241 -111q125 0 206 69h-1q77 66 90 188q2 20 18 34.5t36 14.5z" />
    <glyph glyph-name="d" unicode="d" horiz-adv-x="1100" 
d="M799 74q-1 0 -1 -1t-1 -2q-111 -93 -278 -93q-211 1 -337 158q-120 153 -120 389q0 220 116 378q126 169 341 173q208 -6 327 -128v424q0 23 16 39t39 16h37q23 0 39 -16t16 -39v-1317q0 -23 -16 -39t-39 -16h-37q-23 0 -39 16t-16 39v62q-17 -19 -47 -43zM820 370
q26 83 26 154q-6 188 -92 293q-87 101 -236 112q-161 -6 -232 -122q-79 -125 -79 -282q0 -159 83 -288q81 -108 229 -112q149 6 239 112q39 62 62 133z" />
    <glyph glyph-name="e" unicode="e" 
d="M899 464h-733q12 -147 75 -234q68 -104 240 -106q257 1 316 269q3 18 18.5 31t34.5 13h37q26 0 42 -18.5t13 -43.5q-26 -185 -148 -291q-127 -106 -309 -107q-245 1 -357 165q-112 154 -111 384q6 267 145 403q136 146 323 146q244 -4 365 -176q104 -153 104 -346
q0 -28 -1 -39q-2 -20 -18 -35t-36 -15zM168 610h637q-12 129 -79 215q-79 101 -238 103q-130 -2 -220 -96q-79 -86 -100 -222z" />
    <glyph glyph-name="f" unicode="f" horiz-adv-x="430" 
d="M426 835h-158v-780q0 -23 -16 -39t-39 -16h-36q-24 0 -39.5 16t-15.5 39v145q0 2 -0.5 5.5t-0.5 5.5v624h-118q-24 0 -39.5 16t-15.5 39v37q0 23 15.5 38.5t39.5 15.5h118v241q0 12 3 17q10 119 96 155q70 26 143 26q53 -2 87 -9q20 -4 33 -19t13 -34v-37
q0 -26 -18 -41.5t-44 -12.5q-51 7 -80 7q-61 0 -74 -16q-12 -12 -12 -64v-213h158q23 0 38.5 -15.5t15.5 -38.5v-37q0 -23 -15.5 -39t-38.5 -16z" />
    <glyph glyph-name="g" unicode="g" horiz-adv-x="1063" 
d="M849 1053h37q23 0 39 -16t16 -39v-967q0 -221 -127 -314q-127 -91 -299 -93q-449 -1 -451 390q0 23 15.5 39t39.5 16h36q22 0 38.5 -15.5t16.5 -38.5q2 -121 70.5 -182.5t234.5 -61.5q128 0 202 62t78 177v165q-39 -37 -60 -50q-115 -74 -264 -74q-216 1 -337 157
q-112 145 -112 349q0 209 116 362q120 155 345 156q153 -2 267 -90q28 -22 44 -41v54q0 23 16 39t39 16zM705 300q83 101 83 257q1 153 -80 263q-72 104 -226 108q-156 -1 -230 -103q-84 -105 -84 -268q0 -159 81 -261q76 -98 220 -99q155 1 236 103z" />
    <glyph glyph-name="h" unicode="h" 
d="M73 55v1310q0 23 15.5 39t38.5 16h38q22 0 38 -16t16 -39v-400q3 3 9 8t10 8l2 1l3 3l6 6q107 84 259 84q174 0 280 -102q109 -102 110 -293v-625q0 -23 -16 -39t-39 -16h-37q-23 0 -39 16t-16 39v620q-2 138 -67 194q-69 59 -175 59q-137 -4 -213 -95q-77 -111 -77 -244
v-534q0 -23 -16 -39t-38 -16h-38q-23 0 -38.5 16t-15.5 39z" />
    <glyph glyph-name="i" unicode="i" horiz-adv-x="266" 
d="M199 1365v-185q0 -24 -15.5 -39.5t-39.5 -15.5h-36q-23 0 -39 15.5t-16 39.5v185q0 23 16 39t39 16h36q24 0 39.5 -16t15.5 -39zM199 998v-943q0 -23 -15.5 -39t-39.5 -16h-36q-23 0 -39 16t-16 39v943q0 23 16 39t39 16h36q24 0 39.5 -16t15.5 -39z" />
    <glyph glyph-name="j" unicode="j" horiz-adv-x="266" 
d="M194 1365v-185q0 -24 -15.5 -39.5t-38.5 -15.5h-38q-23 0 -38.5 15.5t-15.5 39.5v185q0 23 15.5 39t38.5 16h38q23 0 38.5 -16t15.5 -39zM194 998v-1081q0 -156 -87 -204q-40 -24 -91 -30q-30 -2 -49 -2q-31 -2 -48 -5q-26 -4 -44 12t-18 42v37q0 23 16 39t40 15
q81 -4 121 15l-3 -1q17 13 17 95v1068q0 23 15.5 39t38.5 16h38q23 0 38.5 -16t15.5 -39z" />
    <glyph glyph-name="k" unicode="k" horiz-adv-x="909" 
d="M392 527l-170 -142v-330q0 -23 -16 -39t-39 -16h-36q-24 0 -39.5 16t-15.5 39v1310q0 23 15.5 39t39.5 16h36q23 0 39 -16t16 -39v-793q61 49 167.5 138.5t148.5 124.5q43 36 130.5 109t130.5 109h73q25 0 40.5 -16t15.5 -37q0 -24 -22 -43q-67 -56 -200 -167.5
t-200 -167.5l478 -492q23 -24 23 -46l-2 -34q0 -22 -10.5 -35.5t-44.5 -13.5h-67z" />
    <glyph glyph-name="l" unicode="l" horiz-adv-x="266" 
d="M53 55v1310q0 23 16 39t39 16h36q24 0 39.5 -16t15.5 -39v-1310q0 -23 -15.5 -39t-39.5 -16h-36q-23 0 -39 16t-16 39z" />
    <glyph glyph-name="m" unicode="m" horiz-adv-x="1593" 
d="M88 55v943q0 23 15.5 39t39.5 16h36q23 0 39 -16t16 -39v-29q4 4 11.5 10.5t11.5 9.5l-1 -1q94 85 227 87q202 0 289 -147q25 35 77 76q100 71 219 71q198 -1 282 -118q75 -104 73 -282v-620q0 -23 -15.5 -39t-39.5 -16h-36q-23 0 -39 16t-16 39v620q1 122 -44 194
q-42 58 -164 59q-118 -2 -172 -77q-64 -81 -69 -198v-598q0 -23 -15.5 -39t-38.5 -16h-38q-23 0 -38.5 16t-15.5 39v606q4 118 -40 201h1q-19 29 -55 48q-36 18 -103 18q-105 -4 -179 -94v1q-72 -111 -72 -246v-534q0 -23 -16 -39t-39 -16h-36q-24 0 -39.5 16t-15.5 39z" />
    <glyph glyph-name="n" unicode="n" 
d="M73 55v943q0 23 15.5 39t38.5 16h38q22 0 38 -16t16 -39v-33q3 3 9 8t10 8l2 1l3 3l6 6q107 84 259 84q174 0 280 -102q109 -102 110 -293v-625q0 -23 -16 -39t-39 -16h-37q-23 0 -39 16t-16 39v620q-2 138 -67 194q-69 59 -175 59q-137 -4 -213 -95q-77 -111 -77 -244
v-534q0 -23 -16 -39t-38 -16h-38q-23 0 -38.5 16t-15.5 39z" />
    <glyph glyph-name="o" unicode="o" horiz-adv-x="1063" 
d="M145 150q-122 170 -122 376q0 216 122 378q125 167 359 171q235 -4 360 -171q119 -160 119 -378q0 -214 -119 -376q-124 -169 -362 -173q-229 4 -357 173zM260 812q-90 -123 -90 -286q0 -166 90 -286q82 -112 243 -116q167 6 248 117q87 116 87 285q0 168 -87 286
q-82 112 -247 116q-162 -4 -244 -116z" />
    <glyph glyph-name="p" unicode="p" horiz-adv-x="1100" 
d="M272 981q0 1 1 1l1 2q111 93 278 93q211 -1 337 -158q120 -152 120 -389q0 -220 -116 -378q-126 -169 -341 -173q-208 6 -327 128v-424q0 -23 -16 -39t-39 -16h-37q-23 0 -39 16t-16 39v1317q0 23 16 39t39 16h37q23 0 39 -16t16 -39v-62q17 19 47 43zM251 685
q-26 -83 -26 -154q6 -188 92 -293q87 -101 236 -112q161 6 232 122q79 125 79 282q0 159 -83 288q-81 108 -229 112q-149 -6 -239 -112q-39 -62 -62 -133z" />
    <glyph glyph-name="q" unicode="q" horiz-adv-x="1100" 
d="M480 1075q167 0 278 -93l1 -1q1 -1 1 -2q30 -24 47 -43v62q0 23 16 39t39 16h37q23 0 39 -16t16 -39v-1268q0 -23 -16 -39t-39 -16h-37q-23 0 -39 16t-16 39v375q-119 -122 -327 -128q-215 4 -341 173q-116 158 -116 378q0 237 120 389q126 157 337 158zM715 236
q86 105 92 293q0 71 -26 154q-23 71 -62 133q-90 106 -239 112q-148 -4 -229 -112q-83 -129 -83 -288q0 -157 79 -282q71 -116 232 -122q149 11 236 112z" />
    <glyph glyph-name="r" unicode="r" horiz-adv-x="530" 
d="M210 589v-534q0 -23 -15.5 -39t-39.5 -16h-36q-24 0 -39.5 16t-15.5 39v943q0 23 15.5 39t39.5 16h36q24 0 39.5 -16t15.5 -39v-34q4 4 13.5 11.5t15.5 13.5q106 90 291 86q23 -1 38.5 -16.5t15.5 -38.5v-37q0 -23 -16.5 -39.5t-39.5 -15.5q-162 4 -237 -92
q-81 -106 -81 -247z" />
    <glyph glyph-name="s" unicode="s" horiz-adv-x="948" 
d="M776 664h-36q-22 0 -38.5 16.5t-16.5 37.5q-2 119 -63 161q-66 49 -187 49q-82 0 -133 -18q-38 -18 -63 -46q-20 -25 -25 -48q-8 -30 -8 -33q0 -49 19 -74q19 -29 50 -40q103 -35 235 -66q69 -16 113 -31q64 -18 111 -49v1q61 -36 91 -90q32 -59 32 -140
q-4 -166 -136 -248q-115 -69 -261 -69q-435 -1 -436 400q0 23 15.5 39t39.5 16h36q22 0 38.5 -15.5t16.5 -38.5q2 -129 73.5 -192t216.5 -62q97 0 178 45q69 36 73 124q0 42 -15 69q-17 27 -57 45q-43 22 -94 38q-10 3 -26.5 8t-26.5 7q-20 2 -32 5q-5 1 -15 2t-16 3
q-137 34 -221 69q-147 60 -147 244q0 108 89 197q56 48 120 71q65 24 165 24q187 1 287.5 -91t108.5 -265q-2 -21 -18 -38t-37 -17z" />
    <glyph glyph-name="t" unicode="t" horiz-adv-x="432" 
d="M176 1350h38q23 0 38.5 -16t15.5 -39v-241h158q23 0 38.5 -15.5t15.5 -38.5v-37q0 -23 -15.5 -39t-38.5 -16h-158v-854q0 -24 -15.5 -39.5t-38.5 -15.5h-38q-23 0 -39 15.5t-16 39.5v854h-118q-24 0 -39.5 16t-15.5 39v37q0 23 15.5 38.5t39.5 15.5h118v241q0 23 16 39
t39 16z" />
    <glyph glyph-name="u" unicode="u" 
d="M808 1053h37q23 0 38.5 -16t15.5 -39v-635q0 -14 -0.5 -37.5t-0.5 -34.5v-104q0 -32 -5 -33h5q2 0 5 0.5t4 0.5q23 0 38.5 -15.5t15.5 -39.5v-45q0 -23 -15.5 -39t-38.5 -16q-4 0 -9.5 -0.5t-7.5 -0.5h-13q-68 0 -93 17q-27 16 -33 67q-4 -4 -12 -9.5t-12 -9.5
q-108 -86 -263 -87q-163 1 -276 105q-113 107 -113 290v626q0 23 15.5 39t38.5 16h37q23 0 39 -16t16 -39v-621q1 -133 69 -193q70 -60 174 -60q145 2 213 100q77 98 77 240v534q0 23 15.5 39t38.5 16z" />
    <glyph glyph-name="v" unicode="v" horiz-adv-x="833" 
d="M-1 1053h45q14 0 29 -10.5t21 -22.5l315 -783q65 179 291 780q6 13 21.5 24.5t29.5 11.5h40q30 0 45 -22q16 -26 6 -53l-356 -944v1q-5 -14 -20.5 -24.5t-30.5 -10.5h-47q-13 0 -28.5 10.5t-21.5 22.5l-389 944q-9 29 6 52.5t44 23.5z" />
    <glyph glyph-name="w" unicode="w" horiz-adv-x="1403" 
d="M419 38q-5 -14 -21 -26t-32 -12h-52q-14 0 -30.5 12t-21.5 26q-48 157 -146.5 472t-146.5 472q-7 28 8 50q19 21 45 21h36q15 0 31.5 -11.5t21.5 -26.5q18 -58 56.5 -182t59.5 -190q15 -49 116 -373q33 104 114 355t125 390q5 13 21.5 25.5t30.5 12.5h57q15 0 30.5 -11.5
t21.5 -26.5l240 -745q18 56 103.5 326.5t131.5 418.5q5 14 21.5 26t31.5 12h37q29 0 44.5 -21t8.5 -50q-25 -78 -135 -420.5t-167 -523.5q-5 -14 -21 -26t-32 -12h-47q-15 0 -31.5 11.5t-21.5 25.5l-242 751q-32 -96 -96 -294h-1q-29 -87 -79 -242.5t-69 -213.5z" />
    <glyph glyph-name="x" unicode="x" horiz-adv-x="833" 
d="M394 662l281 369q7 8 21 15t23 7h43q25 0 41 -16t16 -37q0 -17 -13 -34q-126 -168 -320 -422q5 -7 16 -21t13 -17q131 -168 325 -418q12 -14 12 -34q0 -22 -15.5 -38t-40.5 -16h-45q-11 0 -25 7t-20 13l-312 405q-29 -37 -116 -150.5t-133 -173.5q-13 -15 -34 -43
t-28 -37q-7 -7 -21 -14t-23 -7h-45q-25 0 -40.5 15.5t-15.5 37.5q0 21 12 35q255 330 354 456q-22 30 -67.5 89t-67.5 89q-169 224 -184 244q-13 17 -13 35q0 21 15.5 36.5t40.5 15.5h48q10 0 24.5 -7t19.5 -15z" />
    <glyph glyph-name="y" unicode="y" horiz-adv-x="833" 
d="M411 252l289 767q5 13 21 23.5t31 10.5h39q30 0 45 -22q16 -26 6 -53l-435 -1136q-43 -115 -133 -147q-72 -22 -170 -20q-23 1 -38 16.5t-15 38.5v37q0 23 15.5 38.5t39.5 15.5q3 0 8 -0.5t7 -0.5h14q58 0 89 14q27 17 52 74q15 41 34 88q11 28 25 67q-29 70 -93.5 221
t-98.5 233q-33 77 -97 229.5t-97 229.5q-10 26 6 52q15 25 44 25h40q14 0 29 -10.5t21 -22.5z" />
    <glyph glyph-name="z" unicode="z" horiz-adv-x="833" 
d="M179 146h580q23 0 38.5 -15.5t15.5 -39.5v-36q0 -23 -15.5 -39t-38.5 -16h-729q-23 0 -38.5 16t-15.5 39v64l605 788h-501q-23 0 -38.5 15.5t-15.5 39.5v36q0 23 15.5 39t38.5 16h650q23 0 38.5 -16t15.5 -39v-65z" />
    <glyph glyph-name="braceleft" unicode="{" horiz-adv-x="682" 
d="M532 -325h-91q-194 0 -187 260v298q0 104 -22 171h1q-22 63 -88 100q-9 6 -17 21t-8 26v36q0 17 12.5 33t29.5 21q18 6 27 17q17 19 34 54q31 83 31 181v301q-4 130 42.5 193.5t144.5 62.5h91q24 0 39.5 -15.5t15.5 -38.5v-37q0 -23 -15.5 -38.5t-39.5 -15.5h-87
q-17 0 -29 -12q-18 -38 -18 -130v-300q0 -96 -33 -192q-18 -49 -44 -86q-3 -4 -7 -10l-2 -3q-1 -6 -7 -10q29 -29 55 -88q38 -96 38 -211v-296q0 -97 19 -133q7 -15 25 -13h90q24 0 39.5 -15.5t15.5 -38.5v-37q0 -23 -15.5 -39t-39.5 -16z" />
    <glyph glyph-name="bar" unicode="|" horiz-adv-x="455" 
d="M234 -393h-37q-23 0 -39 16t-16 39v1836q0 23 16 39t39 16h37q23 0 39 -16t16 -39v-1836q0 -23 -16 -39t-39 -16z" />
    <glyph glyph-name="braceright" unicode="}" horiz-adv-x="682" 
d="M114 1450h91q108 0 157 -80q31 -59 31 -177v-300q0 -101 24 -170q19 -60 83 -101q9 -7 17.5 -21t8.5 -25v-36q0 -18 -13 -34t-31 -20q-30 -6 -55 -70q-34 -75 -34 -183v-303q0 -120 -34 -178q-46 -77 -154 -77h-91q-24 0 -39.5 16t-15.5 39v37q0 23 15.5 38.5t39.5 15.5
h87q20 0 32 16q14 36 14 127v299q0 98 37 197q17 43 48 88q4 7 12 15q-33 42 -56 90q-41 98 -41 210v297q0 92 -16 133q-10 14 -30 12h-87q-24 0 -39.5 15.5t-15.5 38.5v37q0 23 15.5 38.5t39.5 15.5z" />
    <glyph glyph-name="asciitilde" unicode="~" horiz-adv-x="1229" 
d="M970 659l36 -10q28 -8 37.5 -32t-4.5 -49q-31 -57 -88 -116q-68 -68 -159 -68q-51 0 -107 25h1q-6 3 -22 8.5t-23 9.5q-23 11 -51 21l-27 12q-19 9 -69 32q-44 17 -106 18q-38 0 -67 -25q-34 -28 -62 -81q-9 -15 -28.5 -23t-36.5 -3h1q-7 2 -20.5 6t-17.5 5q-26 8 -35 32
t3 47q42 76 99 128q72 60 164 60q58 2 125 -20q55 -21 113 -46q41 -20 110 -43q36 -17 58 -17q32 2 53 26q38 38 60 78q9 16 28 23t35 1v1z" />
    <glyph glyph-name="nonbreakingspace" unicode="&#xa0;" horiz-adv-x="569" 
 />
    <glyph glyph-name="exclamdown" unicode="&#xa1;" horiz-adv-x="379" 
d="M162 1104h37q23 0 39 -16t16 -39v-180q0 -23 -16 -38.5t-39 -15.5h-37q-23 0 -38.5 15.5t-15.5 38.5v180q0 23 15.5 39t38.5 16zM162 769h37q23 0 39 -15.5t16 -38.5v-985q0 -23 -16 -39t-39 -16h-37q-23 0 -38.5 16t-15.5 39v985q0 23 15.5 38.5t38.5 15.5z" />
    <glyph glyph-name="cent" unicode="&#xa2;" horiz-adv-x="1139" 
d="M619 923v-796q80 10 145 70q73 73 86 185q3 20 19 34t36 14h36q27 0 42 -18.5t12 -45.5q-30 -168 -125 -266t-251 -118v-150q0 -23 -15.5 -38.5t-38.5 -15.5h-37q-23 0 -38.5 15.5t-15.5 38.5v151q-179 26 -282 178q-108 164 -108 367q0 204 107 365q99 145 283 175v112
q0 23 15.5 38.5t38.5 15.5h37q23 0 38.5 -15.5t15.5 -38.5v-110q129 -12 226 -87q116 -90 142 -265q2 -25 -13.5 -43t-41.5 -18h-36q-18 0 -34 13.5t-20 32.5q-20 117 -89 166q-54 44 -134 54zM474 132v787q-108 -25 -167 -113q-78 -125 -78 -278q0 -156 78 -281
q56 -86 167 -115z" />
    <glyph glyph-name="sterling" unicode="&#xa3;" horiz-adv-x="1139" 
d="M317 779h257q23 0 38.5 -16t15.5 -39v-36q0 -23 -15.5 -38.5t-38.5 -15.5h-193q34 -93 29 -196q-4 -127 -61 -231h15q52 0 110 -18l18 -5q44 -13 74 -26q89 -42 157 -43q69 0 119 33q53 33 122 102q17 17 38 17q23 0 40 -17l23 -25q17 -17 17 -41q0 -17 -13 -34
q-82 -94 -166 -139q-83 -42 -180 -42q-57 0 -106 16q-16 5 -51 17t-50 18q-69 34 -152 41q-110 -2 -192 -78q-17 -14 -37 -14q-28 0 -40 18l1 -1q-5 6 -17 18.5t-17 18.5q-14 14 -14 36q0 24 19 43q91 74 143 161h-1q50 81 55 175q-5 121 -38 196h-106q-22 0 -38.5 15.5
t-16.5 38.5v36q0 23 16.5 39t38.5 16h32q-7 14 -19.5 40t-20.5 40v-1q-52 96 -54 197q4 203 153 305q137 90 317 90q240 0 370 -139q110 -116 110 -306q0 -44 -4 -76q-2 -19 -17.5 -33.5t-36.5 -14.5h-37q-22 0 -38 18.5t-16 41.5q2 13 2 48q0 147 -76 224q-89 92 -257 92
q-128 0 -231 -62v1q-90 -56 -92 -189q2 -77 42 -142q10 -19 27.5 -52t26.5 -50q5 -9 16 -32z" />
    <glyph glyph-name="currency" unicode="&#xa4;" horiz-adv-x="1139" 
d="M845 1086l69 70q16 16 38 16t38 -16l27 -26q16 -16 16 -39q0 -22 -16 -38l-70 -69q102 -132 102 -306q0 -169 -102 -303l70 -70q16 -16 16 -39q0 -22 -16 -38l-27 -26q-17 -17 -38 -17t-38 17l-70 70q-133 -99 -305 -103q-172 0 -304 102q-11 -10 -22.5 -21.5t-25 -25.5
t-21.5 -22q-17 -17 -38 -17q-23 0 -40 17l-25 26q-17 17 -17 38q0 22 17 39l69 70q-102 132 -102 303q5 172 103 306q-5 6 -16 16.5t-17 15.5q-5 5 -11.5 11t-14 14t-11.5 12q-17 17 -17 38q0 18 17 39q18 18 25 26q16 16 40 16q22 0 38 -16l70 -70q134 102 303 102
q174 0 306 -102zM798 424q103 101 105 254q-1 157 -104 260q-103 102 -260 104q-155 -2 -254 -105q-109 -102 -110 -259q1 -152 110 -254q101 -109 254 -110q157 1 259 110z" />
    <glyph glyph-name="yen" unicode="&#xa5;" horiz-adv-x="1139" 
d="M611 560v-78h215q23 0 38.5 -15.5t15.5 -38.5v-37q0 -23 -15.5 -39t-38.5 -16h-215v-281q0 -23 -15.5 -39t-38.5 -16h-38q-23 0 -38.5 16t-15.5 39v281h-216q-23 0 -38.5 16t-15.5 39v37q0 23 15.5 38.5t38.5 15.5h216v78h-216q-23 0 -38.5 15.5t-15.5 38.5v38
q0 22 15.5 38.5t38.5 16.5h156q-319 522 -384 630q-17 29 -2 56t49 27h40q11 0 26 -8.5t21 -17.5q220 -362 384 -629q51 86 145 238t130 210q65 110 111 181q6 9 21 17.5t26 8.5h40q35 0 50 -27q15 -26 -3 -56l-385 -630h152q23 0 38.5 -16.5t15.5 -38.5v-38
q0 -23 -15.5 -38.5t-38.5 -15.5h-215z" />
    <glyph glyph-name="brokenbar" unicode="&#xa6;" horiz-adv-x="455" 
d="M197 1323h37q23 0 39 -16t16 -39v-458q0 -24 -16 -39.5t-39 -15.5h-37q-23 0 -39 15.5t-16 39.5v458q0 23 16 39t39 16zM289 350v-459q0 -23 -16 -38.5t-39 -15.5h-37q-23 0 -39 15.5t-16 38.5v459q0 24 16 39.5t39 15.5h37q23 0 39 -15.5t16 -39.5z" />
    <glyph glyph-name="section" unicode="&#xa7;" horiz-adv-x="1139" 
d="M840 1002h-36q-23 0 -38.5 15.5t-16.5 38.5q-6 245 -227 249q-29 0 -66 -7q-44 -14 -68 -27q-25 -16 -45 -47q-15 -26 -15 -72q5 -53 23 -81q27 -39 58 -59q26 -17 113 -69q95 -51 135 -79h-1q203 -127 273 -214q41 -52 57 -105q14 -62 14 -116q0 -66 -29 -117
q-21 -41 -67 -87q-35 -35 -79 -63q33 -38 50 -77q20 -55 20 -104q0 -16 -2 -32q-14 -148 -121 -225q-100 -70 -234 -70q-372 1 -374 410q0 23 15.5 38.5t38.5 15.5h37q23 0 38.5 -15.5t15.5 -38.5q0 -123 55 -195q52 -64 175 -70q113 6 162 54q46 60 46 100q1 56 -17 98v-1
q-19 34 -106 95q-106 72 -282 182q-4 3 -41 25q-133 92 -180 175q-42 83 -41 171q2 110 76 192q44 51 88 79q-9 11 -23 33q-39 67 -39 150q0 93 42 156q40 62 97 92q109 52 206 50q168 0 270 -108q97 -112 98 -285q0 -23 -15.5 -39t-39.5 -16zM838 370q16 29 16 61
q0 44 -9 71l1 -1q-12 28 -37 58q-64 77 -232 182v-1l-62 35q-62 38 -78 48q-14 8 -41.5 24t-33.5 19l-6 -2h1q-10 -6 -17 -9q-27 -13 -52 -36q-24 -21 -45 -57v1q-17 -36 -17 -81q0 -18 4 -34q5 -18 17 -45q20 -31 44 -51q34 -40 92 -78l-1 1q155 -97 172 -108q8 -5 65 -43
t87 -59q41 16 89 55q32 25 43 50z" />
    <glyph glyph-name="dieresis" unicode="&#xa8;" horiz-adv-x="266" 
d="M1 1082h-36q-24 0 -39.5 16t-15.5 39v149q0 23 15.5 39t39.5 16h36q24 0 39.5 -16t15.5 -39v-149q0 -23 -15.5 -39t-39.5 -16zM288 1082h-38q-23 0 -38.5 16t-15.5 39v149q0 23 15.5 39t38.5 16h38q23 0 38.5 -16t15.5 -39v-149q0 -23 -15.5 -39t-38.5 -16z" />
    <glyph glyph-name="copyright" unicode="&#xa9;" horiz-adv-x="1638" 
d="M35 709v2q6 319 219 526q212 212 522 213q314 -1 527 -213q211 -217 215 -527q-4 -302 -214 -524q-217 -213 -528 -217q-309 4 -523 217q-214 214 -218 523zM776 1305q-253 -4 -420 -173q-170 -166 -175 -422q4 -254 175 -420q166 -171 420 -175q256 5 422 175
q169 166 173 420q-4 256 -172 422q-166 169 -423 173zM1130 785h-36q-20 0 -35.5 14t-18.5 33q-18 99 -83 145q-71 50 -166 50q-147 -2 -225 -91q-82 -89 -82 -235q0 -143 85 -239q79 -95 227 -96q86 0 152 54q67 53 92 154q5 17 21 29t33 12h36q28 0 43.5 -19t10.5 -46
q-34 -147 -134 -235v1q-103 -95 -254 -95q-207 1 -334 142q-123 135 -124 336q0 204 121 337q121 136 332 136q150 0 259 -81q108 -84 134 -243q3 -24 -13 -43.5t-41 -19.5z" />
    <glyph glyph-name="ordfeminine" unicode="&#xaa;" horiz-adv-x="614" 
d="M621 778v-37q0 -22 -15 -38t-38 -16q-52 -2 -81 10l1 -1q-39 6 -57 32q-79 -54 -210 -54q-49 0 -88 10q-44 12 -82 36v-1q-89 51 -89 163q0 76 26 118q29 47 74 70l6 3t7.5 3.5t7.5 2.5h-28q-23 0 -38.5 18.5t-16.5 41.5q26 236 288 240q108 0 182 -43q82 -52 89 -174
v-331q25 2 43.5 -13t18.5 -40zM290 1234q-133 -4 -144 -105q-1 -17 -18 -34q58 15 113 16q82 1 149 10q23 5 23 19q-1 94 -123 94zM367 869q46 46 46 110q-7 -2 -17.5 -2.5t-11.5 -0.5t-55 -4t-84 -6q-67 -4 -112 -25q-25 -12 -26 -58q2 -31 25 -43q42 -20 89 -20
q95 0 146 49z" />
    <glyph glyph-name="guillemotleft" unicode="&#xab;" horiz-adv-x="721" 
d="M554 277q0 -25 -16.5 -40.5t-37.5 -15.5q-29 0 -46 23l-72 97v-64q0 -25 -16.5 -40.5t-37.5 -15.5q-25 0 -44 23l-201 269v65l201 271q17 23 44 23q21 0 37.5 -15.5t16.5 -40.5v-65l72 98q18 23 46 23q21 0 37.5 -15.5t16.5 -40.5v-81l-141 -188q17 -24 75 -99
q10 -14 32.5 -44.5t33.5 -45.5v-81zM242 547q10 -12 13 -18v35z" />
    <glyph glyph-name="logicalnot" unicode="&#xac;" horiz-adv-x="1229" 
d="M953 225v399h-834q-22 0 -38.5 15.5t-16.5 38.5v37q0 23 16.5 38.5t38.5 15.5h926q23 0 38.5 -15.5t15.5 -38.5v-490q0 -23 -15.5 -38.5t-38.5 -15.5h-38q-23 0 -38.5 15.5t-15.5 38.5z" />
    <glyph glyph-name="hyphen.001" unicode="&#xad;" horiz-adv-x="682" 
d="M108 528v36q0 24 16 39.5t39 15.5h321q23 0 38.5 -15.5t15.5 -39.5v-36q0 -23 -15.5 -39t-38.5 -16h-321q-23 0 -39 16t-16 39z" />
    <glyph glyph-name="registered" unicode="&#xae;" horiz-adv-x="1638" 
d="M35 709v2q6 319 219 526q212 212 522 213q314 -1 527 -213q211 -217 215 -527q-4 -302 -214 -524q-217 -213 -528 -217q-309 4 -523 217q-214 214 -218 523zM776 1305q-253 -4 -420 -173q-170 -166 -175 -422q4 -254 175 -420q166 -171 420 -175q256 5 422 175
q169 166 173 420q-4 256 -172 422q-166 169 -423 173zM490 302v789q0 24 16 39.5t39 15.5h259q160 -2 238 -68.5t77 -200.5q-2 -121 -80 -189q-40 -33 -91 -51q34 -51 199 -306q17 -29 3 -56q-16 -28 -48 -28h-47q-11 0 -25 8t-21 17l-219 341h-154v-311q0 -23 -15.5 -39
t-39.5 -16h-36q-23 0 -39 16t-16 39zM636 759h137q29 0 77 6q2 1 8 2t8 1q3 0 21 4q2 2 6 2.5t6 2.5q19 7 20 7q26 12 39 32q15 20 15 62q0 47 -10 64q-13 21 -30 32q-55 27 -133 26h-164v-241z" />
    <glyph glyph-name="macron" unicode="&#xaf;" horiz-adv-x="266" 
d="M394 1244v-37q0 -22 -15.5 -38.5t-38.5 -16.5h-426q-23 0 -39 16.5t-16 38.5v37q0 23 15.5 38.5t39.5 15.5h426q23 0 38.5 -15.5t15.5 -38.5z" />
    <glyph glyph-name="degree" unicode="&#xb0;" horiz-adv-x="819" 
d="M705 1063v-2q-1 -129 -89 -224q-90 -95 -228 -96q-136 1 -224 94q-92 92 -93 227q1 129 93 224q92 93 224 93q136 0 226 -93q90 -94 91 -223zM511 938q48 51 48 125q0 72 -46 121q-47 49 -124 50q-67 0 -118 -52q-52 -50 -53 -119q2 -80 53 -126q47 -49 118 -50
q74 0 122 51z" />
    <glyph glyph-name="plusminus" unicode="&#xb1;" horiz-adv-x="1229" 
d="M509 675v308q0 23 16 38.5t39 15.5h37q23 0 38.5 -15.5t15.5 -38.5v-308h390q23 0 38.5 -15.5t15.5 -39.5v-37q0 -23 -15.5 -38.5t-38.5 -15.5h-390v-309q0 -24 -15.5 -39.5t-38.5 -15.5h-37q-23 0 -39 15.5t-16 39.5v309h-390q-22 0 -38.5 15.5t-16.5 38.5v37
q0 23 16.5 39t38.5 16h390zM64 55v36q0 23 16.5 39t38.5 16h926q23 0 38.5 -15.5t15.5 -39.5v-36q0 -23 -15.5 -39t-38.5 -16h-926q-22 0 -38.5 16t-16.5 39z" />
    <glyph glyph-name="twosuperior" unicode="&#xb2;" horiz-adv-x="682" 
d="M186 655h412q23 0 38.5 -16t15.5 -39v-38q0 -23 -15.5 -38.5t-38.5 -15.5h-547q-23 0 -39 15.5t-16 38.5q0 66 30 123q25 45 70 87q43 40 92 69v-1l21 15l6 3t6 4l-1 -1q2 1 9.5 5.5t11.5 7.5q5 4 17.5 12.5t16.5 11.5q102 62 156 120q53 51 54 115q-1 47 -35 73h1
q-43 28 -124 28q-177 -4 -171 -166q1 -25 -14.5 -41t-39.5 -16h-37q-23 0 -38.5 16t-15.5 40q0 143 75 227q76 85 240 85q122 0 207 -53q95 -61 97 -193q0 -42 -10 -81q-11 -45 -45 -90q-58 -75 -213 -179q-84 -52 -158 -111h1q-8 -7 -11 -10q-3 -1 -8 -7z" />
    <glyph glyph-name="threesuperior" unicode="&#xb3;" horiz-adv-x="682" 
d="M98 1027h-37q-23 0 -38.5 15t-15.5 38q0 148 97 227q90 72 235 72q62 0 102 -8q51 -7 100 -34q47 -26 77 -75h-1q32 -50 32 -121q0 -97 -69 -164q-1 -1 -5.5 -4.5t-6.5 -5.5q2 -1 7 -5t9 -6q78 -63 79 -186q-1 -59 -29 -112.5t-75 -92.5q-97 -69 -224 -69q-158 0 -259 82
q-100 94 -93 242v-1q1 21 17.5 36.5t37.5 15.5h36q24 0 40 -16t15 -40q-5 -89 45 -127q56 -46 159 -46q78 0 137 38q46 30 46 91q0 39 -11 57q-14 24 -35 37v-1q-29 17 -56 21q-42 7 -79 7h-44q-23 0 -38.5 15.5t-15.5 38.5v39q0 23 15.5 38.5t38.5 15.5h48q71 0 126 29
q37 18 38 73q0 28 -7 47q-14 14 -31 24q-64 22 -128 22q-183 1 -184 -154q0 -21 -16 -37t-39 -16z" />
    <glyph glyph-name="acute" unicode="&#xb4;" horiz-adv-x="266" 
d="M271 1450h53q25 0 40 -15.5t15 -37.5q0 -23 -17 -40l-268 -264q-6 -5 -19 -10t-19 -5h-29q-25 0 -40.5 15.5t-15.5 37.5q0 21 16 38l243 265q6 6 20 11t21 5z" />
    <glyph glyph-name="mu" unicode="&#xb5;" horiz-adv-x="1139" 
d="M950 998v-943q0 -23 -15.5 -39t-38.5 -16h-37q-23 0 -38.5 16t-15.5 39v32l-27 -24q-107 -86 -262 -86q-107 0 -196 47h1q-27 13 -48 28v-322q0 -23 -16 -39t-39 -16h-36q-24 0 -39.5 16t-15.5 39v1268q0 23 15.5 39t39.5 16h35q23 0 38.5 -16t15.5 -39v-621
q1 -135 70 -193q71 -60 175 -60q144 1 212 100q77 98 77 240v534q0 23 15.5 39t38.5 16h37q23 0 38.5 -16t15.5 -39z" />
    <glyph glyph-name="paragraph" unicode="&#xb6;" horiz-adv-x="1229" 
d="M560 1420h371q23 0 38 -16t15 -39v-1567q0 -24 -15 -39.5t-38 -15.5h-37q-23 0 -39 15.5t-16 39.5v1476h-189v-1476q0 -24 -16 -39.5t-39 -15.5h-36q-24 0 -39.5 15.5t-15.5 39.5v807q-164 17 -276 116q-132 116 -133 285q7 410 465 414z" />
    <glyph glyph-name="periodcentered" unicode="&#xb7;" horiz-adv-x="569" 
d="M192 599q-35 32 -35 79q0 50 36 84q32 30 77 30q112 -2 113 -114q0 -52 -33 -79v1q-35 -35 -80 -35q-49 0 -79 34h1z" />
    <glyph glyph-name="cedilla" unicode="&#xb8;" horiz-adv-x="266" 
d="M-88 -228l16 36q10 20 30.5 28t40.5 -1q50 -23 113 -25q40 0 73 16q12 6 14 27q-1 2 -2 5t-2 4q-23 9 -41 9q-46 0 -71 -16q-12 -7 -30.5 -6t-29.5 9l-28 18q-23 17 -23 45q0 17 12 34q12 15 48 62t56 71q6 7 20.5 14t23.5 7h36q25 0 40.5 -16t15.5 -37q0 -20 -12 -34
l-6 -8q38 -7 73 -30q67 -43 67 -131q-1 -106 -81 -154q-58 -35 -154 -35q-52 0 -97 16v-1q-3 1 -9.5 2.5t-9.5 2.5l1 -1q-25 6 -52 16q-24 8 -33 29.5t1 43.5z" />
    <glyph glyph-name="onesuperior" unicode="&#xb9;" horiz-adv-x="682" 
d="M292 562v588q-8 -7 -17 -8h1q-62 -35 -132 -58q-29 -8 -50 8t-21 45v36q0 14 12 29.5t25 20.5q69 26 106 50q42 30 87 76q6 6 19 12t21 6h40q24 0 39.5 -16t15.5 -39v-750q0 -23 -15.5 -38.5t-39.5 -15.5h-37q-23 0 -38.5 15.5t-15.5 38.5z" />
    <glyph glyph-name="ordmasculine" unicode="&#xba;" horiz-adv-x="614" 
d="M48 787q-86 104 -86 241q0 144 85 244v-1q88 108 245 108q162 0 250 -108q81 -102 81 -243q0 -131 -81 -239q-84 -113 -252 -115q-158 1 -242 113zM160 1175q-53 -65 -53 -147q0 -84 53 -147q47 -61 133 -61q84 0 133 61q51 67 51 147q0 79 -50 148q-48 57 -135 58
q-84 -1 -132 -59z" />
    <glyph glyph-name="guillemotright" unicode="&#xbb;" horiz-adv-x="721" 
d="M400 244q-18 -23 -45 -23q-22 0 -37.5 15.5t-15.5 40.5v67l-74 -100q-18 -23 -44 -23q-21 0 -37.5 15.5t-16.5 40.5v81l139 189q-19 27 -61 83q-16 20 -43.5 57.5t-34.5 47.5v81q0 25 16.5 40.5t37.5 15.5q25 0 44 -23l74 -100v67q0 25 15.5 40.5t37.5 15.5q27 0 45 -23
l200 -271v-65zM441 547q-11 14 -13 17v-35z" />
    <glyph glyph-name="onequarter" unicode="&#xbc;" horiz-adv-x="1708" 
d="M263 21l873 1374q7 9 21 17t25 8h42q33 0 49 -28q14 -27 -3 -56q-65 -102 -211.5 -332.5t-225.5 -354.5q-172 -268 -437 -687q-7 -9 -21 -17t-25 -8h-42q-33 0 -47 28q-16 28 2 56zM395 562v588q-2 -1 -8 -3.5t-8 -4.5h1q-57 -32 -132 -58q-29 -8 -50.5 7.5t-21.5 45.5
v36q0 14 12 29.5t26 20.5q72 28 106 50q45 31 84 75q6 6 19.5 12.5t21.5 6.5h42q23 0 38.5 -16t15.5 -39v-750q0 -23 -15.5 -38.5t-38.5 -15.5h-37q-23 0 -39 15.5t-16 38.5zM1155 187h-352q-23 0 -38 16t-15 39v64l407 531q6 8 20 15t23 7h46q23 0 38.5 -16t15.5 -39v-470
h85q24 0 39.5 -16t15.5 -39v-37q0 -23 -15.5 -39t-39.5 -16h-85v-132q0 -23 -15.5 -39t-38.5 -16h-37q-23 0 -38.5 16t-15.5 39v132zM1155 334v259q-30 -38 -84.5 -108.5t-70.5 -91.5q-7 -10 -13.5 -19t-15.5 -20t-16 -20h200z" />
    <glyph glyph-name="onehalf" unicode="&#xbd;" horiz-adv-x="1708" 
d="M176 21l874 1374h-1q6 9 20.5 17t25.5 8h43q35 0 50 -27t-4 -57l-874 -1373h1q-6 -9 -20.5 -17.5t-25.5 -8.5h-42q-33 0 -49 28q-15 27 2 56zM328 562v588q-8 -7 -17 -8h1q-62 -35 -133 -58q-28 -8 -49 8t-21 45v36q0 15 11 30.5t26 20.5v-1q72 28 105 50q43 27 87 76
q7 6 21 12t20 6h40q23 0 38.5 -16t15.5 -39v-750q0 -23 -15.5 -38.5t-38.5 -15.5h-37q-23 0 -38.5 15.5t-15.5 38.5zM1045 146h412q23 0 39 -15.5t16 -39.5v-36q0 -23 -16 -39t-39 -16h-547q-23 0 -38 16t-15 39q0 63 29 120q26 47 70 88q33 31 90 69q2 1 12 7t15 10
q3 3 10 7t11 7q17 10 44 30q92 52 152 116q53 51 53 117q0 51 -32 71l1 -1q-53 29 -126 29q-89 -2 -131 -43t-39 -123q1 -24 -14.5 -40.5t-39.5 -16.5h-37q-23 0 -39 16.5t-16 39.5q1 142 76 228q73 85 240 85q120 0 205 -53q98 -64 98 -193q0 -40 -8 -83q-11 -37 -46 -89
q-59 -77 -212 -177q-101 -65 -157 -111h1q-10 -9 -13 -10z" />
    <glyph glyph-name="threequarters" unicode="&#xbe;" horiz-adv-x="1708" 
d="M362 21l873 1374h-1q6 9 20.5 17t25.5 8h43q33 0 49 -28q14 -27 -3 -56q-65 -102 -211.5 -332.5t-225.5 -354.5q-245 -382 -437 -686h1q-6 -9 -20.5 -17.5t-25.5 -8.5h-43q-33 0 -47 28q-16 28 2 56zM205 1027h-36q-24 0 -39.5 15t-15.5 38q0 148 97 227q95 72 234 72
q51 0 102 -8q58 -8 100 -35v1q50 -28 80 -77q28 -46 28 -119q0 -99 -68 -164l-11 -10q10 -5 16 -11h-1q76 -62 80 -186q-4 -128 -105 -205q-99 -69 -225 -69q-162 0 -256 83l1 -1q-101 86 -95 242q2 21 18 36t36 15h37q24 0 40 -17t14 -41v1q-4 -88 45 -126q58 -46 159 -46
q80 0 139 38q46 30 46 91q-1 65 -49 94q-24 16 -54 22q-42 7 -81 7q-15 0 -26 -1q-2 0 -6.5 -0.5t-7.5 -0.5q-23 -2 -40.5 14.5t-17.5 39.5v39q0 23 16 38.5t39 15.5h47q72 0 127 29q35 17 37 73q0 28 -7 47q-11 13 -27 23q-58 23 -132 23q-182 2 -183 -154q0 -21 -16.5 -37
t-38.5 -16zM1243 187h-351q-24 0 -39.5 16t-15.5 39v64l407 531q7 8 21 15t23 7h46q24 0 39.5 -16t15.5 -39v-470h85q23 0 38.5 -16t15.5 -39v-37q0 -23 -15.5 -39t-38.5 -16h-85v-132q0 -23 -15.5 -39t-39.5 -16h-36q-23 0 -39 16t-16 39v132zM1243 334v259
q-41 -54 -96 -123q-29 -39 -48 -63q-31 -38 -57 -73h201z" />
    <glyph glyph-name="questiondown" unicode="&#xbf;" 
d="M483 1104h36q23 0 39 -16t16 -39v-180q0 -23 -16 -38.5t-39 -15.5h-36q-24 0 -39.5 15.5t-15.5 38.5v180q0 23 15.5 39t39.5 16zM844 199h36q23 0 38.5 -15.5t16.5 -37.5q8 -218 -110 -349v1q-119 -144 -342 -144q-171 0 -289 91q-127 100 -128 268q1 144 80 247
q64 82 119 123q91 85 127 154v-1q34 65 34 179q0 23 15.5 38.5t39.5 15.5h36q23 0 39 -15.5t16 -38.5q0 -126 -42 -225q-48 -100 -160 -207q-8 -7 -9 -8q-4 -4 -28 -25q-27 -22 -52 -55q-20 -24 -48 -79q-21 -50 -21 -103q2 -106 72 -155q70 -59 199 -59q159 2 233 94
q80 95 73 249q-1 25 14.5 41t40.5 16z" />
    <glyph glyph-name="Agrave" unicode="&#xc0;" horiz-adv-x="1178" 
d="M95 36q-5 -14 -21.5 -25t-30.5 -11h-44q-33 0 -47 24q-15 26 -4 54l548 1349q5 14 20.5 24.5t30.5 10.5h51q9 0 16 -4q-1 1 -4 3t-4 4l-263 271q-18 18 -18 41q0 22 16.5 38t42.5 16h55q8 0 22 -6.5t21 -12.5q37 -44 118 -136t118 -136h-1q16 -17 16 -39t-16 -38t-41 -16
h-29q-9 0 -21 6q17 -11 24 -26l533 -1350q12 -30 -4 -53.5t-49 -23.5h-41q-14 0 -30 11t-21 25v-1q-28 69 -83 204.5t-83 204.5h-611q-21 -54 -61.5 -153t-58.5 -144q-29 -68 -46 -112v1zM321 594h493q-23 60 -64.5 167.5t-76.5 197t-65 168.5q-11 27 -18 47q-2 4 -5 13
t-6 17.5t-7 16.5q-21 -51 -54 -134t-60.5 -151.5t-53.5 -130.5q-64 -161 -83 -211z" />
    <glyph glyph-name="Aacute" unicode="&#xc1;" horiz-adv-x="1178" 
d="M95 36q-5 -14 -21.5 -25t-30.5 -11h-44q-33 0 -47 24q-15 26 -4 54l548 1349q4 10 16 21q-3 -1 -6 -1h-29q-25 0 -41 16t-16 38q0 21 17 40l250 272h-1q5 6 19.5 12t22.5 6h54q25 0 41 -16t16 -38q0 -25 -17 -42q-37 -36 -131.5 -128.5t-145.5 -143.5l-2 -1h4h51
q14 0 30.5 -11t21.5 -24l533 -1350q12 -30 -4 -53.5t-49 -23.5h-41q-14 0 -30 11t-21 25v-1q-28 69 -83 204.5t-83 204.5h-611q-21 -54 -61.5 -153t-58.5 -144q-29 -68 -46 -112v1zM321 594h493q-23 60 -64.5 167.5t-76.5 197t-65 168.5q-11 27 -18 47q-2 4 -5 13t-6 17.5
t-7 16.5q-21 -51 -54 -134t-60.5 -151.5t-53.5 -130.5q-64 -161 -83 -211z" />
    <glyph glyph-name="Acircumflex" unicode="&#xc2;" horiz-adv-x="1178" 
d="M807 1456h-38q-9 0 -23 6.5t-20 14.5q-25 31 -75 89.5t-76 89.5q-11 -14 -34 -42t-34 -42q-4 -5 -76 -94q-6 -8 -21 -15t-22 -7h-39q-25 0 -41 15.5t-16 37.5q0 19 14 38l214 263q24 21 43 21h28q9 0 24 -6.5t20 -13.5l216 -263q14 -19 14 -38q0 -22 -16.5 -38t-41.5 -16
zM872 444h-611q-21 -54 -61.5 -153t-58.5 -144q-29 -68 -46 -112v1q-5 -14 -21.5 -25t-30.5 -11h-44q-33 0 -47 24q-15 26 -4 54l548 1349q5 14 20.5 24.5t30.5 10.5h51q14 0 30.5 -11t21.5 -24l533 -1350q12 -30 -4 -53.5t-49 -23.5h-41q-14 0 -30 11t-21 25v-1
q-28 69 -83 204.5t-83 204.5zM321 594h493q-23 60 -64.5 167.5t-76.5 197t-65 168.5q-11 27 -18 47q-2 4 -5 13t-6 17.5t-7 16.5q-21 -51 -54 -134t-60.5 -151.5t-53.5 -130.5q-64 -161 -83 -211z" />
    <glyph glyph-name="Atilde" unicode="&#xc3;" horiz-adv-x="1178" 
d="M365 1476h-38q-24 0 -40.5 16.5t-15.5 39.5q1 74 53 135q57 69 131 70q44 0 89 -22q53 -28 65 -37l3 -3q8 -6 35 -23h-1l24 -14q14 -10 25 -10q17 0 25 11q12 13 12 36q0 24 16 39.5t40 15.5h38q24 0 40 -15.5t16 -39.5q0 -70 -42 -133q-52 -64 -145 -64q-51 0 -93 24
q-2 2 -5 4t-5 3h1q-53 33 -55 35q-7 5 -17 13q-11 10 -32 22l3 -1q-22 8 -34 9q-18 -8 -22 -13q-15 -20 -15 -43t-16.5 -39t-39.5 -16zM872 444h-611q-21 -54 -61.5 -153t-58.5 -144q-29 -68 -46 -112v1q-5 -14 -21.5 -25t-30.5 -11h-44q-33 0 -47 24q-15 26 -4 54l548 1349
q5 14 20.5 24.5t30.5 10.5h51q14 0 30.5 -11t21.5 -24l533 -1350q12 -30 -4 -53.5t-49 -23.5h-41q-14 0 -30 11t-21 25v-1q-28 69 -83 204.5t-83 204.5zM321 594h493q-23 60 -64.5 167.5t-76.5 197t-65 168.5q-11 27 -18 47q-2 4 -5 13t-6 17.5t-7 16.5q-21 -51 -54 -134
t-60.5 -151.5t-53.5 -130.5q-64 -161 -83 -211z" />
    <glyph glyph-name="Adieresis" unicode="&#xc4;" horiz-adv-x="1178" 
d="M450 1452h-38q-23 0 -39.5 16.5t-16.5 39.5v153q0 25 16 41t40 16h38q24 0 40 -16t16 -41v-153q0 -23 -16.5 -39.5t-39.5 -16.5zM745 1452h-39q-23 0 -39 16.5t-16 39.5v153q0 25 15.5 41t39.5 16h39q24 0 40 -16t16 -41v-153q0 -23 -16.5 -39.5t-39.5 -16.5zM872 444
h-611q-21 -54 -61.5 -153t-58.5 -144q-29 -68 -46 -112v1q-5 -14 -21.5 -25t-30.5 -11h-44q-33 0 -47 24q-15 26 -4 54l548 1349q5 14 20.5 24.5t30.5 10.5h51q14 0 30.5 -11t21.5 -24l533 -1350q12 -30 -4 -53.5t-49 -23.5h-41q-14 0 -30 11t-21 25v-1q-28 69 -83 204.5
t-83 204.5zM321 594h493q-23 60 -64.5 167.5t-76.5 197t-65 168.5q-11 27 -18 47q-2 4 -5 13t-6 17.5t-7 16.5q-21 -51 -54 -134t-60.5 -151.5t-53.5 -130.5q-64 -161 -83 -211z" />
    <glyph glyph-name="Aring" unicode="&#xc5;" horiz-adv-x="1178" 
d="M95 36q-5 -14 -21.5 -25t-30.5 -11h-44q-33 0 -47 24q-15 26 -4 54l541 1332q-35 16 -66 47q-66 64 -67 156q0 47 21 91q17 36 47 66q70 65 154 66q92 -1 157 -66q66 -66 66 -155v-2q0 -86 -65 -156q-32 -34 -78 -51l525 -1329q12 -30 -4 -53.5t-49 -23.5h-41
q-14 0 -30 11t-21 25v-1q-28 69 -83 204.5t-83 204.5h-611q-21 -54 -61.5 -153t-58.5 -144q-29 -68 -46 -112v1zM630 1564q21 18 21 50q0 30 -20 53q-20 20 -53 20q-31 0 -49 -19q-21 -21 -23 -55q2 -31 24 -49q18 -23 48 -23q29 0 52 23zM321 594h493q-23 60 -64.5 167.5
t-76.5 197t-65 168.5q-11 27 -18 47q-2 4 -5 13t-6 17.5t-7 16.5q-21 -51 -54 -134t-60.5 -151.5t-53.5 -130.5q-64 -161 -83 -211z" />
    <glyph glyph-name="AE" unicode="&#xc6;" horiz-adv-x="1745" 
d="M776 518h-417q-47 -87 -90 -171q-18 -35 -77.5 -145t-91.5 -172q-7 -12 -21.5 -21t-27.5 -9h-42q-36 0 -51 26q-14 28 1 56l716 1350v-1q5 11 21 21t29 10h886q24 0 40 -16.5t16 -39.5v-38q0 -23 -16 -39.5t-40 -16.5h-685v-477h624q24 0 40.5 -16.5t16.5 -40.5v-38
q0 -24 -16.5 -39.5t-40.5 -15.5h-624v-535h685q24 0 40 -16.5t16 -39.5v-38q0 -23 -16 -39.5t-40 -16.5h-779q-24 0 -40 16.5t-16 39.5v462zM776 668v648q-8 -15 -31 -60.5t-36 -69.5q-10 -19 -132 -252q-52 -100 -139 -266h338z" />
    <glyph glyph-name="Ccedilla" unicode="&#xc7;" horiz-adv-x="1403" 
d="M1249 945h-39q-21 0 -37 15t-18 36q-12 136 -128 239q-116 106 -319 110q-148 0 -250 -61q-100 -57 -164 -149v1q-128 -209 -127 -416q0 -248 140 -424q129 -173 379 -179q218 1 344 135q124 130 155 341q2 20 18.5 34t37.5 14h38q28 0 43.5 -18t11.5 -45
q-36 -264 -199 -433q-120 -125 -303 -162h-1q67 -41 69 -135q-1 -111 -84 -158q-63 -36 -158 -36q-57 1 -101 17v-1q-13 2 -18 4l1 -1q-22 5 -55 17q-23 9 -33 31t0 44q2 6 8 18.5t9 18.5q9 20 31 28t42 -1q53 -23 118 -25q43 0 72 15q12 4 18 27q-1 7 -7 11q-20 11 -41 11
q-44 0 -75 -18q-12 -7 -30.5 -6t-29.5 9l-28 20h1q-24 16 -24 45q0 18 11 35l24 29q-216 48 -358 214v-1q-175 206 -176 525q0 280 158 514v-1q165 256 534 262q296 -6 445 -173h-1q151 -164 152 -320q0 -23 -16.5 -40t-39.5 -17z" />
    <glyph glyph-name="Egrave" unicode="&#xc8;" horiz-adv-x="1100" 
d="M1084 56q0 -23 -16 -39.5t-40 -16.5h-903q-23 0 -39.5 16.5t-16.5 39.5v1350q0 23 16.5 39.5t39.5 16.5h444l-2 2l-263 272q-18 18 -18 41q0 22 16.5 38t41.5 16h56q7 0 21.5 -6.5t21.5 -12.5q38 -44 118 -136t118 -136h-1q15 -18 15 -39q0 -25 -17 -39h345
q24 0 40 -16.5t16 -39.5v-38q0 -23 -16 -39.5t-40 -16.5h-802v-477h752q23 0 39 -16.5t16 -40.5v-38q0 -24 -16 -39.5t-39 -15.5h-752v-535h809q24 0 40 -16.5t16 -39.5v-38z" />
    <glyph glyph-name="Eacute" unicode="&#xc9;" horiz-adv-x="1100" 
d="M1084 56q0 -23 -16 -39.5t-40 -16.5h-903q-23 0 -39.5 16.5t-16.5 39.5v1350q0 23 16.5 39.5t39.5 16.5h273q-17 17 -17 39q0 21 17 40l249 272h-1q5 5 21 12q12 6 22 6h54q25 0 41 -16t16 -38q0 -24 -18 -42q-46 -45 -137.5 -135t-137.5 -136l-2 -2h516q24 0 40 -16.5
t16 -39.5v-38q0 -23 -16 -39.5t-40 -16.5h-802v-477h752q23 0 39 -16.5t16 -40.5v-38q0 -24 -16 -39.5t-39 -15.5h-752v-535h809q24 0 40 -16.5t16 -39.5v-38z" />
    <glyph glyph-name="Ecircumflex" unicode="&#xca;" horiz-adv-x="1100" 
d="M1084 56q0 -23 -16 -39.5t-40 -16.5h-903q-23 0 -39.5 16.5t-16.5 39.5v1350q0 23 16.5 39.5t39.5 16.5h156q-30 14 -30 47q0 21 13 38l214 263q5 7 20.5 14t24.5 7h27q8 0 22.5 -7t21.5 -13q36 -44 108 -131.5t108 -131.5q14 -19 14 -38q0 -33 -31 -48h228
q24 0 40 -16.5t16 -39.5v-38q0 -23 -16 -39.5t-40 -16.5h-802v-477h752q23 0 39 -16.5t16 -40.5v-38q0 -24 -16 -39.5t-39 -15.5h-752v-535h809q24 0 40 -16.5t16 -39.5v-38zM370 1464l-3 -2h341q-14 6 -22 16v-1q-150 178 -151 179q-10 -11 -26.5 -31.5t-22.5 -27.5
q-45 -55 -96 -119v1q-5 -8 -20 -15z" />
    <glyph glyph-name="Edieresis" unicode="&#xcb;" horiz-adv-x="1100" 
d="M1084 56q0 -23 -16 -39.5t-40 -16.5h-903q-23 0 -39.5 16.5t-16.5 39.5v1350q0 23 16.5 39.5t39.5 16.5h216q-24 18 -24 46v153q0 25 16 41t40 16h37q26 0 41.5 -16t15.5 -41v-153q0 -28 -24 -46h192q-23 17 -23 46v153q0 25 15.5 41t40.5 16h37q24 0 40.5 -16t16.5 -41
v-153q0 -28 -24 -46h283q24 0 40 -16.5t16 -39.5v-38q0 -23 -16 -39.5t-40 -16.5h-802v-477h752q23 0 39 -16.5t16 -40.5v-38q0 -24 -16 -39.5t-39 -15.5h-752v-535h809q24 0 40 -16.5t16 -39.5v-38z" />
    <glyph glyph-name="Igrave" unicode="&#xcc;" horiz-adv-x="262" 
d="M199 56q0 -23 -16 -39.5t-39 -16.5h-39q-24 0 -40 16.5t-16 39.5v1350q0 23 16 39.5t40 16.5h39q5 0 8 -1l-4 4l-262 271q-18 18 -18 41q0 22 16.5 38t41.5 16h56q9 0 23 -7q15 -7 19 -13v1l237 -272h-1q16 -17 16 -39t-16.5 -38t-41.5 -16h-29q-3 0 -9 2q19 -17 19 -43
v-1350z" />
    <glyph glyph-name="Iacute" unicode="&#xcd;" horiz-adv-x="262" 
d="M272 1831h56q25 0 41 -16.5t16 -37.5q0 -24 -19 -42l-275 -272q-5 -5 -19.5 -10.5t-20.5 -5.5h-28q-25 0 -41 16t-16 38t15 40l251 272q7 6 20.5 12t19.5 6zM53 56v1350q0 23 16.5 39.5t40.5 16.5h37q24 0 40 -16.5t16 -39.5v-1350q0 -23 -16 -39.5t-40 -16.5h-37
q-24 0 -40.5 16.5t-16.5 39.5z" />
    <glyph glyph-name="Icircumflex" unicode="&#xce;" horiz-adv-x="262" 
d="M350 1456h-37q-9 0 -23.5 6.5t-20.5 14.5q-29 35 -81.5 97t-69.5 82q-13 -15 -58 -72q-12 -14 -86 -106q-7 -8 -21 -15t-23 -7h-38q-25 0 -41 16t-16 38q0 21 13 37l214 263q8 8 21 14q16 7 23 7h28q9 0 24 -6.5t20 -13.5l216 -263q14 -19 14 -37q0 -22 -16.5 -38.5
t-41.5 -16.5zM51 56v1350q0 23 16.5 39.5t39.5 16.5h38q24 0 40 -16.5t16 -39.5v-1350q0 -23 -16 -39.5t-40 -16.5h-38q-23 0 -39.5 16.5t-16.5 39.5z" />
    <glyph glyph-name="Idieresis" unicode="&#xcf;" horiz-adv-x="262" 
d="M-5 1452h-39q-23 0 -39 16.5t-16 39.5v153q0 25 15.5 41t39.5 16h39q24 0 40 -16t16 -41v-153q0 -23 -16.5 -39.5t-39.5 -16.5zM289 1452h-38q-23 0 -39.5 16.5t-16.5 39.5v153q0 25 16 41t40 16h38q24 0 40 -16t16 -41v-153q0 -23 -16 -39.5t-40 -16.5zM51 56v1350
q0 23 16.5 39.5t39.5 16.5h38q24 0 40 -16.5t16 -39.5v-1350q0 -23 -16 -39.5t-40 -16.5h-38q-23 0 -39.5 16.5t-16.5 39.5z" />
    <glyph glyph-name="Eth" unicode="&#xd0;" horiz-adv-x="1327" 
d="M70 685h-65q-24 0 -40 15.5t-16 39.5v38q0 24 16 40.5t40 16.5h65v571q0 23 16 39.5t39 16.5h474q112 0 221 -33q111 -38 205 -120q96 -89 149 -226q53 -140 55 -353q-4 -382 -214 -560q-201 -170 -475 -170h-415q-23 0 -39 16.5t-16 39.5v629zM725 685h-505v-535h329
q224 0 376 142q150 138 154 439q0 84 -11 169q-7 65 -30 125v-1q-40 109 -112 175q-63 58 -153 89q-84 24 -185 24h-368v-477h505q24 0 40 -16.5t16 -40.5v-38q0 -24 -16 -39.5t-40 -15.5z" />
    <glyph glyph-name="Ntilde" unicode="&#xd1;" horiz-adv-x="1327" 
d="M436 1476h-38q-23 0 -39.5 16.5t-15.5 39.5q0 76 53 135q56 68 130 70q45 0 90 -22q12 -6 63 -37l-1 -1q2 -2 7.5 -5.5t8.5 -4.5q26 -17 45 -27q17 -12 28 -12q17 0 25 11q11 12 11 36t16 39.5t40 15.5h38q24 0 40 -15.5t16 -39.5q0 -73 -42 -133q-52 -64 -144 -64
q-49 0 -93 24q-58 36 -66 42q-26 21 -47 35l3 -1q-21 8 -36 9q-12 -5 -22 -13q-13 -21 -13 -43q0 -23 -16.5 -39t-40.5 -16zM71 56v1350q0 23 16.5 39.5t40.5 16.5h56q9 0 23.5 -7.5t22.5 -16.5q364 -511 824 -1164v1132q0 23 16.5 39.5t39.5 16.5h38q24 0 40 -16.5
t16 -39.5v-1350q0 -23 -16 -39.5t-40 -16.5h-57q-10 0 -25.5 8t-20.5 17l1 -1q-81 114 -224.5 316.5t-187.5 264.5q-394 555 -413 582v-1131q0 -24 -15.5 -40t-40.5 -16h-37q-24 0 -40.5 16.5t-16.5 39.5z" />
    <glyph glyph-name="Ograve" unicode="&#xd2;" horiz-adv-x="1477" 
d="M1221 202q-90 -111 -219.5 -172t-291.5 -63q-331 4 -504 234q-173 218 -173 530q0 317 172 533q175 227 505 231h15l-234 241q-18 18 -18 41q0 22 16.5 38t42.5 16h55q9 0 23 -7q15 -7 19 -13v1l237 -272h-1q16 -17 16 -39q0 -12 -6 -24q212 -46 345 -212
q169 -215 169 -534q0 -302 -168 -529zM710 1345q-246 -4 -382 -167q-140 -174 -146 -447q6 -272 146 -446q135 -167 382 -168q249 1 384 169q141 167 145 445q-4 278 -144 447v-1q-142 163 -385 168z" />
    <glyph glyph-name="Oacute" unicode="&#xd3;" horiz-adv-x="1477" 
d="M1221 202q-90 -111 -219.5 -172t-291.5 -63q-331 4 -504 234q-173 218 -173 530q0 317 172 533q136 176 365 218q-4 7 -4 19q0 21 17 40l250 272h-1q5 6 19.5 12t22.5 6h54q25 0 41 -16t16 -38q0 -25 -17 -42q-41 -40 -122.5 -120t-122.5 -120q320 -7 497 -230
q169 -215 169 -534q0 -302 -168 -529zM710 1345q-246 -4 -382 -167q-140 -174 -146 -447q6 -272 146 -446q135 -167 382 -168q249 1 384 169q141 167 145 445q-4 278 -144 447v-1q-142 163 -385 168z" />
    <glyph glyph-name="Ocircumflex" unicode="&#xd4;" horiz-adv-x="1477" 
d="M1221 202q-90 -111 -219.5 -172t-291.5 -63q-331 4 -504 234q-173 218 -173 530q0 317 172 533q110 141 272 194q-39 13 -39 51q0 19 14 38l214 263q5 7 20 14t23 7h28q9 0 24 -6.5t20 -13.5l216 -263q14 -19 14 -38q0 -22 -16 -38t-41 -16h-2q162 -56 268 -191
q169 -215 169 -534q0 -302 -168 -529zM710 1495q92 -2 162 -17q-26 32 -75 89t-75 89q-8 -8 -48 -59q-14 -16 -29.5 -35t-33.5 -42t-29 -36q63 11 128 11zM710 1345q-246 -4 -382 -167q-140 -174 -146 -447q6 -272 146 -446q135 -167 382 -168q249 1 384 169
q141 167 145 445q-4 278 -144 447v-1q-142 163 -385 168z" />
    <glyph glyph-name="Otilde" unicode="&#xd5;" horiz-adv-x="1477" 
d="M1221 202q-90 -111 -219.5 -172t-291.5 -63q-331 4 -504 234q-173 218 -173 530q0 317 172 533q175 227 505 231q18 0 56 -2q-13 6 -19 9q-1 2 -5 4t-5 3h1q-53 33 -55 35q-7 5 -17 13q-11 10 -32 22l3 -1q-22 8 -34 9q-18 -8 -22 -13q-15 -22 -15 -43q0 -23 -16.5 -39
t-39.5 -16h-38q-23 0 -40 16.5t-16 39.5q1 74 53 135q57 69 131 70q44 0 89 -22q53 -28 65 -37l3 -3q31 -23 52 -34q2 -1 3 -1q19 -12 28 -12q19 0 25 10q12 14 12 37q0 24 16 39.5t40 15.5h38q24 0 40 -15.5t16 -39.5q0 -70 -42 -133q-48 -56 -119 -63q218 -43 354 -214
q169 -215 169 -534q0 -302 -168 -529zM710 1345q-246 -4 -382 -167q-140 -174 -146 -447q6 -272 146 -446q135 -167 382 -168q249 1 384 169q141 167 145 445q-4 278 -144 447v-1q-142 163 -385 168z" />
    <glyph glyph-name="Odieresis" unicode="&#xd6;" horiz-adv-x="1477" 
d="M1221 202q-90 -111 -219.5 -172t-291.5 -63q-331 4 -504 234q-173 218 -173 530q0 317 172 533q120 158 313 207q-14 16 -14 37v153q0 25 16 41t40 16h38q24 0 40 -16t16 -41v-153q0 -6 -2 -16q19 3 58 3q48 0 92 -6q0 2 -1.5 8.5t-1.5 10.5v153q0 25 15.5 41t39.5 16h39
q24 0 40 -16t16 -41v-153q0 -25 -22 -44q178 -54 293 -199q169 -215 169 -534q0 -302 -168 -529zM710 1345q-246 -4 -382 -167q-140 -174 -146 -447q6 -272 146 -446q135 -167 382 -168q249 1 384 169q141 167 145 445q-4 278 -144 447v-1q-142 163 -385 168z" />
    <glyph glyph-name="multiply" unicode="&#xd7;" horiz-adv-x="1229" 
d="M480 519l-310 310q-16 16 -16 39q0 22 16 38l25 24q16 16 38 16t38 -16l310 -313q52 53 155.5 157t156.5 156q16 16 38 16q21 0 38 -16l26 -24q15 -15 15 -38q0 -24 -15 -39l-311 -310l99 -99l212 -212q15 -15 15 -38q0 -22 -15 -38l-7.5 -7.5t-10.5 -10t-8 -8.5
q-19 -17 -38 -17q-21 0 -38 17l-312 312q-26 -26 -76 -76.5t-76 -76.5q-132 -132 -158 -159q-17 -17 -38 -17q-19 0 -38 17l-25 26q-16 22 -16 38q0 18 16 38l155 155q29 28 81 80.5t74 75.5z" />
    <glyph glyph-name="Oslash" unicode="&#xd8;" horiz-adv-x="1477" 
d="M63 125l107 121q-137 200 -137 485q0 317 172 533q175 227 505 231q269 -4 442 -162q13 16 32 35h-1q6 7 19.5 22t20.5 22q17 17 42 17q22 0 35 -11h-1q4 -3 14.5 -11.5t14.5 -11.5q20 -15 20 -42q0 -22 -13 -39q-69 -73 -86 -94q140 -200 140 -489q0 -302 -168 -529
q-90 -111 -219.5 -172t-291.5 -63q-264 4 -443 166q-8 -8 -22.5 -24.5t-21.5 -24.5q-10 -11 -27 -30.5t-22 -25.5q-16 -18 -42 -18q-23 0 -35 12h1q-4 3 -14.5 10.5t-14.5 11.5q-21 15 -21 44q0 19 15 37zM275 360l776 862q-64 63 -146.5 92t-194.5 31q-237 -4 -382 -167
q-140 -182 -146 -447q5 -224 93 -371zM1146 1103l-777 -859q132 -126 341 -127q249 1 384 169q141 167 145 445q-4 221 -93 372z" />
    <glyph glyph-name="Ugrave" unicode="&#xd9;" horiz-adv-x="1294" 
d="M661 1464l-263 272q-18 18 -18 41q0 22 16.5 38t41.5 16h56q8 0 22.5 -6.5t20.5 -12.5q38 -44 118 -136t118 -136h-1q16 -17 16 -39t-16.5 -38t-41.5 -16h-28q-8 0 -22 6t-19 11zM1024 559v847q0 24 16 40t41 16h37q24 0 40 -16.5t16 -39.5v-848q-7 -591 -552 -591
q-274 0 -411 147t-140 445v847q0 24 16.5 40t40.5 16h37q24 0 40 -16.5t16 -39.5v-847q-1 -207 106 -321q101 -110 295 -121q190 11 294 121q108 114 108 321z" />
    <glyph glyph-name="Uacute" unicode="&#xda;" horiz-adv-x="1294" 
d="M781 1831h55q25 0 40.5 -16t15.5 -38q0 -24 -18 -42q-46 -45 -137.5 -135t-137.5 -136q-5 -6 -18.5 -11.5t-20.5 -5.5h-29q-25 0 -41 16t-16 38q0 23 16 40l250 272q7 6 20.5 12t20.5 6zM1024 559v847q0 24 16 40t41 16h37q24 0 40 -16.5t16 -39.5v-848
q-7 -591 -552 -591q-274 0 -411 147t-140 445v847q0 24 16.5 40t40.5 16h37q24 0 40 -16.5t16 -39.5v-847q-1 -207 106 -321q101 -110 295 -121q190 11 294 121q108 114 108 321z" />
    <glyph glyph-name="Ucircumflex" unicode="&#xdb;" horiz-adv-x="1294" 
d="M861 1456h-39q-9 0 -23 7t-19 15v-1q-150 178 -151 179q-10 -11 -26.5 -31.5t-22.5 -27.5q-45 -55 -96 -119v1q-5 -8 -20 -15q-14 -8 -24 -8h-37q-26 0 -42 15.5t-16 37.5q0 17 13 38l214 263q5 7 20.5 14t24.5 7h27q8 0 22.5 -7t21.5 -13q36 -44 108 -131.5t108 -131.5
q14 -19 14 -38q0 -22 -16 -38t-41 -16zM1024 559v847q0 24 16 40t41 16h37q24 0 40 -16.5t16 -39.5v-848q-7 -591 -552 -591q-274 0 -411 147t-140 445v847q0 24 16.5 40t40.5 16h37q24 0 40 -16.5t16 -39.5v-847q-1 -207 106 -321q101 -110 295 -121q190 11 294 121
q108 114 108 321z" />
    <glyph glyph-name="Udieresis" unicode="&#xdc;" horiz-adv-x="1294" 
d="M503 1452h-38q-24 0 -40 16.5t-16 39.5v153q0 25 16 41t40 16h38q24 0 40 -16t16 -41v-153q0 -23 -16 -39.5t-40 -16.5zM797 1452h-37q-24 0 -40 16.5t-16 39.5v153q0 25 16 41t40 16h37q24 0 40.5 -16t16.5 -41v-153q0 -23 -16.5 -39.5t-40.5 -16.5zM1024 559v847
q0 24 16 40t41 16h37q24 0 40 -16.5t16 -39.5v-848q-7 -591 -552 -591q-274 0 -411 147t-140 445v847q0 24 16.5 40t40.5 16h37q24 0 40 -16.5t16 -39.5v-847q-1 -207 106 -321q101 -110 295 -121q190 11 294 121q108 114 108 321z" />
    <glyph glyph-name="Yacute" unicode="&#xdd;" horiz-adv-x="1102" 
d="M690 1873h54q26 0 42 -16.5t16 -38.5q0 -23 -18 -41q-46 -46 -138 -136.5t-137 -135.5q-5 -5 -19 -10.5t-21 -5.5h-28q-25 0 -41.5 16.5t-16.5 38.5t16 38l251 274q6 6 20 11.5t20 5.5zM529 763l475 675l-1 -1q5 9 20 17t26 8h46q25 0 41 -16t16 -38q0 -20 -11 -35
l-537 -766v-551q0 -23 -16 -39.5t-40 -16.5h-37q-25 0 -41 16t-16 40v551q-193 277 -535 766q-11 17 -11 35q0 22 16 38t41 16h46q11 0 25.5 -7.5t21.5 -16.5z" />
    <glyph glyph-name="Thorn" unicode="&#xde;" horiz-adv-x="1175" 
d="M220 1227h452q461 0 468 -424q-1 -203 -141 -317q-135 -105 -346 -105h-433v-325q0 -23 -16 -39.5t-40 -16.5h-38q-23 0 -39.5 16.5t-16.5 39.5v1350q0 23 16.5 39.5t39.5 16.5h38q24 0 40 -16.5t16 -39.5v-179zM220 1077v-546h452q142 0 232 73q85 69 86 199
q0 270 -319 274h-451z" />
    <glyph glyph-name="germandbls" unicode="&#xdf;" horiz-adv-x="985" 
d="M799 118q-122 -124 -402 -118q-23 1 -38.5 16.5t-15.5 38.5v36q0 24 17 40.5t40 14.5h7q30 -2 42 -2q141 0 223 58q91 60 93 238q0 85 -25 143q-29 52 -65 75q-97 53 -243 53h-34q-23 0 -39 15.5t-16 38.5v36q0 24 16.5 40t39.5 15q125 -4 220 51v-1q78 48 78 177
q-1 104 -66 154q-68 59 -180 59q-27 0 -74 -6q-32 -5 -75 -31q-36 -24 -58 -64q-24 -43 -24 -126v-1014q0 -23 -16 -39t-39 -16h-37q-23 0 -39 16t-16 39v1021q0 101 34 172q32 67 90 117q108 79 254 77q162 0 268 -91q124 -94 124 -267q0 -134 -67 -224q-27 -39 -57 -60
q68 -34 111 -87q81 -103 81 -273q1 -204 -112 -322z" />
    <glyph glyph-name="agrave" unicode="&#xe0;" horiz-adv-x="985" 
d="M673 61q-119 -84 -280 -84q-156 0 -261 78q-108 87 -109 232q0 104 36 170q32 60 94 102q69 40 123 50q60 13 122 15q9 2 29 2.5t21 0.5q2 0 6 0.5t5 0.5h-1l35 3q26 3 75 5h-1q67 6 103 17q26 8 37 20q10 13 10 49q0 38 -6 82q-6 25 -27 63q-16 23 -55 42
q-55 19 -132 19q-250 -4 -269 -226q-2 -21 -18 -35.5t-37 -14.5h-36q-24 0 -40 16t-15 40q6 160 113 263q101 100 288 104l-235 244q-17 20 -17 39q0 22 15.5 37.5t40.5 15.5h54q17 0 41 -17l230 -265h-1q16 -17 16 -39q0 -18 -9 -28q71 -18 127 -54q110 -77 117 -257v-599
h1q1 1 2 1q20 5 38 2q28 -4 41 -28q12 -23 0 -50v1q-17 -35 -49 -56t-67 -21q-88 0 -108 99q-13 -12 -47 -39zM717 435v77q-38 -11 -87 -16q-107 -11 -225 -17q-51 -2 -95 -12q-46 -12 -79 -33q-29 -16 -42 -48q-21 -40 -21 -98q0 -31 12 -60q14 -31 32 -46q51 -56 177 -58
q156 1 246 95h-1q83 97 83 216z" />
    <glyph glyph-name="aacute" unicode="&#xe1;" horiz-adv-x="985" 
d="M673 61q-119 -84 -280 -84q-156 0 -261 78q-108 87 -109 232q0 104 36 170q32 60 94 102q69 40 123 50q60 13 122 15q9 2 29 2.5t21 0.5q2 0 6 0.5t5 0.5h-1l35 3q26 3 75 5h-1q67 6 103 17q26 8 37 20q10 13 10 49q0 38 -6 82q-6 25 -27 63q-16 23 -55 42
q-55 19 -132 19q-250 -4 -269 -226q-2 -21 -18 -35.5t-37 -14.5h-36q-24 0 -40 16t-15 40q6 160 113 263q59 58 143 83q-15 15 -15 37q0 19 15 39l244 265q5 5 18.5 10.5t21.5 5.5h53q25 0 40.5 -16t15.5 -38q0 -21 -18 -39l-247 -244q9 1 29 1q144 2 250 -67
q110 -77 117 -257v-599h1q1 1 2 1q20 5 38 2q28 -4 41 -28q12 -23 0 -50v1q-17 -35 -49 -56t-67 -21q-88 0 -108 99q-13 -12 -47 -39zM717 435v77q-38 -11 -87 -16q-107 -11 -225 -17q-51 -2 -95 -12q-46 -12 -79 -33q-29 -16 -42 -48q-21 -40 -21 -98q0 -31 12 -60
q14 -31 32 -46q51 -56 177 -58q156 1 246 95h-1q83 97 83 216z" />
    <glyph glyph-name="acircumflex" unicode="&#xe2;" horiz-adv-x="985" 
d="M673 61q-119 -84 -280 -84q-156 0 -261 78q-108 87 -109 232q0 104 36 170q32 60 94 102q69 40 123 50q60 13 122 15q9 2 29 2.5t21 0.5q2 0 6 0.5t5 0.5h-1l35 3q26 3 75 5h-1q67 6 103 17q26 8 37 20q10 13 10 49q0 38 -6 82q-6 25 -27 63q-16 23 -55 42
q-55 19 -132 19q-250 -4 -269 -226q-2 -21 -18 -35.5t-37 -14.5h-36q-24 0 -40 16t-15 40q6 160 113 263q105 104 300 104q73 0 134 -16l-9 7l-146 174q-12 -14 -34 -41t-33 -40q-16 -18 -41 -50t-33 -41q-5 -7 -19 -14t-23 -7h-37q-25 0 -40.5 15.5t-15.5 36.5q0 19 14 36
l207 256q5 6 20 13t23 7h26q20 0 44 -19q34 -42 105 -128t105 -128q12 -16 12 -36q0 -21 -15.5 -37t-40.5 -16h-31q50 -20 78 -39q110 -77 117 -257v-599h1q1 1 2 1q20 5 38 2q28 -4 41 -28q12 -23 0 -50v1q-17 -35 -49 -56t-67 -21q-88 0 -108 99q-13 -12 -47 -39zM717 435
v77q-38 -11 -87 -16q-107 -11 -225 -17q-51 -2 -95 -12q-46 -12 -79 -33q-29 -16 -42 -48q-21 -40 -21 -98q0 -31 12 -60q14 -31 32 -46q51 -56 177 -58q156 1 246 95h-1q83 97 83 216z" />
    <glyph glyph-name="atilde" unicode="&#xe3;" horiz-adv-x="985" 
d="M673 61q-119 -84 -280 -84q-156 0 -261 78q-108 87 -109 232q0 104 36 170q32 60 94 102q69 40 123 50q60 13 122 15q9 2 29 2.5t21 0.5q2 0 6 0.5t5 0.5h-1l35 3q26 3 75 5h-1q67 6 103 17q26 8 37 20q10 13 10 49q0 38 -6 82q-6 25 -27 63q-16 23 -55 42
q-55 19 -132 19q-250 -4 -269 -226q-2 -21 -18 -35.5t-37 -14.5h-36q-24 0 -40 16t-15 40q6 160 113 263q105 104 300 104q18 0 50 -2q-25 6 -47 18q-12 8 -33.5 21.5t-30.5 19.5q-1 1 -16 13q-6 3 -14.5 10t-14.5 11l1 -1q-16 7 -36 9q-14 -6 -18 -13q-13 -15 -13 -40
q0 -23 -16.5 -39t-38.5 -16h-38q-22 0 -38.5 16t-15.5 39q1 73 52 131q55 67 127 68q45 0 86 -22q41 -20 63 -35q3 -3 3 -4l51 -33q1 0 3 -2q6 -2 7 -3q14 -8 20 -8q16 0 24 11q12 16 12 35q0 23 15.5 39t38.5 16h37q23 0 38.5 -16t15.5 -39q0 -70 -40 -128
q-53 -63 -141 -63h-1q87 -13 158 -60q110 -77 117 -257v-599h1q1 1 2 1q20 5 38 2q28 -4 41 -28q12 -23 0 -50v1q-17 -35 -49 -56t-67 -21q-88 0 -108 99q-13 -12 -47 -39zM717 435v77q-38 -11 -87 -16q-107 -11 -225 -17q-51 -2 -95 -12q-46 -12 -79 -33q-29 -16 -42 -48
q-21 -40 -21 -98q0 -31 12 -60q14 -31 32 -46q51 -56 177 -58q156 1 246 95h-1q83 97 83 216z" />
    <glyph glyph-name="adieresis" unicode="&#xe4;" horiz-adv-x="985" 
d="M673 61q-119 -84 -280 -84q-156 0 -261 78q-108 87 -109 232q0 104 36 170q32 60 94 102q69 40 123 50q60 13 122 15q9 2 29 2.5t21 0.5q2 0 6 0.5t5 0.5h-1l35 3q26 3 75 5h-1q67 6 103 17q26 8 37 20q10 13 10 49q0 38 -6 82q-6 25 -27 63q-16 23 -55 42
q-55 19 -132 19q-250 -4 -269 -226q-2 -21 -18 -35.5t-37 -14.5h-36q-24 0 -40 16t-15 40q6 160 113 263q50 49 114 72q-21 3 -34.5 18.5t-13.5 36.5v148q0 24 15.5 39.5t38.5 15.5h37q23 0 38.5 -15.5t15.5 -39.5v-148q0 -15 -9 -31q50 8 98 8q19 0 57 -2q-6 11 -6 25v148
q0 24 16 39.5t39 15.5h37q23 0 39 -15.5t16 -39.5v-148q0 -36 -31 -49q46 -18 83 -41q110 -77 117 -257v-599h1q1 1 2 1q20 5 38 2q28 -4 41 -28q12 -23 0 -50v1q-17 -35 -49 -56t-67 -21q-88 0 -108 99q-13 -12 -47 -39zM717 435v77q-38 -11 -87 -16q-107 -11 -225 -17
q-51 -2 -95 -12q-46 -12 -79 -33q-29 -16 -42 -48q-21 -40 -21 -98q0 -31 12 -60q14 -31 32 -46q51 -56 177 -58q156 1 246 95h-1q83 97 83 216z" />
    <glyph glyph-name="aring" unicode="&#xe5;" horiz-adv-x="985" 
d="M693 1292v-2q0 -85 -63 -151q-63 -63 -153 -63q-87 0 -152 63q-63 63 -64 151q0 49 19 89q17 36 46 65q69 62 151 63q91 -2 152 -63q64 -64 64 -152zM527 1242q19 19 19 49q0 33 -18 52t-51 19q-30 0 -48 -19q-22 -22 -23 -53q2 -26 24 -48q18 -20 47 -20q30 0 50 20z
M173 652h-36q-24 0 -40 16t-15 40q6 160 113 263q105 104 300 104q144 2 250 -67q110 -77 117 -257v-599h1q1 1 2 1q20 5 38 2q28 -4 41 -28q12 -23 0 -50v1q-17 -35 -49 -56t-67 -21q-88 0 -108 99q-13 -12 -47 -39q-119 -84 -280 -84q-156 0 -261 78q-108 87 -109 232
q0 104 36 170q32 60 94 102q69 40 123 50q60 13 122 15q9 2 29 2.5t21 0.5q2 0 6 0.5t5 0.5h-1l35 3q26 3 75 5h-1q67 6 103 17q26 8 37 20q10 13 10 49q0 38 -6 82q-6 25 -27 63q-16 23 -55 42q-55 19 -132 19q-250 -4 -269 -226q-2 -21 -18 -35.5t-37 -14.5zM717 435v77
q-38 -11 -87 -16q-107 -11 -225 -17q-51 -2 -95 -12q-46 -12 -79 -33q-29 -16 -42 -48q-21 -40 -21 -98q0 -31 12 -60q14 -31 32 -46q51 -56 177 -58q156 1 246 95h-1q83 97 83 216z" />
    <glyph glyph-name="ae" unicode="&#xe6;" horiz-adv-x="1821" 
d="M201 652h-37q-23 0 -39 16t-16 40q11 164 115 264q103 102 299 103q152 2 251 -67q54 -38 84 -108q43 54 82 85q114 89 275 90q248 -5 359 -175q101 -149 101 -347q0 -27 -1 -39q-1 -20 -17.5 -35t-36.5 -15h-726q17 -143 79 -232q71 -107 239 -108q123 0 210 67
q83 75 102 200q3 19 18.5 32.5t34.5 13.5h38q22 0 37.5 -19t16.5 -42q-23 -180 -141 -285q-126 -110 -316 -114q-271 6 -389 214q-43 -71 -108 -119q-127 -94 -294 -95q-155 0 -260 78q-109 88 -110 232q0 101 35 168q32 63 95 104q59 38 123 50q65 15 123 15q2 0 7 0.5
t9 0.5q3 0 7.5 0.5t5.5 0.5l45 3q69 6 93 7q73 6 102 16q22 7 38 21q11 19 11 49q0 43 -5 81q-6 32 -29 64q-15 24 -55 43q-54 18 -132 18q-245 -4 -269 -226q-2 -20 -18 -35t-36 -15zM897 610h630q-10 122 -77 215q-76 103 -235 103q-145 0 -226 -94v1q-70 -87 -92 -225z
M745 435v77q-26 -8 -87 -16q-108 -11 -226 -17q-54 -2 -94 -12t-79 -33q-29 -17 -45 -53q-17 -31 -17 -93q0 -30 16 -66q7 -20 33 -45q45 -52 172 -53q162 2 244 95q83 93 83 216z" />
    <glyph glyph-name="ccedilla" unicode="&#xe7;" 
d="M850 430h37q26 0 42 -18t13 -44q-43 -312 -320 -375q9 -4 16 -8q66 -40 67 -132q-1 -107 -80 -154q-58 -35 -155 -35q-55 0 -97 16v-2l-24 6q-11 3 -47 14q-23 8 -31.5 30.5t0.5 43.5q2 5 8 17.5t8 18.5q9 20 30 28t41 -1q48 -23 113 -25q40 0 73 16q13 6 15 27
q-1 4 -6 9h1q-19 9 -41 9q-43 0 -72 -16q-11 -6 -29 -6q-19 2 -31 9l-27 18q-24 16 -24 45q0 17 12 33l34 43q-75 15 -132 56q-47 31 -99 98q-117 150 -117 355q0 229 119 393q127 172 376 176q153 0 271 -90q115 -97 140 -267q2 -24 -14 -42.5t-40 -18.5h-37
q-19 0 -34.5 13.5t-19.5 32.5q-17 109 -90 170q-69 55 -175 55q-96 0 -163 -35q-69 -39 -105 -93q-83 -140 -82 -294q0 -161 86 -271q81 -110 241 -111q125 0 206 69h-1q77 66 90 188q2 20 18 34.5t36 14.5z" />
    <glyph glyph-name="egrave" unicode="&#xe8;" 
d="M794 84q-127 -106 -309 -107q-245 1 -357 165q-112 154 -111 384q6 267 145 403q136 146 323 146h13l-235 244q-17 20 -17 39q0 22 15.5 37.5t40.5 15.5h53q9 0 22.5 -6t19.5 -12v1q15 -18 99.5 -116t130.5 -150q13 -16 13 -38q0 -19 -13 -34q140 -40 223 -157
q104 -153 104 -346q0 -28 -1 -39q-2 -20 -18 -35t-36 -15h-733q12 -147 75 -234q68 -104 240 -106q257 1 316 269q3 18 18.5 31t34.5 13h37q26 0 42 -18.5t13 -43.5q-26 -185 -148 -291zM168 610h637q-12 129 -79 215q-79 101 -238 103q-130 -2 -220 -96q-79 -86 -100 -222z
" />
    <glyph glyph-name="eacute" unicode="&#xe9;" 
d="M794 84q-127 -106 -309 -107q-245 1 -357 165q-112 154 -111 384q6 267 145 403q84 90 188 125q-15 18 -15 37q0 22 16 39l243 265q6 5 19.5 10.5t20.5 5.5h53q25 0 40.5 -15.5t15.5 -37.5t-18 -40l-246 -243h6q244 -4 365 -176q104 -153 104 -346q0 -28 -1 -39
q-2 -20 -18 -35t-36 -15h-733q12 -147 75 -234q68 -104 240 -106q257 1 316 269q3 18 18.5 31t34.5 13h37q26 0 42 -18.5t13 -43.5q-26 -185 -148 -291zM168 610h637q-12 129 -79 215q-79 101 -238 103q-130 -2 -220 -96q-79 -86 -100 -222z" />
    <glyph glyph-name="ecircumflex" unicode="&#xea;" 
d="M711 1047h-37q-8 0 -22 6.5t-19 13.5q-1 2 -147 173q-6 -9 -17 -21q-99 -120 -123 -151q-24 -21 -43 -21h-36q-25 0 -40.5 16t-15.5 37q0 18 12 35l208 256q5 6 20.5 13t23.5 7h26q8 0 23 -6.5t20 -12.5l210 -256q13 -16 13 -36q0 -21 -15.5 -37t-40.5 -16zM899 464h-733
q12 -147 75 -234q68 -104 240 -106q257 1 316 269q3 18 18.5 31t34.5 13h37q26 0 42 -18.5t13 -43.5q-26 -185 -148 -291q-127 -106 -309 -107q-245 1 -357 165q-112 154 -111 384q6 267 145 403q136 146 323 146q244 -4 365 -176q104 -153 104 -346q0 -28 -1 -39
q-2 -20 -18 -35t-36 -15zM168 610h637q-12 129 -79 215q-79 101 -238 103q-130 -2 -220 -96q-79 -86 -100 -222z" />
    <glyph glyph-name="edieresis" unicode="&#xeb;" 
d="M794 84q-127 -106 -309 -107q-245 1 -357 165q-112 154 -111 384q6 267 145 403q71 76 160 115q-21 2 -34.5 17.5t-13.5 36.5v148q0 24 16 39.5t39 15.5h37q23 0 39 -15.5t16 -39.5v-148q0 -16 -8 -29q35 6 72 6t84 -7q-8 13 -8 30v148q0 24 15.5 39.5t38.5 15.5h37
q23 0 38.5 -15.5t15.5 -39.5v-148q0 -20 -12 -35t-31 -19q115 -43 187 -145q104 -153 104 -346q0 -28 -1 -39q-2 -20 -18 -35t-36 -15h-733q12 -147 75 -234q68 -104 240 -106q257 1 316 269q3 18 18.5 31t34.5 13h37q26 0 42 -18.5t13 -43.5q-26 -185 -148 -291zM168 610
h637q-12 129 -79 215q-79 101 -238 103q-130 -2 -220 -96q-79 -86 -100 -222z" />
    <glyph glyph-name="igrave" unicode="&#xec;" horiz-adv-x="266" 
d="M197 55q0 -23 -16 -39t-39 -16h-36q-24 0 -39.5 16t-15.5 39v943q0 23 15.5 39t39.5 16h36q7 0 10 -1l-2 2l-256 265q-17 17 -17 39t15.5 37.5t40.5 15.5h54q8 0 22 -6t19 -11l231 -266q14 -19 14 -38q0 -21 -15.5 -36.5t-40.5 -15.5h-28q-3 0 -11 2q19 -14 19 -42v-943z
" />
    <glyph glyph-name="iacute" unicode="&#xed;" horiz-adv-x="266" 
d="M270 1411h53q25 0 40 -15.5t15 -37.5q0 -23 -17 -40l-269 -266q-5 -5 -18 -9.5t-19 -4.5h-29q-25 0 -40.5 15.5t-15.5 36.5q0 23 17 40l242 265q5 5 19 10.5t22 5.5zM148 0h-37q-23 0 -38.5 16t-15.5 39v943q0 23 15.5 39t38.5 16h37q23 0 38.5 -16t15.5 -39v-943
q0 -23 -15.5 -39t-38.5 -16z" />
    <glyph glyph-name="icircumflex" unicode="&#xee;" horiz-adv-x="266" 
d="M348 1047h-38q-8 0 -22 6.5t-19 13.5q-31 38 -146 173q-4 -4 -10 -11.5t-8 -9.5q-65 -79 -122 -152q-5 -6 -20 -13t-24 -7h-36q-25 0 -40.5 16t-15.5 37q0 19 13 35l208 256q5 6 20 13t23 7h27q5 0 23 -6q14 -7 20 -13l209 -256q14 -17 14 -36q0 -21 -15.5 -37t-40.5 -16
zM144 0h-36q-23 0 -39 16t-16 39v943q0 23 16 39t39 16h36q24 0 39.5 -16t15.5 -39v-943q0 -23 -15.5 -39t-39.5 -16z" />
    <glyph glyph-name="idieresis" unicode="&#xef;" horiz-adv-x="266" 
d="M0 1043h-36q-24 0 -39.5 16t-15.5 39v148q0 24 15.5 39.5t39.5 15.5h36q24 0 39.5 -15.5t15.5 -39.5v-148q0 -23 -15.5 -39t-39.5 -16zM287 1043h-38q-23 0 -38.5 16t-15.5 39v148q0 24 15.5 39.5t38.5 15.5h38q23 0 38.5 -15.5t15.5 -39.5v-148q0 -23 -15.5 -39
t-38.5 -16zM144 0h-36q-23 0 -39 16t-16 39v943q0 23 16 39t39 16h36q24 0 39.5 -16t15.5 -39v-943q0 -23 -15.5 -39t-39.5 -16z" />
    <glyph glyph-name="eth" unicode="&#xf0;" horiz-adv-x="1063" 
d="M235 1170l148 81q-37 24 -97 55q-29 18 -29 47q0 28 22 44l29 26q11 9 30 11t31 -5q95 -53 158 -101q13 7 26.5 14.5t29.5 17t26 15.5q20 11 56 31.5t54 29.5q16 8 36 5t31 -16h-1q4 -5 13.5 -14.5t13.5 -15.5q16 -20 16 -38q0 -31 -29 -48l-154 -87q342 -338 338 -713
q0 -208 -119 -364q-127 -162 -362 -166q-231 4 -356 166q-123 157 -123 365q0 209 123 366q127 159 357 163q60 0 125 -13l-2 1q-80 90 -119 124l-65 -35q-103 -59 -125 -71q-14 -8 -34 -5t-31 15q-5 5 -14.5 14t-13.5 13q-17 20 -17 40q0 32 28 48zM259 781
q-89 -112 -89 -271q0 -158 89 -273q84 -107 244 -111q168 6 248 111q87 112 87 273q0 162 -87 271q-83 109 -247 113q-164 -4 -245 -113z" />
    <glyph glyph-name="ntilde" unicode="&#xf1;" 
d="M219 55q0 -23 -16 -39t-38 -16h-38q-23 0 -38.5 16t-15.5 39v943q0 23 15.5 39t38.5 16h38q22 0 38 -16t16 -39v-33q3 3 9 8t10 8l2 1l3 3l6 6q107 84 259 84q38 0 57 -3q-28 7 -50 19q-12 8 -33.5 21.5t-30.5 19.5q-2 2 -22 16q-4 4 -13 9.5t-12 8.5q-25 7 -33 8
q-14 -6 -19 -13q-14 -19 -14 -40q0 -24 -15.5 -39.5t-39.5 -15.5h-36q-23 0 -39.5 16t-15.5 39q1 73 52 131q55 67 127 68q46 0 87 -22q42 -20 62 -35l2 -2q12 -9 58 -38v1q19 -11 24 -11q16 0 24 11q12 16 12 35q0 23 15.5 39t38.5 16h37q23 0 39 -16t16 -39
q0 -69 -41 -128q-53 -63 -141 -63h-11q113 -18 195 -95q109 -102 110 -293v-625q0 -23 -16 -39t-39 -16h-37q-23 0 -39 16t-16 39v620q-2 138 -67 194q-69 59 -175 59q-137 -4 -213 -95q-77 -111 -77 -244v-534z" />
    <glyph glyph-name="ograve" unicode="&#xf2;" horiz-adv-x="1063" 
d="M864 150q-124 -169 -362 -173q-229 4 -357 173q-122 170 -122 376q0 216 122 378q125 167 359 171q11 0 16 -1l-236 245q-17 23 -17 40q0 22 15.5 37t40.5 15h54q8 0 22 -6t19 -11l231 -266q13 -19 13 -38q0 -21 -15 -36q132 -37 217 -150q119 -160 119 -378
q0 -214 -119 -376zM260 812q-90 -123 -90 -286q0 -166 90 -286q82 -112 243 -116q167 6 248 117q87 116 87 285q0 168 -87 286q-82 112 -247 116q-162 -4 -244 -116z" />
    <glyph glyph-name="oacute" unicode="&#xf3;" horiz-adv-x="1063" 
d="M864 150q-124 -169 -362 -173q-229 4 -357 173q-122 170 -122 376q0 216 122 378q86 115 225 153q-13 15 -13 34q0 22 16 39l242 265q5 5 19 10.5t21 5.5h53q25 0 40.5 -15.5t15.5 -37.5t-17 -40l-246 -243h3q235 -4 360 -171q119 -160 119 -378q0 -214 -119 -376z
M260 812q-90 -123 -90 -286q0 -166 90 -286q82 -112 243 -116q167 6 248 117q87 116 87 285q0 168 -87 286q-82 112 -247 116q-162 -4 -244 -116z" />
    <glyph glyph-name="ocircumflex" unicode="&#xf4;" horiz-adv-x="1063" 
d="M733 1047h-37q-9 0 -23.5 7t-18.5 13q-31 38 -146 173q-10 -10 -17 -21q-59 -70 -123 -152q-5 -6 -20 -13t-23 -7h-37q-25 0 -40.5 16t-15.5 37q0 17 13 35l208 256q7 7 21 13q14 7 22 7h27q8 0 23 -6.5t20 -12.5l209 -256q14 -17 14 -36q0 -21 -15.5 -37t-40.5 -16z
M145 150q-122 170 -122 376q0 216 122 378q125 167 359 171q235 -4 360 -171q119 -160 119 -378q0 -214 -119 -376q-124 -169 -362 -173q-229 4 -357 173zM260 812q-90 -123 -90 -286q0 -166 90 -286q82 -112 243 -116q167 6 248 117q87 116 87 285q0 168 -87 286
q-82 112 -247 116q-162 -4 -244 -116z" />
    <glyph glyph-name="otilde" unicode="&#xf5;" horiz-adv-x="1063" 
d="M305 1066h-36q-23 0 -39.5 16t-15.5 39q1 76 52 131q55 67 126 68q45 0 88 -22q42 -20 62 -35l2 -2q17 -13 57 -38v1q20 -11 25 -11q17 0 23 11q12 16 12 35q0 23 15.5 39t38.5 16h38q22 0 38 -16t16 -39q0 -71 -41 -128q-50 -63 -140 -63q-46 0 -90 23q-13 8 -34.5 22
t-29.5 19q-7 5 -17 13q-5 4 -14 11t-14 10l1 -1q-21 8 -36 9q-10 -1 -18 -13q-14 -19 -14 -40q0 -24 -16 -39.5t-39 -15.5zM145 150q-122 170 -122 376q0 216 122 378q125 167 359 171q235 -4 360 -171q119 -160 119 -378q0 -214 -119 -376q-124 -169 -362 -173
q-229 4 -357 173zM260 812q-90 -123 -90 -286q0 -166 90 -286q82 -112 243 -116q167 6 248 117q87 116 87 285q0 168 -87 286q-82 112 -247 116q-162 -4 -244 -116z" />
    <glyph glyph-name="odieresis" unicode="&#xf6;" horiz-adv-x="1063" 
d="M864 150q-124 -169 -362 -173q-229 4 -357 173q-122 170 -122 376q0 216 122 378q74 100 189 142q-38 12 -38 52v148q0 24 16 39.5t39 15.5h36q24 0 39.5 -15.5t15.5 -39.5v-148q0 -14 -7 -28q35 5 69 5q42 0 87 -8q-9 16 -9 31v148q0 24 15.5 39.5t39.5 15.5h36
q23 0 39 -15.5t16 -39.5v-148q0 -21 -14 -36.5t-34 -18.5q109 -40 184 -139q119 -160 119 -378q0 -214 -119 -376zM260 812q-90 -123 -90 -286q0 -166 90 -286q82 -112 243 -116q167 6 248 117q87 116 87 285q0 168 -87 286q-82 112 -247 116q-162 -4 -244 -116z" />
    <glyph glyph-name="divide" unicode="&#xf7;" horiz-adv-x="1229" 
d="M583 778h-2q-129 1 -129 131q1 128 131 128q123 -6 129 -127q2 -131 -129 -132zM1045 447h-926q-22 0 -38.5 15t-16.5 38v38q0 22 16.5 38.5t38.5 16.5h926q23 0 38.5 -16.5t15.5 -38.5v-38q0 -23 -15.5 -38t-38.5 -15zM583 0h-2q-129 1 -129 131q1 128 131 129
q123 -7 129 -128q2 -131 -129 -132z" />
    <glyph glyph-name="oslash" unicode="&#xf8;" horiz-adv-x="1063" 
d="M812 959l42 45q16 16 39 16q22 0 39 -16l25 -27q16 -16 16 -38q0 -17 -15 -38q-18 -18 -56 -58q80 -130 80 -317q0 -210 -119 -376q-128 -169 -361 -173q-192 4 -314 119q-23 -23 -63 -65q-20 -16 -39 -16q-20 0 -38 15l-27 27q-15 18 -15 38q0 23 15 38l80 84
q-78 137 -78 309q0 216 121 378q124 166 359 171q187 -1 309 -116zM207 329l502 524q-76 70 -206 75q-163 -4 -243 -116q-90 -123 -90 -286q0 -112 37 -197zM794 732l-503 -528q82 -79 212 -80q162 4 247 117q87 121 87 285q0 107 -43 206z" />
    <glyph glyph-name="ugrave" unicode="&#xf9;" 
d="M517 1053l-256 266q-17 20 -17 39q0 22 15.5 37.5t40.5 15.5h54q16 0 41 -18v1q15 -18 99.5 -116t130.5 -150q14 -19 14 -38q0 -21 -15.5 -36.5t-40.5 -15.5h-28q-7 0 -20 5t-18 10zM898 998v-943q0 -23 -16 -39t-39 -16h-37q-23 0 -39 16t-16 39v30q-4 -3 -26 -21
q-108 -86 -262 -87q-164 2 -277 105q-113 107 -113 290v626q0 23 15.5 39t38.5 16h38q22 0 38 -16t16 -39v-621q0 -133 69 -193q71 -60 175 -60q141 1 213 100q75 97 75 240v534q0 23 16 39t39 16h37q23 0 39 -16t16 -39z" />
    <glyph glyph-name="uacute" unicode="&#xfa;" 
d="M636 1411h53q25 0 40.5 -15.5t15.5 -37.5t-18 -40l-268 -265q-5 -5 -18.5 -10t-19.5 -5h-28q-25 0 -40.5 16t-15.5 37q0 22 16 39l242 265q5 5 19 10.5t22 5.5zM898 998v-943q0 -23 -16 -39t-39 -16h-37q-23 0 -39 16t-16 39v30q-4 -3 -26 -21q-108 -86 -262 -87
q-164 2 -277 105q-113 107 -113 290v626q0 23 15.5 39t38.5 16h38q22 0 38 -16t16 -39v-621q0 -133 69 -193q71 -60 175 -60q141 1 213 100q75 97 75 240v534q0 23 16 39t39 16h37q23 0 39 -16t16 -39z" />
    <glyph glyph-name="ucircumflex" unicode="&#xfb;" 
d="M713 1047h-37q-9 0 -23 7t-18 13q-1 2 -147 173q-4 -4 -9 -11t-8 -10q-59 -70 -123 -152q-5 -6 -19.5 -13t-23.5 -7h-36q-25 0 -40.5 16t-15.5 37q0 18 12 35l208 256q5 6 20.5 13t23.5 7h26q8 0 23 -6.5t20 -12.5l209 -256q14 -17 14 -36q0 -21 -15.5 -37t-40.5 -16z
M898 998v-943q0 -23 -16 -39t-39 -16h-37q-23 0 -39 16t-16 39v30q-4 -3 -26 -21q-108 -86 -262 -87q-164 2 -277 105q-113 107 -113 290v626q0 23 15.5 39t38.5 16h38q22 0 38 -16t16 -39v-621q0 -133 69 -193q71 -60 175 -60q141 1 213 100q75 97 75 240v534q0 23 16 39
t39 16h37q23 0 39 -16t16 -39z" />
    <glyph glyph-name="udieresis" unicode="&#xfc;" 
d="M366 1043h-37q-23 0 -39 16t-16 39v148q0 24 16 39.5t39 15.5h37q23 0 39 -15.5t16 -39.5v-148q0 -23 -16 -39t-39 -16zM652 1043h-37q-23 0 -38.5 16t-15.5 39v148q0 24 15.5 39.5t38.5 15.5h37q23 0 38.5 -15.5t15.5 -39.5v-148q0 -23 -15.5 -39t-38.5 -16zM898 998
v-943q0 -23 -16 -39t-39 -16h-37q-23 0 -39 16t-16 39v30q-4 -3 -26 -21q-108 -86 -262 -87q-164 2 -277 105q-113 107 -113 290v626q0 23 15.5 39t38.5 16h38q22 0 38 -16t16 -39v-621q0 -133 69 -193q71 -60 175 -60q141 1 213 100q75 97 75 240v534q0 23 16 39t39 16h37
q23 0 39 -16t16 -39z" />
    <glyph glyph-name="yacute" unicode="&#xfd;" horiz-adv-x="834" 
d="M548 1450h53q25 0 40.5 -15.5t15.5 -37.5t-17 -40l-268 -264q-6 -5 -19.5 -10t-19.5 -5h-27q-25 0 -40.5 15.5t-15.5 37.5q0 21 16 38l242 265q5 5 19 10.5t21 5.5zM411 252l289 767q5 13 21 23.5t31 10.5h39q30 0 45 -22q16 -26 6 -53l-435 -1136q-43 -115 -133 -147
q-72 -22 -170 -20q-23 1 -38 16.5t-15 38.5v37q0 23 15.5 38.5t39.5 15.5q3 0 8 -0.5t7 -0.5h14q58 0 89 14q27 17 52 74q15 41 34 88q11 28 25 67q-29 70 -93.5 221t-98.5 233q-33 77 -97 229.5t-97 229.5q-10 26 6 52q15 25 44 25h40q14 0 29 -10.5t21 -22.5z" />
    <glyph glyph-name="thorn" unicode="&#xfe;" horiz-adv-x="1100" 
d="M903 152q-114 -171 -354 -175q-112 4 -191 35t-136 97v-379q0 -23 -16 -39t-39 -16h-36q-24 0 -39.5 16t-15.5 39v1635q0 23 15.5 39t39.5 16h36q23 0 39 -16t16 -39v-426q21 25 43 42q114 93 284 94q224 0 344 -159q112 -149 112 -388q0 -218 -102 -376zM846 377
q13 72 13 151q0 164 -76 290l1 -1q-72 107 -235 111q-162 -5 -242 -111q-85 -130 -85 -289q2 -201 93 -301q89 -103 234 -103q84 0 149 34v-1q61 38 91 89q38 58 57 131z" />
    <glyph glyph-name="ydieresis" unicode="&#xff;" horiz-adv-x="834" 
d="M278 1082h-36q-23 0 -39 16t-16 39v149q0 23 16 39t39 16h36q24 0 39.5 -16t15.5 -39v-149q0 -23 -15.5 -39t-39.5 -16zM564 1082h-36q-24 0 -39.5 16t-15.5 39v149q0 23 15.5 39t39.5 16h36q23 0 39 -16t16 -39v-149q0 -23 -16 -39t-39 -16zM411 252l289 767
q5 13 21 23.5t31 10.5h39q30 0 45 -22q16 -26 6 -53l-435 -1136q-43 -115 -133 -147q-72 -22 -170 -20q-23 1 -38 16.5t-15 38.5v37q0 23 15.5 38.5t39.5 15.5q3 0 8 -0.5t7 -0.5h14q58 0 89 14q27 17 52 74q15 41 34 88q11 28 25 67q-29 70 -93.5 221t-98.5 233
q-33 77 -97 229.5t-97 229.5q-10 26 6 52q15 25 44 25h40q14 0 29 -10.5t21 -22.5z" />
    <glyph glyph-name="OE" unicode="&#x152;" horiz-adv-x="2087" 
d="M1190 835h635q24 0 40 -16.5t16 -40.5v-38q0 -24 -16 -39.5t-40 -15.5h-635v-535h726q23 0 39 -16.5t16 -39.5v-38q0 -23 -16 -39.5t-39 -16.5h-821q-24 0 -39.5 16t-15.5 40v7q-149 -97 -317 -96q-327 6 -505 231q-173 219 -173 526q0 305 170 535q184 230 508 236
q180 1 317 -91v2q0 24 15.5 40t39.5 16h821q23 0 39 -16.5t16 -39.5v-38q0 -23 -16 -39.5t-39 -16.5h-726v-477zM1040 255v957q-134 134 -316 133q-243 -2 -380 -165q-144 -171 -150 -456q6 -266 146 -438q135 -168 384 -169q33 0 82 11q41 8 89 28q77 30 145 99z" />
    <glyph glyph-name="oe" unicode="&#x153;" horiz-adv-x="1823" 
d="M1618 464h-682q10 -162 86.5 -247t211.5 -93q141 5 195 72q72 80 85 184q4 19 20 33t34 14h38q26 0 41 -18.5t12 -45.5q-29 -173 -133 -273q-113 -113 -294 -113q-269 4 -371 201q-53 -99 -142.5 -147.5t-225.5 -53.5q-236 4 -344 182h1q-101 157 -99 366q-4 197 95 369
q110 177 346 181q172 -1 287 -104q44 -40 83 -106q31 55 75 101q104 101 295 109q231 -4 340 -165q100 -149 100 -363v-28q0 -23 -15.5 -39t-38.5 -16zM938 610h587q-7 128 -70 217q-65 99 -220 101q-160 -1 -224 -97v1q-60 -93 -73 -222zM723 237q67 117 66 289
q0 163 -68 290q-64 108 -228 112q-159 -4 -222 -112q-74 -123 -74 -290q-1 -151 73 -283h-1q40 -57 91 -87q53 -32 132 -32q77 2 136.5 32.5t95.5 80.5h-1z" />
    <glyph glyph-name="Scaron" unicode="&#x160;" horiz-adv-x="1251" 
d="M383 1873h37q9 0 24 -6.5t20 -13.5l151 -180q2 3 35 44q32 39 109 135q5 7 20 14t24 7h38q25 0 41 -15.5t16 -38.5q0 -19 -14 -36l-214 -264v1q-5 -8 -20 -15q-16 -7 -24 -7h-27q-10 0 -25 6.5t-20 12.5l-216 265q-13 20 -13 36q0 22 16.5 38.5t41.5 16.5zM1065 973h-38
q-22 0 -38.5 15.5t-17.5 38.5q-7 172 -107 247q-105 73 -276 71q-134 1 -255 -59q-51 -27 -79 -75q-32 -43 -32 -121q0 -74 29 -109q37 -46 86 -73h-1q58 -28 139 -46q23 -6 67.5 -17t55.5 -14h-1q7 -2 21.5 -6.5t22.5 -6.5v1q125 -28 187 -45q78 -23 158 -69
q72 -42 120 -121q41 -74 41 -198q-5 -221 -178 -324q-155 -95 -353 -95q-247 0 -416 127q-78 68 -122.5 173.5t-45.5 236.5q0 24 16 40t40 16h38q23 0 39.5 -16.5t16.5 -39.5q1 -210 115 -295q121 -93 319 -92q140 0 270 70q107 65 111 202q0 84 -32 131q-37 50 -93 75
q-64 31 -140 48q-73 19 -162 37q-15 3 -41 9q-40 9 -87 22q-26 8 -38 11q-83 23 -159 62q-83 47 -123 117l1 -1q-51 79 -51 190q0 119 51 198l-1 -1q48 78 128 127q80 47 166 65q81 16 172 16q226 2 368 -102q148 -110 165 -361q-1 -24 -17 -41.5t-39 -17.5z" />
    <glyph glyph-name="scaron" unicode="&#x161;" horiz-adv-x="948" 
d="M231 1450h37q8 0 21.5 -6.5t19.5 -12.5q87 -105 147 -175q51 61 140 174q7 6 21 13t22 7h36q25 0 40.5 -15t15.5 -37q0 -17 -12 -35q-34 -42 -104 -128.5t-104 -128.5q-5 -6 -20 -13t-24 -7h-26q-8 0 -23 6.5t-20 12.5l-210 257q-13 20 -13 35q0 22 15.5 37.5t40.5 15.5z
M776 664h-36q-22 0 -38.5 16.5t-16.5 37.5q-2 119 -63 161q-66 49 -187 49q-82 0 -133 -18q-38 -18 -63 -46q-20 -25 -25 -48q-8 -30 -8 -33q0 -49 19 -74q19 -29 50 -40q103 -35 235 -66q69 -16 113 -31q64 -18 111 -49v1q61 -36 91 -90q32 -59 32 -140q-4 -166 -136 -248
q-115 -69 -261 -69q-435 -1 -436 400q0 23 15.5 39t39.5 16h36q22 0 38.5 -15.5t16.5 -38.5q2 -129 73.5 -192t216.5 -62q97 0 178 45q69 36 73 124q0 42 -15 69q-17 27 -57 45q-43 22 -94 38q-10 3 -26.5 8t-26.5 7q-20 2 -32 5q-5 1 -15 2t-16 3q-137 34 -221 69
q-147 60 -147 244q0 108 89 197q56 48 120 71q65 24 165 24q187 1 287.5 -91t108.5 -265q-2 -21 -18 -38t-37 -17z" />
    <glyph glyph-name="Ydieresis" unicode="&#x178;" horiz-adv-x="1102" 
d="M412 1452h-37q-24 0 -40.5 16.5t-16.5 39.5v153q0 25 16.5 41t40.5 16h37q25 0 40.5 -15.5t15.5 -41.5v-153q0 -24 -15.5 -40t-40.5 -16zM707 1452h-38q-24 0 -40 16.5t-16 39.5v153q0 25 16 41t40 16h38q24 0 40 -16t16 -41v-153q0 -23 -16 -39.5t-40 -16.5zM529 763
l475 675l-1 -1q5 9 20 17t26 8h46q25 0 41 -16t16 -38q0 -20 -11 -35l-537 -766v-551q0 -23 -16 -39.5t-40 -16.5h-37q-25 0 -41 16t-16 40v551q-193 277 -535 766q-11 17 -11 35q0 22 16 38t41 16h46q11 0 25.5 -7.5t21.5 -16.5z" />
    <glyph glyph-name="Zcaron" unicode="&#x17d;" 
d="M263 1872h37q9 0 24 -6.5t20 -13.5l151 -181q36 44 144 180q6 8 20 14q16 7 24 7h37q26 0 42 -16t16 -38q0 -20 -13 -36l-214 -265q-5 -6 -20.5 -13t-24.5 -7h-27q-21 0 -44 20l-216 264q-14 19 -14 37q0 22 16 38t42 16zM132 150h847q24 0 40 -16.5t16 -39.5v-38
q0 -23 -16 -39.5t-40 -16.5h-995q-25 0 -41 16t-16 40v69l887 1187h-778q-24 0 -40 16.5t-16 39.5v38q0 23 16 39.5t40 16.5h928q25 0 40.5 -16t15.5 -40v-69z" />
    <glyph glyph-name="florin" unicode="&#x192;" horiz-adv-x="1139" 
d="M587 755l-160 -811q-7 -41 -32 -95q-23 -47 -49 -84q-76 -89 -204 -90q-56 0 -104 12q-22 7 -34 26t-7 40l9 37q5 23 25.5 35.5t42.5 4.5q27 -9 62 -9q69 2 97 37h-1q38 42 49 114l167 848q2 6 4 18.5t4 18.5q36 186 45 231q21 102 26 127q27 121 100 178.5t196 56.5
q66 0 113 -12q20 -5 32 -24t9 -39q-1 -6 -3 -17.5t-4 -17.5q-4 -23 -23 -36t-42 -9q-29 8 -86 10q-59 0 -94 -22l-3 -3q-32 -26 -51 -108q-7 -32 -16.5 -79t-12.5 -63q-4 -23 -12.5 -63.5t-13.5 -65.5h167q26 0 42 -19t12 -45l-8 -37v1q-3 -20 -18.5 -33t-34.5 -13h-189z
" />
    <glyph glyph-name="circumflex" unicode="&#x2c6;" horiz-adv-x="266" 
d="M349 1086h-38q-8 0 -22 6.5t-19 13.5q-25 31 -73 87.5t-74 87.5q-11 -13 -31.5 -39t-31.5 -40q-9 -12 -36 -45.5t-40 -50.5q-5 -6 -20 -13t-24 -7h-36q-25 0 -40.5 16t-15.5 37q0 20 13 36l208 255q7 6 21 13t22 7h27q9 0 23 -6q14 -7 20 -13l209 -255q14 -19 14 -37
q0 -21 -15.5 -37t-40.5 -16z" />
    <glyph glyph-name="tilde" unicode="&#x2dc;" horiz-adv-x="266" 
d="M-79 1105h-37q-23 0 -39.5 16.5t-15.5 39.5q1 74 52 130q53 67 127 68q46 0 87 -21q41 -20 62 -36l2 -2q54 -33 55 -34q18 -13 28 -13q17 0 23 10q12 17 12 35q0 24 15.5 39.5t38.5 15.5h37q23 0 38.5 -15.5t15.5 -39.5q0 -69 -40 -128q-52 -63 -140 -63q-46 0 -91 25
q-37 21 -63 40q-8 6 -10 8q-4 3 -15.5 12t-20.5 14q-13 6 -31 8q-16 -6 -22 -14q-13 -17 -13 -40t-16 -39t-39 -16z" />
    <glyph glyph-name="endash" unicode="&#x2013;" 
d="M-28 528v36q0 24 15.5 39.5t38.5 15.5h918q23 0 39 -15.5t16 -39.5v-36q0 -23 -16 -39t-39 -16h-918q-23 0 -38.5 16t-15.5 39z" />
    <glyph glyph-name="emdash" unicode="&#x2014;" horiz-adv-x="2048" 
d="M1705 564v-36q0 -23 -16.5 -39t-38.5 -16h-1359q-23 0 -38.5 16t-15.5 39v36q0 24 15.5 39.5t38.5 15.5h1359q22 0 38.5 -16t16.5 -39z" />
    <glyph glyph-name="quoteleft" unicode="&#x2018;" horiz-adv-x="342" 
d="M180 897h-36q-23 0 -39 16t-16 39v217q0 102 24 158q25 57 91 87q28 8 52 -6q25 -15 25 -43v-37q0 -10 -8 -25t-17 -21q-22 -24 -21 -113v-217q0 -23 -15.5 -39t-39.5 -16z" />
    <glyph glyph-name="quoteright" unicode="&#x2019;" horiz-adv-x="342" 
d="M144 1420h36q23 0 38.5 -16t15.5 -39v-216q0 -107 -21 -155q-25 -60 -92 -91q-29 -12 -53 2q-25 15 -25 47v36q0 11 9 26.5t19 22.5q7 4 11 20v-1q7 32 7 93v216q0 23 16 39t39 16z" />
    <glyph glyph-name="quotesinglbase" unicode="&#x201a;" horiz-adv-x="342" 
d="M141 290h37q23 0 38.5 -16t15.5 -39v-180q2 -191 -106 -264q-15 -11 -33 -11q-22 0 -37 15.5t-15 40.5v36q0 23 17 40q15 11 20 40q9 30 9 103v180q0 23 15.5 39t38.5 16z" />
    <glyph glyph-name="quotedblleft" unicode="&#x201c;" horiz-adv-x="569" 
d="M389 897h-37q-23 0 -38.5 16t-15.5 39v217q0 107 23 158q29 59 91 87q29 13 54 -2q24 -14 24 -47v-37q0 -11 -8.5 -25.5t-17.5 -20.5v1q-21 -13 -21 -114v-217q0 -23 -15.5 -39t-38.5 -16zM205 897h-36q-24 0 -39.5 16t-15.5 39v217q0 101 24 163q30 56 91 82
q28 13 53 -2q24 -14 24 -47v-37q0 -10 -8.5 -25t-16.5 -21q-22 -24 -21 -113v-217q0 -23 -16 -39t-39 -16z" />
    <glyph glyph-name="quotedblright" unicode="&#x201d;" horiz-adv-x="569" 
d="M334 1420h36q24 0 39.5 -16t15.5 -39v-216q0 -105 -21 -155q-25 -58 -91 -90q-29 -16 -54 -1q-25 14 -25 49v36q0 11 8 26t16 21q11 5 15 20q6 46 6 94v216q0 23 16 39t39 16zM150 1420h38q23 0 39 -16t16 -39v-216q0 -104 -22 -155q-31 -63 -93 -91q-30 -13 -54 2
q-25 15 -25 47v36q0 11 9.5 26.5t19.5 22.5q7 4 13 20l-1 -1q6 46 6 93v216q0 23 15.5 39t38.5 16z" />
    <glyph glyph-name="quotedblbase" unicode="&#x201e;" horiz-adv-x="569" 
d="M334 290h36q24 0 39.5 -16t15.5 -39v-180q1 -189 -106 -264q-12 -11 -33 -11q-22 0 -37 15.5t-15 40.5v36q0 8 6 21.5t11 18.5q13 13 20 40q8 38 8 103v180q0 23 16 39t39 16zM151 290h37q23 0 39 -16t16 -39v-180q1 -188 -106 -264q-12 -11 -34 -11t-38 15.5t-16 40.5
v36q0 8 6 21t12 19q15 14 21 38q8 43 8 105v180q0 23 16 39t39 16z" />
    <glyph glyph-name="dagger" unicode="&#x2020;" horiz-adv-x="1139" 
d="M521 1420h38q23 0 38.5 -16t15.5 -39v-391h327q23 0 38.5 -15.5t15.5 -38.5v-37q0 -23 -15.5 -39t-38.5 -16h-327v-1030q0 -24 -15.5 -39.5t-38.5 -15.5h-38q-23 0 -39 15.5t-16 39.5v1030h-326q-24 0 -39.5 16t-15.5 39v37q0 23 15.5 38.5t39.5 15.5h326v391q0 23 16 39
t39 16z" />
    <glyph glyph-name="daggerdbl" unicode="&#x2021;" horiz-adv-x="1139" 
d="M466 105h-326q-24 0 -39.5 16t-15.5 39v36q0 24 15.5 39.5t39.5 15.5h326v662h-326q-24 0 -39.5 15.5t-15.5 38.5v37q0 23 15.5 38.5t39.5 15.5h326v307q0 23 16 39t39 16h38q23 0 38.5 -16t15.5 -39v-307h327q23 0 38.5 -15.5t15.5 -38.5v-37q0 -23 -15.5 -38.5
t-38.5 -15.5h-327v-662h327q23 0 38.5 -15.5t15.5 -39.5v-36q0 -23 -15.5 -39t-38.5 -16h-327v-307q0 -24 -15.5 -39.5t-38.5 -15.5h-38q-23 0 -39 15.5t-16 39.5v307z" />
    <glyph glyph-name="bullet" unicode="&#x2022;" 
d="M217 441q-112 106 -113 269q1 159 114 272q112 108 267 109q165 -1 272 -110q111 -108 112 -271q-1 -158 -112 -269q-108 -113 -272 -114q-160 1 -268 114z" />
    <glyph glyph-name="ellipsis" unicode="&#x2026;" horiz-adv-x="2048" 
d="M432 235v-180q0 -23 -15.5 -39t-39.5 -16h-36q-23 0 -38.5 16t-15.5 39v180q0 23 15.5 39t38.5 16h36q24 0 39.5 -16t15.5 -39zM1043 235v-180q0 -23 -16 -39t-38 -16h-38q-23 0 -38.5 16t-15.5 39v180q0 23 15.5 39t38.5 16h38q22 0 38 -16t16 -39zM1654 235v-180
q0 -23 -15.5 -39t-38.5 -16h-37q-23 0 -38.5 16t-15.5 39v180q0 23 15.5 39t38.5 16h37q23 0 38.5 -16t15.5 -39z" />
    <glyph glyph-name="perthousand" unicode="&#x2030;" horiz-adv-x="2124" 
d="M172 21l874 1374q7 9 21 17t25 8h42q32 0 48 -28q14 -29 -3 -56q-40 -63 -195.5 -307.5t-240.5 -379.5q-172 -268 -437 -687q-7 -9 -21.5 -17t-24.5 -8h-42q-34 0 -48 28q-15 27 2 56zM117 760q-78 102 -78 247q0 169 87 265l-1 -1q90 108 246 108q162 0 257 -108
q83 -103 83 -262q0 -145 -83 -254q-95 -110 -256 -112q-167 1 -255 117zM232 1177q-48 -67 -48 -170q0 -92 49 -158q46 -60 140 -60q95 0 143 60q50 66 50 158q0 104 -48 170q-48 52 -145 57q-100 -1 -141 -57zM1891 92q-96 -114 -257 -115q-166 4 -254 118q-60 80 -73 174
q-18 -99 -77 -177q-96 -114 -257 -115q-162 4 -254 118q-79 118 -79 248q0 161 87 264q47 47 111 77q69 31 135 31q168 -1 257 -109q64 -77 77 -182q18 111 80 183q47 47 113 77t134 31q169 -1 257 -109q83 -99 83 -261q0 -144 -83 -253zM834 512q-47 -64 -47 -169
q0 -98 48 -158q43 -60 138 -61q100 2 144 62q49 59 49 157q0 106 -46 169q-44 55 -147 57q-100 -5 -139 -57zM1494 512q-47 -68 -47 -169q0 -95 48 -158q44 -59 141 -61q97 2 142 62q50 63 50 157q0 108 -47 170v-1q-47 56 -147 57q-97 -1 -140 -57z" />
    <glyph glyph-name="guilsinglleft" unicode="&#x2039;" horiz-adv-x="530" 
d="M279 244l-200 269v65l200 271q18 23 44 23q22 0 38 -15.5t16 -40.5v-81l-139 -188q33 -49 90 -123q9 -12 25.5 -34.5t23.5 -31.5v-81q0 -25 -16 -40.5t-38 -15.5q-23 0 -44 23z" />
    <glyph glyph-name="guilsinglright" unicode="&#x203a;" horiz-adv-x="530" 
d="M223 849l201 -271v-65l-201 -269q-17 -23 -44 -23q-21 0 -37.5 15.5t-16.5 40.5v81l140 189q-20 27 -62 83q-16 20 -43.5 57.5t-34.5 47.5v81q0 25 16.5 40.5t37.5 15.5q27 0 44 -23z" />
    <glyph glyph-name="uni20AC" unicode="&#x20ac;" horiz-adv-x="1139" 
d="M1125 238v-49q0 -7 -5.5 -20.5t-11.5 -18.5q-171 -177 -423 -177q-231 0 -392 150q-153 144 -197 371h-66q-32 0 -47 22t-4 51l12 32l-1 -1q5 14 21 25.5t31 11.5h40v45v29h-52q-32 0 -47 22.5t-4 51.5l12 31v-1q5 13 20.5 24.5t30.5 11.5h55q44 239 197 382
q164 154 404 154q109 0 199 -32t176 -101q15 -11 19.5 -32t-4.5 -37v1q-2 -5 -8 -14.5t-9 -15.5q-17 -30 -48 -30q-17 0 -34 11q-71 56 -140 81q-66 26 -153 26q-177 0 -299 -112q-116 -108 -151 -281h681q34 0 49 -26q16 -28 0 -56v1q-1 -1 -7.5 -12t-9.5 -18
q-6 -11 -21 -20t-27 -9h-683v-54q0 -16 1 -20h644q34 0 49 -26q14 -28 -1 -56v1q-16 -29 -17 -31q-6 -11 -21 -20t-27 -9h-607q42 -168 154 -269q120 -110 287 -110q200 0 339 158q15 21 43 21q21 0 37 -15.5t16 -40.5z" />
    <glyph glyph-name="trademark" unicode="&#x2122;" horiz-adv-x="2027" 
d="M422 608v666h-221q-23 0 -38.5 15.5t-15.5 38.5v37q0 23 15.5 39t38.5 16h588q23 0 38.5 -16t15.5 -39v-37q0 -23 -15.5 -38.5t-38.5 -15.5h-221v-666q0 -23 -15.5 -39t-39.5 -16h-36q-23 0 -39 16t-16 39zM907 608v757q0 23 15.5 39t39.5 16h62q13 0 29 -10.5t21 -23.5
q46 -109 128.5 -303.5t118.5 -281.5q14 34 43 101.5t43 101.5q90 212 161 382q6 13 21 23.5t29 10.5h62q24 0 39.5 -16t15.5 -39v-757q0 -23 -15.5 -39t-39.5 -16h-35q-24 0 -39.5 16t-15.5 39v459q-165 -393 -200 -479q-6 -13 -21 -24t-29 -11h-37q-14 0 -29 11t-21 24
q-30 73 -63 151t-73 173.5t-64 152.5v-457q0 -23 -16 -39t-39 -16h-36q-24 0 -39.5 16t-15.5 39z" />
    <glyph glyph-name="FL0" unicode="&#xe000;" horiz-adv-x="0" 
 />
    <glyph glyph-name="FL266" unicode="&#xe002;" horiz-adv-x="569" 
 />
    <glyph glyph-name="fraction" unicode="&#xe003;" horiz-adv-x="342" 
d="M-341 21l873 1374h-1q6 9 21 17t26 8h42q35 0 50 -27q14 -27 -4 -57l-874 -1373h1q-6 -9 -21 -17.5t-26 -8.5h-42q-32 0 -48 28q-14 29 3 56z" />
    <glyph glyph-name="uniE004" unicode="&#xe004;" horiz-adv-x="682" 
 />
    <glyph glyph-name="Lslash" unicode="&#xe006;" horiz-adv-x="985" 
d="M926 0h-802q-23 0 -38.5 16t-15.5 39v389q-2 -1 -5 -4t-5.5 -5t-4.5 -3l-35 -24q-19 -12 -34 -12q-21 0 -36.5 16t-15.5 40v46q0 10 7 24.5t15 19.5q20 13 57 39t57 39v745q0 23 15.5 39t38.5 16h37q23 0 38.5 -16t15.5 -39v-642q252 176 368 259q19 12 35 12
q21 0 36.5 -16t15.5 -41v-44q0 -9 -7.5 -23.5t-15.5 -20.5q-63 -44 -209 -146.5t-223 -156.5v-400h711q23 0 38.5 -15.5t15.5 -39.5v-36q0 -23 -15.5 -39t-38.5 -16z" />
    <glyph glyph-name="lslash" unicode="&#xe007;" horiz-adv-x="266" 
d="M108 1420h36q24 0 39.5 -16t15.5 -39v-427q5 5 17 16t17 15q1 1 9 7q17 16 38 16t37 -16t16 -41v-45q0 -8 -6.5 -22t-12.5 -20l-115 -99v-694q0 -23 -15.5 -39t-39.5 -16h-36q-23 0 -39 16t-16 39v567q-5 -4 -16 -13t-15 -13v1q-5 -5 -13 -11q-22 -15 -37 -15
q-22 0 -37.5 15.5t-15.5 40.5v46q0 9 6 22.5t12 19.5l116 100v550q0 23 16 39t39 16z" />
    <glyph glyph-name="minus" unicode="&#xe008;" horiz-adv-x="1229" 
d="M1045 447h-926q-22 0 -38.5 15t-16.5 38v38q0 22 16.5 38.5t38.5 16.5h926q23 0 38.5 -16.5t15.5 -38.5v-38q0 -23 -15.5 -38t-38.5 -15z" />
    <glyph glyph-name="fi" unicode="&#xfb01;" horiz-adv-x="684" 
d="M270 55q0 -23 -15.5 -39t-39.5 -16h-36q-23 0 -39 16t-16 39v1152q1 146 98 187q72 26 140 26h-1q113 7 169.5 -79t56.5 -267q0 -4 -0.5 -10t-0.5 -10v-18q0 -4 -3 -19q3 -15 3 -19v-943q0 -23 -15.5 -39t-38.5 -16h-37q-23 0 -38.5 16t-15.5 39v785q-9 -5 -22 -5h-149
v-780zM419 981q13 0 22 -4v21q0 4 3 19q-3 7 -3 21q0 6 0.5 16t0.5 15v25q0 184 -84 180q-60 0 -76 -16q-12 -12 -12 -64v-213h149z" />
    <glyph glyph-name="fl" unicode="&#xfb02;" horiz-adv-x="684" 
d="M270 55q0 -23 -15.5 -39t-39.5 -16h-36q-23 0 -39 16t-16 39v1152q1 146 98 187q70 26 143 26q35 -1 101 -8q13 8 29 8h37q23 0 38.5 -16t15.5 -39v-1310q0 -23 -15.5 -39t-38.5 -16h-37q-23 0 -38.5 16t-15.5 39v785q-9 -5 -22 -5h-149v-780zM419 981q13 0 22 -4v284
q-68 13 -83 13q-60 0 -76 -16q-12 -12 -12 -64v-213h149z" />
    <glyph glyph-name="s_t" unicode="&#xfb06;" horiz-adv-x="1442" 
d="M735 46q-117 -69 -260 -69q-436 -1 -437 400q0 23 16 39t39 16h36q23 0 39 -15.5t16 -38.5q4 -254 291 -254q96 0 177 45q69 36 73 124q0 42 -15 69q-18 26 -57 45q-43 22 -94 38q-10 3 -27 8t-27 7q-17 1 -30 5q-6 1 -16.5 2t-15.5 3q-144 36 -221 69q-148 68 -148 243
q-1 106 91 198q52 47 119 71q66 24 166 24l433 -22h115v223q0 12 8.5 27t19.5 22l37 18q28 15 56 1q25 -15 25 -49v-242h159q23 0 38.5 -16t15.5 -39v-36q0 -24 -15.5 -39.5t-38.5 -15.5h-159v-668q1 -69 17 -78q13 -8 27 -12q27 -3 29 -3q42 0 66 3h-1q29 8 49.5 -7.5
t20.5 -44.5v-37q0 -23 -16 -39t-39 -16q-13 0 -24 -1h1q-17 -4 -67 -4q-84 0 -143 50q-36 42 -49 81q-17 48 -17 101v675h-119h-7q-65 3 -209 10t-216 11q-89 -2 -130 -18q-44 -20 -64 -46t-25 -46q-8 -32 -8 -35q0 -50 19 -74q19 -28 50 -40q103 -35 235 -66
q63 -15 114 -31q69 -21 110 -49v1q52 -31 90 -90q32 -59 32 -140q-4 -167 -135 -248z" />
    <glyph glyph-name="hyphenminus" horiz-adv-x="682" 
d="M108 528v36q0 24 16 39.5t39 15.5h321q23 0 38.5 -15.5t15.5 -39.5v-36q0 -23 -15.5 -39t-38.5 -16h-321q-23 0 -39 16t-16 39z" />
    <glyph glyph-name="a.001" horiz-adv-x="985" 
d="M162 652h-37q-23 0 -39 16t-16 40q7 161 114 263q104 104 299 104q144 1 251 -67q110 -78 117 -257v-599q1 1 3 1q20 5 37 2q29 -5 42 -28t0 -49q-17 -34 -49.5 -55.5t-67.5 -21.5q-90 0 -107 99q-13 -12 -47 -39q-119 -84 -281 -84q-155 0 -260 78q-109 88 -110 232
q0 105 37 170q32 60 94 102q65 39 123 50q60 13 122 15q9 2 29 2.5t21 0.5q2 0 6 0.5t5 0.5h-1l38 3q26 3 70 5q70 7 103 17q25 7 37 20q10 13 10 49q0 41 -4 77q0 1 -1 3q-6 36 -28 65q-20 25 -55 42q-51 19 -132 19q-245 -4 -269 -226q-2 -20 -18 -35t-36 -15zM705 435v77
q-29 -10 -87 -16q-109 -11 -225 -17q-54 -2 -94 -12q-40 -9 -80 -33q-24 -13 -43 -51q-18 -32 -18 -95q0 -29 9 -56q11 -31 38 -54q43 -52 173 -54q161 2 245 95h-1q83 95 83 216z" />
    <glyph glyph-name="a.alt1" 
d="M851 1043v-891q1 1 3 1q20 5 37 2q29 -5 42 -28t0 -49q-17 -34 -49.5 -55.5t-67.5 -21.5q-90 0 -107 99q-13 -12 -47 -39q-119 -84 -281 -84q-155 0 -260 78q-109 88 -110 232q0 54 4 153q2 125 12 234q8 126 21 152q35 66 94 103q59 38 123 50q61 14 122 16q5 1 18 1
t19 1q16 2 27 2l41 3q11 1 32 2t30 3q74 6 127 30q27 12 57 34q26 21 46 26q27 6 47 -10t20 -44zM705 805v77q-29 -10 -87 -16q-109 -11 -225 -17q-54 -2 -94 -12q-40 -9 -80 -33q-25 -13 -42 -49q-5 -8 -10 -118q-4 -61 -6 -209q-3 -67 -3 -140q0 -29 9 -56q11 -31 38 -54
q43 -52 173 -54q162 2 245 95q43 54 61 152q21 136 21 434z" />
    <glyph glyph-name="f_a" horiz-adv-x="1403" 
d="M1049 61q-119 -84 -280 -84q-160 0 -260 78q-109 83 -110 232q0 104 36 170q36 67 95 102q65 39 122 50q60 13 122 15q6 1 52 4h9q9 1 22 2t16 1q21 3 71 5h-1q67 6 103 17q26 8 37 20q10 13 10 49q0 42 -6 85q-5 27 -27 60q-16 23 -55 42q-55 19 -132 19
q-76 -1 -181 -42q-86 -29 -112 -35q-65 -17 -140 -17q-11 0 -15 1h-136v-780q0 -23 -15.5 -39t-38.5 -16h-37q-23 0 -38.5 16t-15.5 39v1152q0 150 98 187q63 26 143 26q43 0 88 -9q18 -4 31 -19t13 -34v-37q0 -26 -18 -41.5t-44 -12.5q-47 7 -78 7q-59 0 -75 -16
q-13 -13 -13 -64v-213h149h1q84 0 158 19q40 10 120 37q100 38 154 38q144 2 250 -67q110 -76 117 -257v-601l-1 -2v-1h1q18 -5 30.5 -21.5t12.5 -34.5q-2 -49 -27.5 -69t-68.5 -11q-68 20 -87 90q-26 -24 -49 -40zM1093 435v77q-34 -11 -87 -16q-109 -11 -225 -17
q-51 -2 -95 -12q-40 -10 -79 -33q-29 -16 -42 -48q-20 -38 -20 -98q0 -30 11 -60q14 -31 32 -46q51 -56 177 -58q162 2 246 95h-1q83 95 83 216z" />
    <glyph glyph-name="g_a" horiz-adv-x="2048" 
d="M816 998q0 23 15.5 39t39.5 16h29l562 22q144 1 251 -67q110 -77 117 -257v-601q0 -4 -1 -4q18 -5 31.5 -21t12.5 -34q-2 -49 -28 -69t-68 -11q-71 19 -87 90q-26 -24 -49 -40q-119 -84 -281 -84q-155 0 -260 78q-109 88 -110 232q0 105 37 170q32 60 94 102
q61 38 123 50q60 13 122 15q9 2 29 2.5t21 0.5q2 0 5 0.5t5 0.5l38 3q26 3 70 5q70 7 103 17q25 7 37 20q10 13 10 49q0 33 -5 85q-14 41 -28 60q-20 25 -55 42q-44 17 -131 19q-73 -4 -225 -9.5t-224 -8.5q-34 -2 -54 -2v-823q-4 -219 -114.5 -325.5t-333.5 -105.5h-169
q-24 0 -39.5 15.5t-15.5 38.5v36q0 23 15.5 38.5t39.5 15.5l167 1q300 -1 304 288v88q-25 -23 -55 -43q-123 -81 -264 -81q-216 1 -337 157q-112 149 -112 349q0 209 116 362q122 156 346 156q152 -2 266 -90q25 -19 40 -35v48zM731 300q83 101 83 257q1 153 -80 263
q-72 104 -225 108q-157 -1 -231 -103q-83 -105 -83 -268q0 -160 80 -261q76 -98 220 -99q155 1 236 103zM1684 435v77q-32 -11 -86 -16q-108 -11 -226 -17q-54 -2 -94 -12q-40 -9 -80 -33q-24 -13 -43 -51q-18 -34 -18 -95q0 -31 11 -61q11 -27 36 -49q43 -52 173 -54
q161 2 245 95h-1q83 95 83 216z" />
    <glyph glyph-name="t_y" horiz-adv-x="1327" 
d="M291 1295v-242h205h3h1q1 0 1 -1q22 -1 37 -21q2 -2 4 -5.5t4 -5.5l322 -768l289 767v-1q5 14 20.5 24.5t30.5 10.5h38q31 0 46 -22.5t5 -52.5l-434 -1136q-43 -117 -134 -147q-72 -22 -170 -20q-22 1 -37.5 16.5t-15.5 38.5v37q0 23 16.5 38.5t38.5 15.5q3 0 8 -0.5
t7 -0.5h15q58 0 88 14q28 16 52 74q21 53 35 88q17 49 25 67q-29 70 -93.5 221t-98.5 233q-22 51 -78.5 184t-87.5 206h-142v-668q1 -70 16 -78q12 -7 28 -12q27 -3 28 -3q41 0 68 3h-1q28 8 48.5 -7.5t20.5 -44.5v-37q0 -23 -16 -39t-39 -16q-12 0 -23 -1h1q-17 -4 -69 -4
q-85 0 -138 46q-42 48 -53 86h1q-19 44 -19 100v675h-118q-24 0 -39.5 15.5t-15.5 39.5v36q0 23 15.5 39t39.5 16h118v223q0 12 9 27t20 22l38 18h-1q28 15 56 1q25 -15 25 -49z" />
    <glyph glyph-name="a_u_t_h_i_m_i_e" horiz-adv-x="6675" 
d="M551 1063v537q0 9 9 9h4925q10 0 10 -9v-537q0 -10 -10 -10h-4925q-9 0 -9 10zM935 530h-148q-60 0 -92 35q-38 40 -38 130q0 86 39 130q33 37 93 37q55 0 79 -27v124q0 21 21 21h46q21 0 21 -21v-408q0 -21 -21 -21zM1055 892h-46q-21 0 -21 21v46q0 21 21 21h46
q22 0 22 -21v-46q0 -21 -22 -21zM5044 892h-46q-21 0 -21 21v46q0 21 21 21h46q22 0 22 -21v-46q0 -21 -22 -21zM1512 892h-46q-20 0 -20 21v46q0 21 20 21h46q22 0 22 -21v-46q0 -21 -22 -21zM2142 538h-10q-88 0 -88 98v323q0 21 21 21h46q21 0 21 -21v-319q0 -35 6 -35h4
q22 0 22 -21v-26q0 -20 -22 -20zM4634 530h-148q-21 0 -21 21v408q0 21 21 21h46q21 0 21 -21l1 -123q29 26 78 26q60 0 93 -37q40 -45 40 -130q0 -89 -39 -130q-34 -35 -92 -35zM4110 790v-232q0 -20 -22 -20h-46q-20 0 -20 20v232h-21q-21 0 -21 21v22q0 22 21 22h21
q0 4 -0.5 13t-0.5 13q0 99 89 99h22q20 0 20 -21v-26q0 -20 -20 -20h-5q-17 0 -17 -31v-27h25q22 0 22 -22v-22q0 -21 -22 -21h-25zM3479 892h-46q-21 0 -21 21v46q0 21 21 21h46q21 0 21 -21v-46q0 -21 -21 -21zM3359 530h-148q-59 0 -93 35q-38 40 -38 130q0 87 40 130
q33 37 93 37q55 0 79 -27v124q0 21 21 21h46q21 0 21 -21v-408q0 -21 -21 -21zM1700 538h-22q-88 0 -88 98v154h-21q-20 0 -20 21v22q0 22 20 22h21v33q0 10 3.5 14t12.5 7l48 16h-1q11 6 18 -0.5t7 -18.5v-51h26q21 0 21 -22v-22q0 -21 -21 -21h-26v-155q0 -30 18 -30h4
q21 0 21 -21v-26q0 -20 -21 -20zM5323 612l16 -23q11 -12 -1 -28q-30 -30 -99 -30q-79 0 -113 50q-29 40 -29 115q0 76 30 116q34 50 118 50q50 0 92 -31q11 -12 2 -28l-12 -19q-3 -4 -6 -5.5t-4.5 -1.5t-5.5 1t-6 1q-1 1 -7 3t-7 2q-22 10 -44 10q-33 0 -49 -30
q-13 -27 -13 -68q0 -43 13 -68q14 -29 49 -29q27 0 53 12q19 7 23 1zM1173 493q57 -12 88 -12q26 0 42 20t17 55q-32 -25 -80 -25q-59 0 -93 35q-39 41 -39 131q0 89 38 129q35 36 92 36q61 0 97 -33q0 2 1 4l1 2q2 8 3.5 11.5t5.5 6t12 2.5h29q21 0 21 -22v-269
q0 -70 -41 -114q-41 -43 -106 -43q-40 0 -76 11q-37 8 -50 19q-9 10 -4 26l10 24q5 15 26 7q1 0 3 -0.5t3 -0.5zM2013 699v-127q0 -4 -4 -8q-39 -34 -147 -34q-52 0 -84.5 28.5t-32.5 85.5t38 82q32 21 90 21h47q-9 47 -50 47q-13 0 -52 -12q-4 -1 -10 -3l1 1q-21 -9 -27 6
q-1 2 -5.5 8.5t-6.5 8.5q-8 15 2 26q9 12 40.5 22.5t65.5 10.5q73 0 108 -49q27 -42 27 -114zM2728 538h-46q-21 0 -21 20v161q0 75 -31 75q-37 0 -38 -76v-160q0 -20 -22 -20h-46q-21 0 -21 20v161q0 75 -31 75h-38v-236q0 -20 -22 -20h-46q-21 0 -21 20v282q0 22 21 22
h112q53 0 84 -39q27 39 74 39t81 -32q33 -35 33 -91v-181q0 -20 -22 -20zM4434 699v-127q0 -4 -4 -8q-38 -34 -147 -34q-52 0 -84.5 28.5t-32.5 85.5t38 82q32 21 90 21h48q-12 47 -51 47q-13 0 -52 -12q-4 -1 -10 -3l1 1q-21 -9 -27 6q-2 2 -6.5 8.5t-5.5 8.5q-8 15 2 26
q9 12 40.5 22.5t65.5 10.5q73 0 108 -49q27 -42 27 -114zM3019 609l13 -21q8 -15 -1 -26q-9 -12 -40 -21.5t-69 -9.5q-80 0 -113 49q-29 40 -29 113q0 75 30 119q34 50 107 50q56 0 94 -33q38 -36 38 -100q0 -39 -16 -53t-57 -14h-108q6 -63 62 -63q20 0 65 13l-1 -1
q16 7 25 -2zM3800 699v-127q0 -4 -4 -8q-38 -34 -147 -34q-52 0 -84.5 28.5t-32.5 85.5t38 82q32 21 90 21h48q-12 47 -50 47q-14 0 -53 -12q-4 -1 -10 -3l1 1q-21 -9 -27 6q-1 2 -5.5 8.5t-6.5 8.5q-6 13 2 26q9 12 40.5 22.5t65.5 10.5q73 0 108 -49q27 -42 27 -114z
M4864 538h-47q-20 0 -20 20v275q0 22 20 22h29q7 0 11 -2t4.5 -3t3.5 -8l-2 3l2 -4q1 -5 3 -6l1 -2q22 26 73 26q13 0 17 -3t4 -15v-44q0 -16 -7 -19.5t-17 0.5q-1 1 -10 1q-44 0 -44 -46v-175q0 -20 -21 -20zM1055 538h-46q-21 0 -21 20v275q0 22 21 22h46q22 0 22 -22
v-275q0 -20 -22 -20zM5044 538h-46q-21 0 -21 20v275q0 22 21 22h46q22 0 22 -22v-275q0 -20 -22 -20zM1512 538h-46q-20 0 -20 20v275q0 22 20 22h46q22 0 22 -22v-275q0 -20 -22 -20zM3479 538h-46q-21 0 -21 20v275q0 22 21 22h46q21 0 21 -22v-275q0 -20 -21 -20z
M868 596v99q0 99 -69 99q-31 0 -45 -21.5t-10 -77.5v-9q0 -42 9 -58q19 -35 75 -35q7 0 21.5 1.5t18.5 1.5zM2869 730h78q14 0 14 9q0 22 -12 38.5t-29 16.5q-44 0 -51 -64zM4553 695v-99q10 -2 37 -2q59 0 78 34q9 16 9 57v10q4 52 -12 80q-14 19 -43 19q-69 0 -69 -99z
M1211 618q11 -19 39 -19q70 0 70 98q0 97 -70 97q-28 0 -41 -20.5t-13 -76.5q0 -57 15 -79zM3292 596v99q0 99 -69 99q-31 0 -45 -21.5t-10 -77.5v-9q0 -42 9 -58q19 -35 75 -35q7 0 21.5 1.5t18.5 1.5zM3711 679h-51q-18 0 -29 -9t-11 -25t9 -28q13 -17 39 -17q21 0 43 7
v72zM4345 679h-51q-18 0 -29 -9t-11 -25t9 -28q13 -17 39 -17q21 0 43 7v72zM1924 679h-51q-18 0 -29 -9t-11 -25t9 -28q13 -17 39 -17q21 0 43 7v72z" />
    <glyph glyph-name="aalt" horiz-adv-x="0" 
 />
    <glyph glyph-name=".notdef#1" 
 />
    <glyph glyph-name=".notdef#2" 
 />
    </font>
</defs>
</svg>
